M48
; DRILL file {KiCad (5.1.5)-3} date 22/05/2020 17:37:45
; FORMAT={-:-/ absolute / metric / decimal}
; #@! TF.CreationDate,2020-05-22T17:37:45+01:00
; #@! TF.GenerationSoftware,Kicad,Pcbnew,(5.1.5)-3
; #@! TF.FileFunction,Plated,1,2,PTH
FMAT,2
METRIC
T1C0.800
T2C1.000
%
G90
G05
T1
X141.605Y-95.441
X138.239Y-85.28
X138.239Y-95.441
X151.486Y-60.274
X159.106Y-60.274
X144.551Y-49.098
X152.171Y-49.098
X141.605Y-59.614
X141.605Y-67.234
X132.385Y-47.904
X132.385Y-63.144
X141.605Y-85.28
X165.608Y-52.654
X165.608Y-60.274
X148.64Y-43.815
X150.64Y-43.815
T2
X138.227Y-34.214
X138.227Y-36.754
X138.227Y-39.294
X138.227Y-41.834
X138.227Y-44.374
X138.227Y-46.914
X138.227Y-49.454
X138.227Y-51.994
X138.227Y-54.534
X138.227Y-57.074
X138.227Y-59.614
X138.227Y-62.154
X138.227Y-64.694
X138.227Y-67.234
X138.227Y-69.774
X138.227Y-72.314
X138.227Y-74.854
X138.227Y-77.394
X138.227Y-79.934
X138.227Y-82.474
X168.961Y-52.635
X168.961Y-55.175
X168.961Y-57.715
X168.961Y-60.255
X168.961Y-62.795
X168.961Y-65.335
X168.961Y-67.875
X168.961Y-70.415
X135.687Y-34.214
X135.687Y-36.754
X135.687Y-39.294
X135.687Y-41.834
X135.687Y-44.374
X135.687Y-46.914
X135.687Y-49.454
X135.687Y-51.994
X135.687Y-54.534
X135.687Y-57.074
X135.687Y-59.614
X135.687Y-62.154
X135.687Y-64.694
X135.687Y-67.234
X135.687Y-69.774
X135.687Y-72.314
X135.687Y-74.854
X135.687Y-77.394
X135.687Y-79.934
X135.687Y-82.474
X148.641Y-52.635
X148.641Y-55.175
X148.641Y-57.715
X148.641Y-60.255
X148.641Y-62.795
X148.641Y-65.335
X148.641Y-67.875
X148.641Y-70.415
T2
G00X133.366Y-97.917
M15
G01X135.366Y-97.917
M16
G05
G00X133.366Y-103.917
M15
G01X135.366Y-103.917
M16
G05
G00X139.066Y-101.917
M15
G01X139.066Y-99.917
M16
G05
T0
M30
