G04 #@! TF.GenerationSoftware,KiCad,Pcbnew,(5.1.5)-3*
G04 #@! TF.CreationDate,2020-05-22T17:28:33+01:00*
G04 #@! TF.ProjectId,CU,43552e6b-6963-4616-945f-706362585858,rev?*
G04 #@! TF.SameCoordinates,Original*
G04 #@! TF.FileFunction,Copper,L2,Bot*
G04 #@! TF.FilePolarity,Positive*
%FSLAX46Y46*%
G04 Gerber Fmt 4.6, Leading zero omitted, Abs format (unit mm)*
G04 Created by KiCad (PCBNEW (5.1.5)-3) date 2020-05-22 17:28:33*
%MOMM*%
%LPD*%
G04 APERTURE LIST*
%ADD10O,1.600000X1.600000*%
%ADD11C,1.600000*%
%ADD12R,1.600000X1.600000*%
%ADD13O,2.000000X1.905000*%
%ADD14R,2.000000X1.905000*%
%ADD15C,1.600000*%
%ADD16R,1.700000X1.700000*%
%ADD17O,1.700000X1.700000*%
%ADD18C,0.100000*%
%ADD19R,3.500000X3.500000*%
%ADD20C,1.400000*%
%ADD21C,1.000000*%
%ADD22C,0.800000*%
%ADD23C,2.000000*%
%ADD24C,0.950000*%
%ADD25C,0.650000*%
G04 APERTURE END LIST*
D10*
X72136000Y-93980000D03*
D11*
X64516000Y-93980000D03*
X79939875Y-73782948D03*
X79939875Y-68782948D03*
D10*
X69745279Y-66190928D03*
D11*
X69745279Y-73810928D03*
D10*
X66633779Y-68032426D03*
D11*
X66633779Y-70572426D03*
D10*
X66633778Y-62761927D03*
D11*
X66633778Y-65301927D03*
X74961100Y-73805791D03*
D12*
X74961100Y-71805791D03*
D11*
X66553779Y-73810927D03*
X61553779Y-73810927D03*
D13*
X61553778Y-69429427D03*
X61553778Y-66889427D03*
D14*
X61553778Y-64349427D03*
D11*
X83084345Y-88527787D03*
D10*
X90704345Y-88527787D03*
D11*
X115342346Y-85098787D03*
D10*
X115342346Y-92718787D03*
D11*
X85116346Y-91702787D03*
D10*
X92736346Y-91702787D03*
D11*
X111532347Y-92718787D03*
D15*
X105695088Y-97616829D02*
X105695088Y-97616829D01*
D10*
X90099874Y-64337948D03*
D11*
X90099874Y-56717948D03*
D10*
X106101874Y-71957949D03*
D11*
X106101874Y-64337949D03*
X118644346Y-87384786D03*
D10*
X118644346Y-95004786D03*
X133223000Y-140208000D03*
D11*
X133223000Y-147828000D03*
D10*
X123063000Y-119888000D03*
D11*
X123063000Y-127508000D03*
D10*
X133223000Y-99568000D03*
D11*
X133223000Y-107188000D03*
D10*
X129968001Y-142748000D03*
D11*
X129968001Y-150368000D03*
D10*
X119888000Y-122428000D03*
D11*
X119888000Y-130048000D03*
D10*
X130048000Y-102108000D03*
D11*
X130048000Y-109728000D03*
D10*
X117348000Y-156083000D03*
D11*
X124968000Y-156083000D03*
D10*
X114808000Y-152908000D03*
D11*
X122428000Y-152908000D03*
D10*
X97028000Y-145923000D03*
D11*
X104648000Y-145923000D03*
D10*
X94488000Y-142748000D03*
D11*
X102108000Y-142748000D03*
X124740346Y-89543787D03*
D10*
X124740346Y-97163787D03*
D11*
X121692345Y-89543787D03*
D10*
X121692345Y-97163787D03*
D11*
X93752346Y-87638788D03*
D15*
X98650388Y-93476047D02*
X98650388Y-93476047D01*
D10*
X76708000Y-156083000D03*
D11*
X84328000Y-156083000D03*
D10*
X74168000Y-152908000D03*
D11*
X81788000Y-152908000D03*
D10*
X72263000Y-145288000D03*
D11*
X72263000Y-137668000D03*
D10*
X82502999Y-124968000D03*
D11*
X82502999Y-117348000D03*
D10*
X69088000Y-147828000D03*
D11*
X69088000Y-140208000D03*
D10*
X79248000Y-127508000D03*
D11*
X79248000Y-119888000D03*
D16*
X75972346Y-85098787D03*
D17*
X78512346Y-85098787D03*
X81052346Y-85098787D03*
X83592346Y-85098787D03*
X86132346Y-85098787D03*
X88672346Y-85098787D03*
X91212346Y-85098787D03*
X93752346Y-85098787D03*
X96292346Y-85098787D03*
X98832346Y-85098787D03*
X101372346Y-85098787D03*
X103912346Y-85098787D03*
X106452346Y-85098787D03*
X108992346Y-85098787D03*
X111532346Y-85098787D03*
D16*
X111532346Y-100338787D03*
D17*
X108992346Y-100338787D03*
X106452346Y-100338787D03*
X103912346Y-100338787D03*
X101372346Y-100338787D03*
X98832346Y-100338787D03*
X96292346Y-100338787D03*
X93752346Y-100338787D03*
X91212346Y-100338787D03*
X88672346Y-100338787D03*
X86132346Y-100338787D03*
X83592346Y-100338787D03*
X81052346Y-100338787D03*
X78512346Y-100338787D03*
X75972346Y-100338787D03*
X137668000Y-147828000D03*
X137668000Y-145288000D03*
X137668000Y-142748000D03*
D16*
X137668000Y-140208000D03*
D17*
X127508000Y-127508000D03*
X127508000Y-124968000D03*
X127508000Y-122428000D03*
D16*
X127508000Y-119888000D03*
D17*
X137668000Y-107188000D03*
X137668000Y-104648000D03*
X137668000Y-102108000D03*
D16*
X137668000Y-99568000D03*
D17*
X102799873Y-53542947D03*
X100259873Y-53542947D03*
X97719873Y-53542947D03*
X95179873Y-53542947D03*
X92639873Y-53542947D03*
X90099873Y-53542947D03*
X87559873Y-53542947D03*
D16*
X85019873Y-53542947D03*
D17*
X117348000Y-160528000D03*
X119888000Y-160528000D03*
X122428000Y-160528000D03*
D16*
X124968000Y-160528000D03*
D17*
X85019875Y-73862948D03*
X87559875Y-73862948D03*
X90099875Y-73862948D03*
X92639875Y-73862948D03*
X95179875Y-73862948D03*
X97719875Y-73862948D03*
X100259875Y-73862948D03*
D16*
X102799875Y-73862948D03*
D17*
X97028000Y-150368000D03*
X99568000Y-150368000D03*
X102108000Y-150368000D03*
D16*
X104648000Y-150368000D03*
D17*
X76708000Y-160528000D03*
X79248000Y-160528000D03*
X81788000Y-160528000D03*
D16*
X84328000Y-160528000D03*
D17*
X64008000Y-140208000D03*
X64008000Y-142748000D03*
X64008000Y-145288000D03*
D16*
X64008000Y-147828000D03*
D17*
X74168000Y-119888000D03*
X74168000Y-122428000D03*
X74168000Y-124968000D03*
D16*
X74168000Y-127508000D03*
D17*
X64008000Y-99568000D03*
X64008000Y-102108000D03*
X64008000Y-104648000D03*
D16*
X64008000Y-107188000D03*
G04 #@! TA.AperFunction,ComponentPad*
D18*
G36*
X65016765Y-86139213D02*
G01*
X65101704Y-86151813D01*
X65184999Y-86172677D01*
X65265848Y-86201605D01*
X65343472Y-86238319D01*
X65417124Y-86282464D01*
X65486094Y-86333616D01*
X65549718Y-86391282D01*
X65607384Y-86454906D01*
X65658536Y-86523876D01*
X65702681Y-86597528D01*
X65739395Y-86675152D01*
X65768323Y-86756001D01*
X65789187Y-86839296D01*
X65801787Y-86924235D01*
X65806000Y-87010000D01*
X65806000Y-88760000D01*
X65801787Y-88845765D01*
X65789187Y-88930704D01*
X65768323Y-89013999D01*
X65739395Y-89094848D01*
X65702681Y-89172472D01*
X65658536Y-89246124D01*
X65607384Y-89315094D01*
X65549718Y-89378718D01*
X65486094Y-89436384D01*
X65417124Y-89487536D01*
X65343472Y-89531681D01*
X65265848Y-89568395D01*
X65184999Y-89597323D01*
X65101704Y-89618187D01*
X65016765Y-89630787D01*
X64931000Y-89635000D01*
X63181000Y-89635000D01*
X63095235Y-89630787D01*
X63010296Y-89618187D01*
X62927001Y-89597323D01*
X62846152Y-89568395D01*
X62768528Y-89531681D01*
X62694876Y-89487536D01*
X62625906Y-89436384D01*
X62562282Y-89378718D01*
X62504616Y-89315094D01*
X62453464Y-89246124D01*
X62409319Y-89172472D01*
X62372605Y-89094848D01*
X62343677Y-89013999D01*
X62322813Y-88930704D01*
X62310213Y-88845765D01*
X62306000Y-88760000D01*
X62306000Y-87010000D01*
X62310213Y-86924235D01*
X62322813Y-86839296D01*
X62343677Y-86756001D01*
X62372605Y-86675152D01*
X62409319Y-86597528D01*
X62453464Y-86523876D01*
X62504616Y-86454906D01*
X62562282Y-86391282D01*
X62625906Y-86333616D01*
X62694876Y-86282464D01*
X62768528Y-86238319D01*
X62846152Y-86201605D01*
X62927001Y-86172677D01*
X63010296Y-86151813D01*
X63095235Y-86139213D01*
X63181000Y-86135000D01*
X64931000Y-86135000D01*
X65016765Y-86139213D01*
G37*
G04 #@! TD.AperFunction*
G04 #@! TA.AperFunction,ComponentPad*
G36*
X61879513Y-81438611D02*
G01*
X61952318Y-81449411D01*
X62023714Y-81467295D01*
X62093013Y-81492090D01*
X62159548Y-81523559D01*
X62222678Y-81561398D01*
X62281795Y-81605242D01*
X62336330Y-81654670D01*
X62385758Y-81709205D01*
X62429602Y-81768322D01*
X62467441Y-81831452D01*
X62498910Y-81897987D01*
X62523705Y-81967286D01*
X62541589Y-82038682D01*
X62552389Y-82111487D01*
X62556000Y-82185000D01*
X62556000Y-84185000D01*
X62552389Y-84258513D01*
X62541589Y-84331318D01*
X62523705Y-84402714D01*
X62498910Y-84472013D01*
X62467441Y-84538548D01*
X62429602Y-84601678D01*
X62385758Y-84660795D01*
X62336330Y-84715330D01*
X62281795Y-84764758D01*
X62222678Y-84808602D01*
X62159548Y-84846441D01*
X62093013Y-84877910D01*
X62023714Y-84902705D01*
X61952318Y-84920589D01*
X61879513Y-84931389D01*
X61806000Y-84935000D01*
X60306000Y-84935000D01*
X60232487Y-84931389D01*
X60159682Y-84920589D01*
X60088286Y-84902705D01*
X60018987Y-84877910D01*
X59952452Y-84846441D01*
X59889322Y-84808602D01*
X59830205Y-84764758D01*
X59775670Y-84715330D01*
X59726242Y-84660795D01*
X59682398Y-84601678D01*
X59644559Y-84538548D01*
X59613090Y-84472013D01*
X59588295Y-84402714D01*
X59570411Y-84331318D01*
X59559611Y-84258513D01*
X59556000Y-84185000D01*
X59556000Y-82185000D01*
X59559611Y-82111487D01*
X59570411Y-82038682D01*
X59588295Y-81967286D01*
X59613090Y-81897987D01*
X59644559Y-81831452D01*
X59682398Y-81768322D01*
X59726242Y-81709205D01*
X59775670Y-81654670D01*
X59830205Y-81605242D01*
X59889322Y-81561398D01*
X59952452Y-81523559D01*
X60018987Y-81492090D01*
X60088286Y-81467295D01*
X60159682Y-81449411D01*
X60232487Y-81438611D01*
X60306000Y-81435000D01*
X61806000Y-81435000D01*
X61879513Y-81438611D01*
G37*
G04 #@! TD.AperFunction*
D19*
X67056000Y-83185000D03*
D20*
X62484000Y-93980000D02*
X64516000Y-93980000D01*
X60325000Y-91821000D02*
X62484000Y-93980000D01*
X60325000Y-85666000D02*
X60325000Y-91821000D01*
X61056000Y-83185000D02*
X61056000Y-84935000D01*
X61056000Y-84935000D02*
X60325000Y-85666000D01*
X61553779Y-73810927D02*
X61553779Y-69429428D01*
X85116346Y-90559787D02*
X83084345Y-88527787D01*
X85116346Y-91702787D02*
X85116346Y-90559787D01*
X83592346Y-88019787D02*
X83084345Y-88527787D01*
X83592346Y-85098787D02*
X83592346Y-88019787D01*
X64008000Y-99568000D02*
X60452000Y-99568000D01*
X60452000Y-99568000D02*
X59436000Y-99568000D01*
X59436000Y-128778000D02*
X59436000Y-129540000D01*
X59436000Y-129540000D02*
X59436000Y-136144000D01*
X59436000Y-109982000D02*
X64262000Y-109982000D01*
X59436000Y-109982000D02*
X59436000Y-128778000D01*
X64262000Y-109982000D02*
X74168000Y-119888000D01*
X59436000Y-99568000D02*
X59436000Y-109982000D01*
X64008000Y-140208000D02*
X59436000Y-140208000D01*
X59436000Y-136144000D02*
X59436000Y-140208000D01*
X59436000Y-140208000D02*
X59436000Y-163830000D01*
X140970000Y-110490000D02*
X137668000Y-107188000D01*
X127508000Y-127508000D02*
X140970000Y-127508000D01*
X140970000Y-127508000D02*
X140970000Y-110490000D01*
X137668000Y-147828000D02*
X138870081Y-147828000D01*
X138870081Y-147828000D02*
X140970000Y-147828000D01*
X140970000Y-163830000D02*
X140970000Y-147828000D01*
X140970000Y-147828000D02*
X140970000Y-127508000D01*
X117348000Y-163576000D02*
X117094000Y-163830000D01*
X117348000Y-160528000D02*
X117348000Y-163576000D01*
X117094000Y-163830000D02*
X140970000Y-163830000D01*
X87122000Y-160274000D02*
X87122000Y-163830000D01*
X97028000Y-150368000D02*
X87122000Y-160274000D01*
X87122000Y-163830000D02*
X117094000Y-163830000D01*
X76708000Y-160528000D02*
X76708000Y-163576000D01*
X59436000Y-163830000D02*
X76454000Y-163830000D01*
X76708000Y-163576000D02*
X76454000Y-163830000D01*
X76454000Y-163830000D02*
X87122000Y-163830000D01*
X68072000Y-84201000D02*
X67056000Y-83185000D01*
X64008000Y-99568000D02*
X68072000Y-95504000D01*
X68072000Y-95504000D02*
X68072000Y-84201000D01*
X81687346Y-88527787D02*
X80925346Y-87765787D01*
X74303788Y-87765788D02*
X69596000Y-83058000D01*
X67183000Y-83058000D02*
X67056000Y-83185000D01*
X80925346Y-87765787D02*
X74303788Y-87765788D01*
X83084345Y-88527787D02*
X81687346Y-88527787D01*
X69596000Y-83058000D02*
X67183000Y-83058000D01*
X61553779Y-77682779D02*
X67056000Y-83185000D01*
X61553779Y-73810927D02*
X61553779Y-77682779D01*
X68671629Y-104648000D02*
X65210081Y-104648000D01*
X65210081Y-104648000D02*
X64008000Y-104648000D01*
X80571630Y-116548001D02*
X68671629Y-104648000D01*
X81703000Y-116548001D02*
X80571630Y-116548001D01*
X82502999Y-117348000D02*
X81703000Y-116548001D01*
X66258000Y-107188000D02*
X64008000Y-107188000D01*
X78158001Y-119088001D02*
X66258000Y-107188000D01*
X79248000Y-119888000D02*
X78448001Y-119088001D01*
X78448001Y-119088001D02*
X78158001Y-119088001D01*
X74168000Y-124968000D02*
X82502999Y-124968000D01*
X82502999Y-126099370D02*
X82502999Y-124968000D01*
X72263000Y-137668000D02*
X73394370Y-137668000D01*
X82502999Y-128559371D02*
X82502999Y-126099370D01*
X73394370Y-137668000D02*
X82502999Y-128559371D01*
X79248000Y-127508000D02*
X74168000Y-127508000D01*
X69088000Y-140208000D02*
X69088000Y-136398000D01*
X74168000Y-131318000D02*
X74168000Y-127508000D01*
X69088000Y-136398000D02*
X74168000Y-131318000D01*
X64008000Y-145288000D02*
X72263000Y-145288000D01*
X72263000Y-151003000D02*
X74168000Y-152908000D01*
X72263000Y-145288000D02*
X72263000Y-151003000D01*
X69088000Y-147828000D02*
X64008000Y-147828000D01*
X69088000Y-147828000D02*
X69088000Y-151257000D01*
X73914000Y-156083000D02*
X76708000Y-156083000D01*
X69088000Y-151257000D02*
X73914000Y-156083000D01*
X81788000Y-152908000D02*
X81788000Y-160528000D01*
X84328000Y-152908000D02*
X94488000Y-142748000D01*
X81788000Y-152908000D02*
X84328000Y-152908000D01*
X84328000Y-156083000D02*
X84328000Y-160528000D01*
X86868000Y-156083000D02*
X97028000Y-145923000D01*
X84328000Y-156083000D02*
X86868000Y-156083000D01*
X102108000Y-142748000D02*
X102108000Y-150368000D01*
X103239370Y-142748000D02*
X102108000Y-142748000D01*
X114808000Y-151776630D02*
X105779370Y-142748000D01*
X105779370Y-142748000D02*
X103239370Y-142748000D01*
X114808000Y-152908000D02*
X114808000Y-151776630D01*
X104648000Y-150368000D02*
X104648000Y-145923000D01*
X114554000Y-156083000D02*
X116216630Y-156083000D01*
X116216630Y-156083000D02*
X117348000Y-156083000D01*
X104648000Y-150368000D02*
X108839000Y-150368000D01*
X108839000Y-150368000D02*
X114554000Y-156083000D01*
X66553779Y-73810926D02*
X69745279Y-73810928D01*
X80019874Y-73862948D02*
X79939875Y-73782948D01*
X84939875Y-73782948D02*
X85019875Y-73862949D01*
X79939875Y-73782948D02*
X84939875Y-73782948D01*
X69750415Y-73805790D02*
X69745279Y-73810928D01*
X74961100Y-73805791D02*
X69750415Y-73805790D01*
X74983943Y-73782947D02*
X74961100Y-73805791D01*
X79939875Y-73782948D02*
X74983943Y-73782947D01*
X78512346Y-85098787D02*
X78512346Y-80237654D01*
X79939875Y-78810125D02*
X79939875Y-73782948D01*
X78512346Y-80237654D02*
X79939875Y-78810125D01*
D21*
X124740346Y-89543787D02*
X124740346Y-86622787D01*
X87559874Y-71830947D02*
X87559874Y-73862949D01*
X92385874Y-67004947D02*
X87559874Y-71830947D01*
X92385874Y-67004947D02*
X107390947Y-67004947D01*
X124740346Y-84354346D02*
X124740346Y-86622787D01*
X107390947Y-67004947D02*
X124740346Y-84354346D01*
X90099874Y-72660866D02*
X90099875Y-73862948D01*
X93215794Y-69544948D02*
X90099874Y-72660866D01*
X93215794Y-69544948D02*
X106882948Y-69544948D01*
X121692345Y-84354345D02*
X121692345Y-89543787D01*
X106882948Y-69544948D02*
X121692345Y-84354345D01*
D22*
X110185640Y-82550000D02*
X111532346Y-83896706D01*
X100124846Y-82550000D02*
X110185640Y-82550000D01*
X92639875Y-75065029D02*
X100124846Y-82550000D01*
X111532346Y-83896706D02*
X111532346Y-85098787D01*
X92639875Y-73862948D02*
X92639875Y-75065029D01*
X95179875Y-75113875D02*
X95179875Y-73862948D01*
X114542347Y-84298788D02*
X114524788Y-84298788D01*
X115342346Y-85098787D02*
X114542347Y-84298788D01*
X111252000Y-81026000D02*
X101092000Y-81026000D01*
X114524788Y-84298788D02*
X111252000Y-81026000D01*
X101092000Y-81026000D02*
X95179875Y-75113875D01*
D20*
X122428000Y-152908000D02*
X122428000Y-160528000D01*
X127428001Y-152908000D02*
X129968001Y-150368000D01*
X122428000Y-152908000D02*
X127428001Y-152908000D01*
X124968000Y-156083000D02*
X124968000Y-160528000D01*
X124968000Y-156083000D02*
X127635000Y-156083000D01*
X133223000Y-150495000D02*
X133223000Y-147828000D01*
X127635000Y-156083000D02*
X133223000Y-150495000D01*
D21*
X64093779Y-67429427D02*
X63553778Y-66889426D01*
X63553778Y-66889426D02*
X61553779Y-66889428D01*
X64093779Y-69429428D02*
X64093779Y-67429427D01*
X65236779Y-70572427D02*
X64093779Y-69429428D01*
X66633779Y-70572426D02*
X65236779Y-70572427D01*
D20*
X79939875Y-68782948D02*
X81844874Y-68782948D01*
X92639875Y-57987947D02*
X92639874Y-53542949D01*
X81844874Y-68782948D02*
X92639875Y-57987947D01*
X76917031Y-71805790D02*
X79939875Y-68782948D01*
X74961100Y-71805791D02*
X76917031Y-71805790D01*
X73727735Y-70572426D02*
X74961100Y-71805791D01*
X66633779Y-70572426D02*
X73727735Y-70572426D01*
X90099874Y-53542948D02*
X90099874Y-56717948D01*
X137668000Y-102108000D02*
X130048000Y-102108000D01*
X92736346Y-91702787D02*
X93867715Y-91702787D01*
D22*
X98650388Y-90741745D02*
X98650388Y-93476046D01*
D20*
X98650388Y-90741745D02*
X98705346Y-90686787D01*
X98705346Y-90686787D02*
X96673346Y-90686787D01*
X95657346Y-91702787D02*
X93867715Y-91702787D01*
X96673346Y-90686787D02*
X95657346Y-91702787D01*
D22*
X98705346Y-90686787D02*
X117120346Y-90686787D01*
X117120346Y-90686787D02*
X120930346Y-94496787D01*
X120930346Y-94496787D02*
X124722787Y-94496787D01*
X130048000Y-99822000D02*
X130048000Y-102108000D01*
X124722787Y-94496787D02*
X130048000Y-99822000D01*
D20*
X133223000Y-99568000D02*
X137668000Y-99568000D01*
D22*
X118644346Y-90178787D02*
X118136346Y-89670787D01*
X91847346Y-89670787D02*
X90704346Y-88527787D01*
X96038346Y-88654787D02*
X95022346Y-89670787D01*
X95022346Y-89670787D02*
X91847346Y-89670787D01*
X118644346Y-90178787D02*
X117120346Y-88654787D01*
X117120346Y-88654787D02*
X96038346Y-88654787D01*
X118644346Y-90178787D02*
X120422345Y-91956787D01*
D20*
X91212346Y-88019787D02*
X90704346Y-88527787D01*
X91212346Y-85098787D02*
X91212346Y-88019787D01*
D22*
X125611787Y-91956787D02*
X133223000Y-99568000D01*
X120422345Y-91956787D02*
X125611787Y-91956787D01*
D20*
X127508000Y-122428000D02*
X119888000Y-122428000D01*
X130048000Y-111760000D02*
X130048000Y-109728000D01*
X124333000Y-117475000D02*
X130048000Y-111760000D01*
X122301000Y-117475000D02*
X124333000Y-117475000D01*
X119888000Y-122428000D02*
X119888000Y-119888000D01*
X119888000Y-119888000D02*
X122301000Y-117475000D01*
X123063000Y-119888000D02*
X127508000Y-119888000D01*
X133223000Y-108319370D02*
X133223000Y-107188000D01*
X127508000Y-117638000D02*
X133223000Y-111923000D01*
X133223000Y-111923000D02*
X133223000Y-108319370D01*
X127508000Y-119888000D02*
X127508000Y-117638000D01*
X129968001Y-142748000D02*
X137668000Y-142748000D01*
X129968001Y-140128001D02*
X119888000Y-130048000D01*
X129968001Y-142748000D02*
X129968001Y-140128001D01*
X133223000Y-140208000D02*
X137668000Y-140208000D01*
X123063000Y-130048000D02*
X133223000Y-140208000D01*
X123063000Y-127508000D02*
X123063000Y-130048000D01*
D21*
X86132346Y-98687787D02*
X86132346Y-100338787D01*
X102134346Y-97925787D02*
X86894346Y-97925787D01*
X86894346Y-97925787D02*
X86132346Y-98687787D01*
X118644346Y-95004787D02*
X105055346Y-95004787D01*
X105055346Y-95004787D02*
X102134346Y-97925787D01*
D20*
X106452346Y-98374088D02*
X105695087Y-97616829D01*
X106452346Y-100338787D02*
X106452346Y-98374088D01*
D21*
X108992345Y-99136706D02*
X108992346Y-100338787D01*
X110965265Y-97163787D02*
X108992345Y-99136706D01*
X121692346Y-97163787D02*
X110965265Y-97163787D01*
X124740346Y-99068787D02*
X124740346Y-97163787D01*
X111532346Y-100338787D02*
X123470346Y-100338787D01*
X123470346Y-100338787D02*
X124740346Y-99068787D01*
D20*
X93752346Y-87638788D02*
X93752346Y-85098787D01*
X63141279Y-62761927D02*
X61553778Y-64349427D01*
X66633778Y-62761927D02*
X63141279Y-62761927D01*
X69745280Y-66190928D02*
X69745278Y-63650928D01*
X68856279Y-62761928D02*
X66633778Y-62761927D01*
X69745278Y-63650928D02*
X68856279Y-62761928D01*
X66633779Y-68032427D02*
X66633778Y-65301927D01*
D21*
X118644346Y-86253416D02*
X118644346Y-87384786D01*
X118618000Y-86227070D02*
X118644346Y-86253416D01*
X106101874Y-71957949D02*
X106101874Y-72573874D01*
X118618000Y-85090000D02*
X118618000Y-86227070D01*
X106101874Y-72573874D02*
X118618000Y-85090000D01*
D20*
X90099875Y-64337947D02*
X106101874Y-64337949D01*
X111532347Y-92718787D02*
X115342345Y-92718787D01*
X137668000Y-104648000D02*
X136465919Y-104648000D01*
D23*
X116332000Y-125476000D02*
X116332000Y-127000000D01*
D20*
X119888000Y-160528000D02*
X119888000Y-154432000D01*
X119888000Y-154432000D02*
X118364000Y-152908000D01*
X118364000Y-152908000D02*
X118364000Y-148844000D01*
X106680000Y-137160000D02*
X106172000Y-137160000D01*
X118364000Y-148844000D02*
X106680000Y-137160000D01*
D23*
X106172000Y-137160000D02*
X103632000Y-139700000D01*
D20*
X112776000Y-131064000D02*
X112268000Y-131064000D01*
X137668000Y-145288000D02*
X127000000Y-145288000D01*
X127000000Y-145288000D02*
X112776000Y-131064000D01*
D23*
X116332000Y-127000000D02*
X112268000Y-131064000D01*
X112268000Y-131064000D02*
X106172000Y-137160000D01*
D20*
X116840000Y-124968000D02*
X116332000Y-125476000D01*
X127508000Y-124968000D02*
X116840000Y-124968000D01*
X64008000Y-142748000D02*
X70612000Y-142748000D01*
X70612000Y-142748000D02*
X71628000Y-141732000D01*
X71628000Y-141732000D02*
X77216000Y-141732000D01*
X77216000Y-141732000D02*
X84836000Y-134112000D01*
X74168000Y-122428000D02*
X85344000Y-122428000D01*
X85344000Y-122428000D02*
X85852000Y-121920000D01*
D23*
X85852000Y-121920000D02*
X85852000Y-115824000D01*
D20*
X64008000Y-102108000D02*
X72136000Y-102108000D01*
D23*
X72136000Y-93980000D02*
X72136000Y-96012000D01*
X72136000Y-96012000D02*
X72136000Y-102108000D01*
D20*
X99060000Y-144018000D02*
X99060000Y-139700000D01*
X99568000Y-150368000D02*
X99568000Y-144526000D01*
D23*
X103632000Y-139700000D02*
X99060000Y-139700000D01*
D20*
X99568000Y-144526000D02*
X99060000Y-144018000D01*
D23*
X116332000Y-125476000D02*
X116332000Y-119888000D01*
X116332000Y-119888000D02*
X131572000Y-104648000D01*
D20*
X136465919Y-104648000D02*
X131572000Y-104648000D01*
D23*
X98044000Y-139700000D02*
X99060000Y-139700000D01*
X93472000Y-139700000D02*
X98044000Y-139700000D01*
X85852000Y-121920000D02*
X85852000Y-132080000D01*
D20*
X84836000Y-134112000D02*
X86360000Y-132588000D01*
D23*
X85852000Y-132080000D02*
X86360000Y-132588000D01*
D20*
X90932000Y-137668000D02*
X90932000Y-137160000D01*
X78232000Y-150368000D02*
X90932000Y-137668000D01*
X79248000Y-160528000D02*
X79248000Y-154432000D01*
D23*
X86360000Y-132588000D02*
X90932000Y-137160000D01*
X90932000Y-137160000D02*
X93472000Y-139700000D01*
D20*
X79248000Y-154432000D02*
X78232000Y-153416000D01*
X78232000Y-153416000D02*
X78232000Y-150368000D01*
D23*
X85852000Y-115824000D02*
X77724000Y-107696000D01*
X77724000Y-107696000D02*
X72136000Y-102108000D01*
D20*
X77724000Y-107409214D02*
X77724000Y-107696000D01*
X83592346Y-101540868D02*
X77724000Y-107409214D01*
X83592346Y-100338787D02*
X83592346Y-101540868D01*
D23*
X102799873Y-53542947D02*
X102799873Y-47974527D01*
D24*
X96309180Y-48293020D02*
X96309180Y-49329340D01*
D25*
G36*
X138513989Y-29110545D02*
G01*
X138516431Y-45435640D01*
X138181012Y-45435640D01*
X138183500Y-29771392D01*
X138177265Y-29707986D01*
X138158781Y-29647016D01*
X138128756Y-29590823D01*
X138088346Y-29541567D01*
X138039103Y-29501141D01*
X137982920Y-29471099D01*
X137921955Y-29452595D01*
X137858910Y-29446340D01*
X133830470Y-29441260D01*
X133767058Y-29447425D01*
X133706067Y-29465843D01*
X133649841Y-29495805D01*
X133600540Y-29536161D01*
X133560060Y-29585359D01*
X133529956Y-29641509D01*
X133511385Y-29702454D01*
X133505060Y-29766335D01*
X133507525Y-40452160D01*
X128165740Y-40452160D01*
X128165740Y-29768800D01*
X128159495Y-29705396D01*
X128141001Y-29644428D01*
X128110968Y-29588240D01*
X128070550Y-29538990D01*
X128021300Y-29498572D01*
X127965112Y-29468539D01*
X127904144Y-29450045D01*
X127840740Y-29443800D01*
X123814840Y-29443800D01*
X123751436Y-29450045D01*
X123690468Y-29468539D01*
X123634280Y-29498572D01*
X123585030Y-29538990D01*
X123544612Y-29588240D01*
X123514579Y-29644428D01*
X123496085Y-29705396D01*
X123489840Y-29768800D01*
X123489840Y-40452160D01*
X118173530Y-40452160D01*
X118178460Y-29768950D01*
X118172244Y-29705543D01*
X118153778Y-29644566D01*
X118123771Y-29588364D01*
X118083376Y-29539096D01*
X118034145Y-29498656D01*
X117977971Y-29468597D01*
X117917011Y-29450074D01*
X117853460Y-29443800D01*
X113822480Y-29443800D01*
X113759076Y-29450045D01*
X113698108Y-29468539D01*
X113641920Y-29498572D01*
X113592670Y-29538990D01*
X113552252Y-29588240D01*
X113522219Y-29644428D01*
X113503725Y-29705396D01*
X113497480Y-29768800D01*
X113497480Y-40452160D01*
X108155620Y-40452160D01*
X108155620Y-29768800D01*
X108149375Y-29705396D01*
X108130881Y-29644428D01*
X108100848Y-29588240D01*
X108060430Y-29538990D01*
X108011180Y-29498572D01*
X107954992Y-29468539D01*
X107894024Y-29450045D01*
X107830620Y-29443800D01*
X103804720Y-29443800D01*
X103741316Y-29450045D01*
X103680348Y-29468539D01*
X103624160Y-29498572D01*
X103574910Y-29538990D01*
X103534492Y-29588240D01*
X103504459Y-29644428D01*
X103485965Y-29705396D01*
X103479720Y-29768800D01*
X103479720Y-48460780D01*
X102153600Y-48460780D01*
X102153600Y-29768800D01*
X102147355Y-29705396D01*
X102128861Y-29644428D01*
X102098828Y-29588240D01*
X102058410Y-29538990D01*
X102009160Y-29498572D01*
X101952972Y-29468539D01*
X101892004Y-29450045D01*
X101828600Y-29443800D01*
X96786700Y-29443800D01*
X96723296Y-29450045D01*
X96662328Y-29468539D01*
X96606140Y-29498572D01*
X96556890Y-29538990D01*
X96516472Y-29588240D01*
X96486439Y-29644428D01*
X96467945Y-29705396D01*
X96461700Y-29768800D01*
X96461700Y-48768000D01*
X96467945Y-48831404D01*
X96486439Y-48892372D01*
X96516472Y-48948560D01*
X96556890Y-48997810D01*
X96606140Y-49038228D01*
X96662328Y-49068261D01*
X96723296Y-49086755D01*
X96786700Y-49093000D01*
X100767000Y-49093000D01*
X100767000Y-51797654D01*
X100661562Y-51762702D01*
X100570031Y-51744496D01*
X100284873Y-51961895D01*
X100284873Y-53517947D01*
X100304873Y-53517947D01*
X100304873Y-53567947D01*
X100284873Y-53567947D01*
X100284873Y-55123999D01*
X100570031Y-55341398D01*
X100661562Y-55323192D01*
X100767000Y-55288240D01*
X100767000Y-55372000D01*
X100773245Y-55435404D01*
X100791739Y-55496372D01*
X100821772Y-55552560D01*
X100862190Y-55601810D01*
X100911440Y-55642228D01*
X100967628Y-55672261D01*
X101028596Y-55690755D01*
X101092000Y-55697000D01*
X104394000Y-55697000D01*
X104457404Y-55690755D01*
X104518372Y-55672261D01*
X104574560Y-55642228D01*
X104623810Y-55601810D01*
X104664228Y-55552560D01*
X104694261Y-55496372D01*
X104712755Y-55435404D01*
X104719000Y-55372000D01*
X104719000Y-49093000D01*
X141190000Y-49093000D01*
X141190001Y-108270483D01*
X139407547Y-106488029D01*
X139329603Y-106299855D01*
X139124407Y-105992757D01*
X139049650Y-105918000D01*
X139124407Y-105843243D01*
X139329603Y-105536145D01*
X139470944Y-105194917D01*
X139543000Y-104832671D01*
X139543000Y-104463329D01*
X139470944Y-104101083D01*
X139329603Y-103759855D01*
X139124407Y-103452757D01*
X139049650Y-103378000D01*
X139124407Y-103303243D01*
X139329603Y-102996145D01*
X139470944Y-102654917D01*
X139543000Y-102292671D01*
X139543000Y-101923329D01*
X139470944Y-101561083D01*
X139329603Y-101219855D01*
X139265120Y-101123349D01*
X139374380Y-100990215D01*
X139469558Y-100812148D01*
X139528169Y-100618935D01*
X139547959Y-100418000D01*
X139547959Y-98718000D01*
X139528169Y-98517065D01*
X139469558Y-98323852D01*
X139374380Y-98145785D01*
X139246291Y-97989709D01*
X139090215Y-97861620D01*
X138912148Y-97766442D01*
X138718935Y-97707831D01*
X138518000Y-97688041D01*
X136818000Y-97688041D01*
X136617065Y-97707831D01*
X136423852Y-97766442D01*
X136280621Y-97843000D01*
X133827436Y-97843000D01*
X133755333Y-97813134D01*
X133415863Y-97745609D01*
X126668915Y-90998662D01*
X126624289Y-90944285D01*
X126407305Y-90766211D01*
X126194471Y-90652448D01*
X126357640Y-90408248D01*
X126495212Y-90076120D01*
X126565346Y-89723534D01*
X126565346Y-89364040D01*
X126495212Y-89011454D01*
X126357640Y-88679326D01*
X126265346Y-88541198D01*
X126265346Y-84429245D01*
X126272723Y-84354345D01*
X126265346Y-84279445D01*
X126265346Y-84279435D01*
X126243280Y-84055394D01*
X126156079Y-83767930D01*
X126014472Y-83503002D01*
X125823901Y-83270791D01*
X125765715Y-83223040D01*
X108522264Y-65979590D01*
X108474502Y-65921392D01*
X108242291Y-65730821D01*
X107977363Y-65589214D01*
X107689899Y-65502013D01*
X107529533Y-65486218D01*
X107719168Y-65202410D01*
X107856740Y-64870282D01*
X107926874Y-64517696D01*
X107926874Y-64158202D01*
X107856740Y-63805616D01*
X107719168Y-63473488D01*
X107519444Y-63174580D01*
X107265243Y-62920379D01*
X106966335Y-62720655D01*
X106634207Y-62583083D01*
X106281621Y-62512949D01*
X105922127Y-62512949D01*
X105569541Y-62583083D01*
X105497436Y-62612950D01*
X90704308Y-62612947D01*
X90632207Y-62583082D01*
X90508805Y-62558536D01*
X93799722Y-59267619D01*
X93865536Y-59213607D01*
X93919548Y-59147793D01*
X93919553Y-59147788D01*
X94081099Y-58950943D01*
X94241278Y-58651270D01*
X94339915Y-58326107D01*
X94373221Y-57987947D01*
X94364875Y-57903209D01*
X94364874Y-55234848D01*
X94632956Y-55345891D01*
X94995202Y-55417947D01*
X95364544Y-55417947D01*
X95726790Y-55345891D01*
X96068018Y-55204550D01*
X96375116Y-54999354D01*
X96449873Y-54924597D01*
X96524630Y-54999354D01*
X96831728Y-55204550D01*
X97172956Y-55345891D01*
X97535202Y-55417947D01*
X97904544Y-55417947D01*
X98266790Y-55345891D01*
X98608018Y-55204550D01*
X98915116Y-54999354D01*
X99032110Y-54882360D01*
X99207491Y-55033960D01*
X99518594Y-55210620D01*
X99858184Y-55323192D01*
X99949715Y-55341398D01*
X100234873Y-55123999D01*
X100234873Y-53567947D01*
X100214873Y-53567947D01*
X100214873Y-53517947D01*
X100234873Y-53517947D01*
X100234873Y-51961895D01*
X99949715Y-51744496D01*
X99858184Y-51762702D01*
X99518594Y-51875274D01*
X99207491Y-52051934D01*
X99032110Y-52203534D01*
X98915116Y-52086540D01*
X98608018Y-51881344D01*
X98266790Y-51740003D01*
X97904544Y-51667947D01*
X97535202Y-51667947D01*
X97172956Y-51740003D01*
X96831728Y-51881344D01*
X96524630Y-52086540D01*
X96449873Y-52161297D01*
X96375116Y-52086540D01*
X96068018Y-51881344D01*
X95726790Y-51740003D01*
X95364544Y-51667947D01*
X94995202Y-51667947D01*
X94632956Y-51740003D01*
X94291728Y-51881344D01*
X93984630Y-52086540D01*
X93909873Y-52161297D01*
X93835116Y-52086540D01*
X93528018Y-51881344D01*
X93186790Y-51740003D01*
X92824544Y-51667947D01*
X92455202Y-51667947D01*
X92092956Y-51740003D01*
X91751728Y-51881344D01*
X91444630Y-52086540D01*
X91369873Y-52161297D01*
X91295116Y-52086540D01*
X90988018Y-51881344D01*
X90646790Y-51740003D01*
X90284544Y-51667947D01*
X89915202Y-51667947D01*
X89552956Y-51740003D01*
X89211728Y-51881344D01*
X88904630Y-52086540D01*
X88829873Y-52161297D01*
X88755116Y-52086540D01*
X88448018Y-51881344D01*
X88106790Y-51740003D01*
X87744544Y-51667947D01*
X87375202Y-51667947D01*
X87012956Y-51740003D01*
X86671728Y-51881344D01*
X86575222Y-51945827D01*
X86442088Y-51836567D01*
X86264021Y-51741389D01*
X86070808Y-51682778D01*
X85869873Y-51662988D01*
X84169873Y-51662988D01*
X83968938Y-51682778D01*
X83775725Y-51741389D01*
X83597658Y-51836567D01*
X83441582Y-51964656D01*
X83313493Y-52120732D01*
X83218315Y-52298799D01*
X83159704Y-52492012D01*
X83139914Y-52692947D01*
X83139914Y-54392947D01*
X83159704Y-54593882D01*
X83218315Y-54787095D01*
X83313493Y-54965162D01*
X83441582Y-55121238D01*
X83597658Y-55249327D01*
X83775725Y-55344505D01*
X83968938Y-55403116D01*
X84169873Y-55422906D01*
X85869873Y-55422906D01*
X86070808Y-55403116D01*
X86264021Y-55344505D01*
X86442088Y-55249327D01*
X86575222Y-55140067D01*
X86671728Y-55204550D01*
X87012956Y-55345891D01*
X87375202Y-55417947D01*
X87744544Y-55417947D01*
X88106790Y-55345891D01*
X88374875Y-55234847D01*
X88374875Y-56113510D01*
X88345008Y-56185615D01*
X88274874Y-56538201D01*
X88274874Y-56897695D01*
X88345008Y-57250281D01*
X88482580Y-57582409D01*
X88682304Y-57881317D01*
X88936505Y-58135518D01*
X89235413Y-58335242D01*
X89567541Y-58472814D01*
X89690943Y-58497360D01*
X81130356Y-67057948D01*
X80544311Y-67057948D01*
X80472208Y-67028082D01*
X80119622Y-66957948D01*
X79760128Y-66957948D01*
X79407542Y-67028082D01*
X79075414Y-67165654D01*
X78776506Y-67365378D01*
X78522305Y-67619579D01*
X78322581Y-67918487D01*
X78292715Y-67990590D01*
X76203357Y-70079947D01*
X76155248Y-70054233D01*
X75962035Y-69995622D01*
X75761100Y-69975832D01*
X75570660Y-69975832D01*
X75007417Y-69412590D01*
X74953396Y-69346765D01*
X74690730Y-69131201D01*
X74391058Y-68971023D01*
X74065894Y-68872386D01*
X73812473Y-68847426D01*
X73727735Y-68839080D01*
X73642997Y-68847426D01*
X68271560Y-68847426D01*
X68388645Y-68564759D01*
X68458779Y-68212173D01*
X68458779Y-67852679D01*
X68388645Y-67500093D01*
X68358779Y-67427989D01*
X68358778Y-67385366D01*
X68581910Y-67608498D01*
X68880818Y-67808222D01*
X69212946Y-67945794D01*
X69565532Y-68015928D01*
X69925026Y-68015928D01*
X70277612Y-67945794D01*
X70609740Y-67808222D01*
X70908648Y-67608498D01*
X71162849Y-67354297D01*
X71362573Y-67055389D01*
X71500145Y-66723261D01*
X71570279Y-66370675D01*
X71570279Y-66011181D01*
X71500145Y-65658595D01*
X71470279Y-65586493D01*
X71470277Y-63735672D01*
X71478624Y-63650928D01*
X71445318Y-63312769D01*
X71346681Y-62987606D01*
X71298104Y-62896725D01*
X71186502Y-62687932D01*
X70970938Y-62425267D01*
X70905115Y-62371248D01*
X70135958Y-61602089D01*
X70081940Y-61536268D01*
X69819274Y-61320704D01*
X69519602Y-61160526D01*
X69467210Y-61144633D01*
X69194439Y-61061888D01*
X68856279Y-61028582D01*
X68771533Y-61036929D01*
X67238215Y-61036928D01*
X67166111Y-61007061D01*
X66813525Y-60936927D01*
X66454031Y-60936927D01*
X66101445Y-61007061D01*
X66029342Y-61036927D01*
X63226017Y-61036927D01*
X63141279Y-61028581D01*
X63056541Y-61036927D01*
X62803120Y-61061887D01*
X62477956Y-61160524D01*
X62178284Y-61320702D01*
X61915618Y-61536266D01*
X61861597Y-61602091D01*
X61096720Y-62366968D01*
X60553778Y-62366968D01*
X60352843Y-62386758D01*
X60159630Y-62445369D01*
X59981563Y-62540547D01*
X59825487Y-62668636D01*
X59697398Y-62824712D01*
X59602220Y-63002779D01*
X59543609Y-63195992D01*
X59523819Y-63396927D01*
X59523819Y-65301927D01*
X59543609Y-65502862D01*
X59602220Y-65696075D01*
X59697398Y-65874142D01*
X59763587Y-65954793D01*
X59670467Y-66129009D01*
X59557391Y-66501769D01*
X59519210Y-66889427D01*
X59557391Y-67277085D01*
X59670467Y-67649845D01*
X59854091Y-67993383D01*
X59990360Y-68159427D01*
X59854091Y-68325471D01*
X59670467Y-68669009D01*
X59557391Y-69041769D01*
X59519210Y-69429427D01*
X59557391Y-69817085D01*
X59670467Y-70189845D01*
X59828780Y-70486029D01*
X59828779Y-73206491D01*
X59798913Y-73278594D01*
X59728779Y-73631180D01*
X59728779Y-73990674D01*
X59798913Y-74343260D01*
X59828779Y-74415363D01*
X59828780Y-77598032D01*
X59820433Y-77682779D01*
X59853739Y-78020938D01*
X59952376Y-78346101D01*
X60036940Y-78504308D01*
X60112555Y-78645774D01*
X60328119Y-78908440D01*
X60393939Y-78962457D01*
X61839857Y-80408376D01*
X61806000Y-80405041D01*
X60306000Y-80405041D01*
X59958747Y-80439242D01*
X59624839Y-80540532D01*
X59470000Y-80623295D01*
X59470000Y-49093000D01*
X95829120Y-49093000D01*
X95892524Y-49086755D01*
X95953492Y-49068261D01*
X96009680Y-49038228D01*
X96058930Y-48997810D01*
X96099348Y-48948560D01*
X96129381Y-48892372D01*
X96147875Y-48831404D01*
X96154120Y-48768000D01*
X96154120Y-29110820D01*
X108488600Y-29110820D01*
X108488600Y-39794180D01*
X108494845Y-39857584D01*
X108513339Y-39918552D01*
X108543372Y-39974740D01*
X108583790Y-40023990D01*
X108633040Y-40064408D01*
X108689228Y-40094441D01*
X108750196Y-40112935D01*
X108813600Y-40119180D01*
X112839500Y-40119180D01*
X112902904Y-40112935D01*
X112963872Y-40094441D01*
X113020060Y-40064408D01*
X113069310Y-40023990D01*
X113109728Y-39974740D01*
X113139761Y-39918552D01*
X113158255Y-39857584D01*
X113164500Y-39794180D01*
X113164500Y-29110820D01*
X118493885Y-29110820D01*
X118501280Y-39796945D01*
X118507569Y-39860345D01*
X118526105Y-39921300D01*
X118556177Y-39977467D01*
X118596629Y-40026689D01*
X118645907Y-40067073D01*
X118702116Y-40097067D01*
X118763096Y-40115519D01*
X118826486Y-40121720D01*
X122832066Y-40119180D01*
X122895466Y-40112895D01*
X122956422Y-40094362D01*
X123012592Y-40064293D01*
X123061815Y-40023844D01*
X123102202Y-39974569D01*
X123132200Y-39918362D01*
X123150655Y-39857382D01*
X123156860Y-39794180D01*
X123156860Y-29110820D01*
X128498720Y-29110820D01*
X128498720Y-39794180D01*
X128504965Y-39857584D01*
X128523459Y-39918552D01*
X128553492Y-39974740D01*
X128593910Y-40023990D01*
X128643160Y-40064408D01*
X128699348Y-40094441D01*
X128760316Y-40112935D01*
X128823925Y-40119180D01*
X132849825Y-40116640D01*
X132913225Y-40110355D01*
X132974182Y-40091822D01*
X133030351Y-40061754D01*
X133079575Y-40021305D01*
X133119961Y-39972030D01*
X133149959Y-39915823D01*
X133168415Y-39854843D01*
X133174620Y-39791415D01*
X133167225Y-29106016D01*
X138513989Y-29110545D01*
G37*
X138513989Y-29110545D02*
X138516431Y-45435640D01*
X138181012Y-45435640D01*
X138183500Y-29771392D01*
X138177265Y-29707986D01*
X138158781Y-29647016D01*
X138128756Y-29590823D01*
X138088346Y-29541567D01*
X138039103Y-29501141D01*
X137982920Y-29471099D01*
X137921955Y-29452595D01*
X137858910Y-29446340D01*
X133830470Y-29441260D01*
X133767058Y-29447425D01*
X133706067Y-29465843D01*
X133649841Y-29495805D01*
X133600540Y-29536161D01*
X133560060Y-29585359D01*
X133529956Y-29641509D01*
X133511385Y-29702454D01*
X133505060Y-29766335D01*
X133507525Y-40452160D01*
X128165740Y-40452160D01*
X128165740Y-29768800D01*
X128159495Y-29705396D01*
X128141001Y-29644428D01*
X128110968Y-29588240D01*
X128070550Y-29538990D01*
X128021300Y-29498572D01*
X127965112Y-29468539D01*
X127904144Y-29450045D01*
X127840740Y-29443800D01*
X123814840Y-29443800D01*
X123751436Y-29450045D01*
X123690468Y-29468539D01*
X123634280Y-29498572D01*
X123585030Y-29538990D01*
X123544612Y-29588240D01*
X123514579Y-29644428D01*
X123496085Y-29705396D01*
X123489840Y-29768800D01*
X123489840Y-40452160D01*
X118173530Y-40452160D01*
X118178460Y-29768950D01*
X118172244Y-29705543D01*
X118153778Y-29644566D01*
X118123771Y-29588364D01*
X118083376Y-29539096D01*
X118034145Y-29498656D01*
X117977971Y-29468597D01*
X117917011Y-29450074D01*
X117853460Y-29443800D01*
X113822480Y-29443800D01*
X113759076Y-29450045D01*
X113698108Y-29468539D01*
X113641920Y-29498572D01*
X113592670Y-29538990D01*
X113552252Y-29588240D01*
X113522219Y-29644428D01*
X113503725Y-29705396D01*
X113497480Y-29768800D01*
X113497480Y-40452160D01*
X108155620Y-40452160D01*
X108155620Y-29768800D01*
X108149375Y-29705396D01*
X108130881Y-29644428D01*
X108100848Y-29588240D01*
X108060430Y-29538990D01*
X108011180Y-29498572D01*
X107954992Y-29468539D01*
X107894024Y-29450045D01*
X107830620Y-29443800D01*
X103804720Y-29443800D01*
X103741316Y-29450045D01*
X103680348Y-29468539D01*
X103624160Y-29498572D01*
X103574910Y-29538990D01*
X103534492Y-29588240D01*
X103504459Y-29644428D01*
X103485965Y-29705396D01*
X103479720Y-29768800D01*
X103479720Y-48460780D01*
X102153600Y-48460780D01*
X102153600Y-29768800D01*
X102147355Y-29705396D01*
X102128861Y-29644428D01*
X102098828Y-29588240D01*
X102058410Y-29538990D01*
X102009160Y-29498572D01*
X101952972Y-29468539D01*
X101892004Y-29450045D01*
X101828600Y-29443800D01*
X96786700Y-29443800D01*
X96723296Y-29450045D01*
X96662328Y-29468539D01*
X96606140Y-29498572D01*
X96556890Y-29538990D01*
X96516472Y-29588240D01*
X96486439Y-29644428D01*
X96467945Y-29705396D01*
X96461700Y-29768800D01*
X96461700Y-48768000D01*
X96467945Y-48831404D01*
X96486439Y-48892372D01*
X96516472Y-48948560D01*
X96556890Y-48997810D01*
X96606140Y-49038228D01*
X96662328Y-49068261D01*
X96723296Y-49086755D01*
X96786700Y-49093000D01*
X100767000Y-49093000D01*
X100767000Y-51797654D01*
X100661562Y-51762702D01*
X100570031Y-51744496D01*
X100284873Y-51961895D01*
X100284873Y-53517947D01*
X100304873Y-53517947D01*
X100304873Y-53567947D01*
X100284873Y-53567947D01*
X100284873Y-55123999D01*
X100570031Y-55341398D01*
X100661562Y-55323192D01*
X100767000Y-55288240D01*
X100767000Y-55372000D01*
X100773245Y-55435404D01*
X100791739Y-55496372D01*
X100821772Y-55552560D01*
X100862190Y-55601810D01*
X100911440Y-55642228D01*
X100967628Y-55672261D01*
X101028596Y-55690755D01*
X101092000Y-55697000D01*
X104394000Y-55697000D01*
X104457404Y-55690755D01*
X104518372Y-55672261D01*
X104574560Y-55642228D01*
X104623810Y-55601810D01*
X104664228Y-55552560D01*
X104694261Y-55496372D01*
X104712755Y-55435404D01*
X104719000Y-55372000D01*
X104719000Y-49093000D01*
X141190000Y-49093000D01*
X141190001Y-108270483D01*
X139407547Y-106488029D01*
X139329603Y-106299855D01*
X139124407Y-105992757D01*
X139049650Y-105918000D01*
X139124407Y-105843243D01*
X139329603Y-105536145D01*
X139470944Y-105194917D01*
X139543000Y-104832671D01*
X139543000Y-104463329D01*
X139470944Y-104101083D01*
X139329603Y-103759855D01*
X139124407Y-103452757D01*
X139049650Y-103378000D01*
X139124407Y-103303243D01*
X139329603Y-102996145D01*
X139470944Y-102654917D01*
X139543000Y-102292671D01*
X139543000Y-101923329D01*
X139470944Y-101561083D01*
X139329603Y-101219855D01*
X139265120Y-101123349D01*
X139374380Y-100990215D01*
X139469558Y-100812148D01*
X139528169Y-100618935D01*
X139547959Y-100418000D01*
X139547959Y-98718000D01*
X139528169Y-98517065D01*
X139469558Y-98323852D01*
X139374380Y-98145785D01*
X139246291Y-97989709D01*
X139090215Y-97861620D01*
X138912148Y-97766442D01*
X138718935Y-97707831D01*
X138518000Y-97688041D01*
X136818000Y-97688041D01*
X136617065Y-97707831D01*
X136423852Y-97766442D01*
X136280621Y-97843000D01*
X133827436Y-97843000D01*
X133755333Y-97813134D01*
X133415863Y-97745609D01*
X126668915Y-90998662D01*
X126624289Y-90944285D01*
X126407305Y-90766211D01*
X126194471Y-90652448D01*
X126357640Y-90408248D01*
X126495212Y-90076120D01*
X126565346Y-89723534D01*
X126565346Y-89364040D01*
X126495212Y-89011454D01*
X126357640Y-88679326D01*
X126265346Y-88541198D01*
X126265346Y-84429245D01*
X126272723Y-84354345D01*
X126265346Y-84279445D01*
X126265346Y-84279435D01*
X126243280Y-84055394D01*
X126156079Y-83767930D01*
X126014472Y-83503002D01*
X125823901Y-83270791D01*
X125765715Y-83223040D01*
X108522264Y-65979590D01*
X108474502Y-65921392D01*
X108242291Y-65730821D01*
X107977363Y-65589214D01*
X107689899Y-65502013D01*
X107529533Y-65486218D01*
X107719168Y-65202410D01*
X107856740Y-64870282D01*
X107926874Y-64517696D01*
X107926874Y-64158202D01*
X107856740Y-63805616D01*
X107719168Y-63473488D01*
X107519444Y-63174580D01*
X107265243Y-62920379D01*
X106966335Y-62720655D01*
X106634207Y-62583083D01*
X106281621Y-62512949D01*
X105922127Y-62512949D01*
X105569541Y-62583083D01*
X105497436Y-62612950D01*
X90704308Y-62612947D01*
X90632207Y-62583082D01*
X90508805Y-62558536D01*
X93799722Y-59267619D01*
X93865536Y-59213607D01*
X93919548Y-59147793D01*
X93919553Y-59147788D01*
X94081099Y-58950943D01*
X94241278Y-58651270D01*
X94339915Y-58326107D01*
X94373221Y-57987947D01*
X94364875Y-57903209D01*
X94364874Y-55234848D01*
X94632956Y-55345891D01*
X94995202Y-55417947D01*
X95364544Y-55417947D01*
X95726790Y-55345891D01*
X96068018Y-55204550D01*
X96375116Y-54999354D01*
X96449873Y-54924597D01*
X96524630Y-54999354D01*
X96831728Y-55204550D01*
X97172956Y-55345891D01*
X97535202Y-55417947D01*
X97904544Y-55417947D01*
X98266790Y-55345891D01*
X98608018Y-55204550D01*
X98915116Y-54999354D01*
X99032110Y-54882360D01*
X99207491Y-55033960D01*
X99518594Y-55210620D01*
X99858184Y-55323192D01*
X99949715Y-55341398D01*
X100234873Y-55123999D01*
X100234873Y-53567947D01*
X100214873Y-53567947D01*
X100214873Y-53517947D01*
X100234873Y-53517947D01*
X100234873Y-51961895D01*
X99949715Y-51744496D01*
X99858184Y-51762702D01*
X99518594Y-51875274D01*
X99207491Y-52051934D01*
X99032110Y-52203534D01*
X98915116Y-52086540D01*
X98608018Y-51881344D01*
X98266790Y-51740003D01*
X97904544Y-51667947D01*
X97535202Y-51667947D01*
X97172956Y-51740003D01*
X96831728Y-51881344D01*
X96524630Y-52086540D01*
X96449873Y-52161297D01*
X96375116Y-52086540D01*
X96068018Y-51881344D01*
X95726790Y-51740003D01*
X95364544Y-51667947D01*
X94995202Y-51667947D01*
X94632956Y-51740003D01*
X94291728Y-51881344D01*
X93984630Y-52086540D01*
X93909873Y-52161297D01*
X93835116Y-52086540D01*
X93528018Y-51881344D01*
X93186790Y-51740003D01*
X92824544Y-51667947D01*
X92455202Y-51667947D01*
X92092956Y-51740003D01*
X91751728Y-51881344D01*
X91444630Y-52086540D01*
X91369873Y-52161297D01*
X91295116Y-52086540D01*
X90988018Y-51881344D01*
X90646790Y-51740003D01*
X90284544Y-51667947D01*
X89915202Y-51667947D01*
X89552956Y-51740003D01*
X89211728Y-51881344D01*
X88904630Y-52086540D01*
X88829873Y-52161297D01*
X88755116Y-52086540D01*
X88448018Y-51881344D01*
X88106790Y-51740003D01*
X87744544Y-51667947D01*
X87375202Y-51667947D01*
X87012956Y-51740003D01*
X86671728Y-51881344D01*
X86575222Y-51945827D01*
X86442088Y-51836567D01*
X86264021Y-51741389D01*
X86070808Y-51682778D01*
X85869873Y-51662988D01*
X84169873Y-51662988D01*
X83968938Y-51682778D01*
X83775725Y-51741389D01*
X83597658Y-51836567D01*
X83441582Y-51964656D01*
X83313493Y-52120732D01*
X83218315Y-52298799D01*
X83159704Y-52492012D01*
X83139914Y-52692947D01*
X83139914Y-54392947D01*
X83159704Y-54593882D01*
X83218315Y-54787095D01*
X83313493Y-54965162D01*
X83441582Y-55121238D01*
X83597658Y-55249327D01*
X83775725Y-55344505D01*
X83968938Y-55403116D01*
X84169873Y-55422906D01*
X85869873Y-55422906D01*
X86070808Y-55403116D01*
X86264021Y-55344505D01*
X86442088Y-55249327D01*
X86575222Y-55140067D01*
X86671728Y-55204550D01*
X87012956Y-55345891D01*
X87375202Y-55417947D01*
X87744544Y-55417947D01*
X88106790Y-55345891D01*
X88374875Y-55234847D01*
X88374875Y-56113510D01*
X88345008Y-56185615D01*
X88274874Y-56538201D01*
X88274874Y-56897695D01*
X88345008Y-57250281D01*
X88482580Y-57582409D01*
X88682304Y-57881317D01*
X88936505Y-58135518D01*
X89235413Y-58335242D01*
X89567541Y-58472814D01*
X89690943Y-58497360D01*
X81130356Y-67057948D01*
X80544311Y-67057948D01*
X80472208Y-67028082D01*
X80119622Y-66957948D01*
X79760128Y-66957948D01*
X79407542Y-67028082D01*
X79075414Y-67165654D01*
X78776506Y-67365378D01*
X78522305Y-67619579D01*
X78322581Y-67918487D01*
X78292715Y-67990590D01*
X76203357Y-70079947D01*
X76155248Y-70054233D01*
X75962035Y-69995622D01*
X75761100Y-69975832D01*
X75570660Y-69975832D01*
X75007417Y-69412590D01*
X74953396Y-69346765D01*
X74690730Y-69131201D01*
X74391058Y-68971023D01*
X74065894Y-68872386D01*
X73812473Y-68847426D01*
X73727735Y-68839080D01*
X73642997Y-68847426D01*
X68271560Y-68847426D01*
X68388645Y-68564759D01*
X68458779Y-68212173D01*
X68458779Y-67852679D01*
X68388645Y-67500093D01*
X68358779Y-67427989D01*
X68358778Y-67385366D01*
X68581910Y-67608498D01*
X68880818Y-67808222D01*
X69212946Y-67945794D01*
X69565532Y-68015928D01*
X69925026Y-68015928D01*
X70277612Y-67945794D01*
X70609740Y-67808222D01*
X70908648Y-67608498D01*
X71162849Y-67354297D01*
X71362573Y-67055389D01*
X71500145Y-66723261D01*
X71570279Y-66370675D01*
X71570279Y-66011181D01*
X71500145Y-65658595D01*
X71470279Y-65586493D01*
X71470277Y-63735672D01*
X71478624Y-63650928D01*
X71445318Y-63312769D01*
X71346681Y-62987606D01*
X71298104Y-62896725D01*
X71186502Y-62687932D01*
X70970938Y-62425267D01*
X70905115Y-62371248D01*
X70135958Y-61602089D01*
X70081940Y-61536268D01*
X69819274Y-61320704D01*
X69519602Y-61160526D01*
X69467210Y-61144633D01*
X69194439Y-61061888D01*
X68856279Y-61028582D01*
X68771533Y-61036929D01*
X67238215Y-61036928D01*
X67166111Y-61007061D01*
X66813525Y-60936927D01*
X66454031Y-60936927D01*
X66101445Y-61007061D01*
X66029342Y-61036927D01*
X63226017Y-61036927D01*
X63141279Y-61028581D01*
X63056541Y-61036927D01*
X62803120Y-61061887D01*
X62477956Y-61160524D01*
X62178284Y-61320702D01*
X61915618Y-61536266D01*
X61861597Y-61602091D01*
X61096720Y-62366968D01*
X60553778Y-62366968D01*
X60352843Y-62386758D01*
X60159630Y-62445369D01*
X59981563Y-62540547D01*
X59825487Y-62668636D01*
X59697398Y-62824712D01*
X59602220Y-63002779D01*
X59543609Y-63195992D01*
X59523819Y-63396927D01*
X59523819Y-65301927D01*
X59543609Y-65502862D01*
X59602220Y-65696075D01*
X59697398Y-65874142D01*
X59763587Y-65954793D01*
X59670467Y-66129009D01*
X59557391Y-66501769D01*
X59519210Y-66889427D01*
X59557391Y-67277085D01*
X59670467Y-67649845D01*
X59854091Y-67993383D01*
X59990360Y-68159427D01*
X59854091Y-68325471D01*
X59670467Y-68669009D01*
X59557391Y-69041769D01*
X59519210Y-69429427D01*
X59557391Y-69817085D01*
X59670467Y-70189845D01*
X59828780Y-70486029D01*
X59828779Y-73206491D01*
X59798913Y-73278594D01*
X59728779Y-73631180D01*
X59728779Y-73990674D01*
X59798913Y-74343260D01*
X59828779Y-74415363D01*
X59828780Y-77598032D01*
X59820433Y-77682779D01*
X59853739Y-78020938D01*
X59952376Y-78346101D01*
X60036940Y-78504308D01*
X60112555Y-78645774D01*
X60328119Y-78908440D01*
X60393939Y-78962457D01*
X61839857Y-80408376D01*
X61806000Y-80405041D01*
X60306000Y-80405041D01*
X59958747Y-80439242D01*
X59624839Y-80540532D01*
X59470000Y-80623295D01*
X59470000Y-49093000D01*
X95829120Y-49093000D01*
X95892524Y-49086755D01*
X95953492Y-49068261D01*
X96009680Y-49038228D01*
X96058930Y-48997810D01*
X96099348Y-48948560D01*
X96129381Y-48892372D01*
X96147875Y-48831404D01*
X96154120Y-48768000D01*
X96154120Y-29110820D01*
X108488600Y-29110820D01*
X108488600Y-39794180D01*
X108494845Y-39857584D01*
X108513339Y-39918552D01*
X108543372Y-39974740D01*
X108583790Y-40023990D01*
X108633040Y-40064408D01*
X108689228Y-40094441D01*
X108750196Y-40112935D01*
X108813600Y-40119180D01*
X112839500Y-40119180D01*
X112902904Y-40112935D01*
X112963872Y-40094441D01*
X113020060Y-40064408D01*
X113069310Y-40023990D01*
X113109728Y-39974740D01*
X113139761Y-39918552D01*
X113158255Y-39857584D01*
X113164500Y-39794180D01*
X113164500Y-29110820D01*
X118493885Y-29110820D01*
X118501280Y-39796945D01*
X118507569Y-39860345D01*
X118526105Y-39921300D01*
X118556177Y-39977467D01*
X118596629Y-40026689D01*
X118645907Y-40067073D01*
X118702116Y-40097067D01*
X118763096Y-40115519D01*
X118826486Y-40121720D01*
X122832066Y-40119180D01*
X122895466Y-40112895D01*
X122956422Y-40094362D01*
X123012592Y-40064293D01*
X123061815Y-40023844D01*
X123102202Y-39974569D01*
X123132200Y-39918362D01*
X123150655Y-39857382D01*
X123156860Y-39794180D01*
X123156860Y-29110820D01*
X128498720Y-29110820D01*
X128498720Y-39794180D01*
X128504965Y-39857584D01*
X128523459Y-39918552D01*
X128553492Y-39974740D01*
X128593910Y-40023990D01*
X128643160Y-40064408D01*
X128699348Y-40094441D01*
X128760316Y-40112935D01*
X128823925Y-40119180D01*
X132849825Y-40116640D01*
X132913225Y-40110355D01*
X132974182Y-40091822D01*
X133030351Y-40061754D01*
X133079575Y-40021305D01*
X133119961Y-39972030D01*
X133149959Y-39915823D01*
X133168415Y-39854843D01*
X133174620Y-39791415D01*
X133167225Y-29106016D01*
X138513989Y-29110545D01*
G36*
X61889318Y-80457837D02*
G01*
X61324750Y-80460000D01*
X61081000Y-80703750D01*
X61081000Y-83160000D01*
X63287250Y-83160000D01*
X63531000Y-82916250D01*
X63533593Y-82102112D01*
X64276041Y-82844560D01*
X64276041Y-84935000D01*
X64292788Y-85105041D01*
X63518970Y-85105041D01*
X63535718Y-84935000D01*
X63531000Y-83453750D01*
X63287250Y-83210000D01*
X61081000Y-83210000D01*
X61081000Y-85666250D01*
X61324750Y-85910000D01*
X61630314Y-85911171D01*
X61597084Y-85951661D01*
X61421047Y-86281004D01*
X61312644Y-86638361D01*
X61276041Y-87010000D01*
X61276041Y-88760000D01*
X61312644Y-89131639D01*
X61421047Y-89488996D01*
X61597084Y-89818339D01*
X61833991Y-90107009D01*
X62122661Y-90343916D01*
X62452004Y-90519953D01*
X62809361Y-90628356D01*
X63181000Y-90664959D01*
X64931000Y-90664959D01*
X65302639Y-90628356D01*
X65659996Y-90519953D01*
X65989339Y-90343916D01*
X66278009Y-90107009D01*
X66347000Y-90022943D01*
X66347000Y-94789481D01*
X63308029Y-97828453D01*
X63272909Y-97843000D01*
X59520737Y-97843000D01*
X59470000Y-97838003D01*
X59470000Y-95086364D01*
X63444991Y-95086364D01*
X63487961Y-95437505D01*
X63792061Y-95610060D01*
X64123980Y-95719972D01*
X64470964Y-95763018D01*
X64819680Y-95737544D01*
X65156725Y-95644528D01*
X65469147Y-95487545D01*
X65544039Y-95437505D01*
X65587009Y-95086364D01*
X64516000Y-94015355D01*
X63444991Y-95086364D01*
X59470000Y-95086364D01*
X59470000Y-93934964D01*
X62732982Y-93934964D01*
X62758456Y-94283680D01*
X62851472Y-94620725D01*
X63008455Y-94933147D01*
X63058495Y-95008039D01*
X63409636Y-95051009D01*
X64480645Y-93980000D01*
X64551355Y-93980000D01*
X65622364Y-95051009D01*
X65973505Y-95008039D01*
X66146060Y-94703939D01*
X66255972Y-94372020D01*
X66299018Y-94025036D01*
X66273544Y-93676320D01*
X66180528Y-93339275D01*
X66023545Y-93026853D01*
X65973505Y-92951961D01*
X65622364Y-92908991D01*
X64551355Y-93980000D01*
X64480645Y-93980000D01*
X63409636Y-92908991D01*
X63058495Y-92951961D01*
X62885940Y-93256061D01*
X62776028Y-93587980D01*
X62732982Y-93934964D01*
X59470000Y-93934964D01*
X59470000Y-92873636D01*
X63444991Y-92873636D01*
X64516000Y-93944645D01*
X65587009Y-92873636D01*
X65544039Y-92522495D01*
X65239939Y-92349940D01*
X64908020Y-92240028D01*
X64561036Y-92196982D01*
X64212320Y-92222456D01*
X63875275Y-92315472D01*
X63562853Y-92472455D01*
X63487961Y-92522495D01*
X63444991Y-92873636D01*
X59470000Y-92873636D01*
X59470000Y-85906248D01*
X59556000Y-85914718D01*
X60787250Y-85910000D01*
X61031000Y-85666250D01*
X61031000Y-83210000D01*
X61011000Y-83210000D01*
X61011000Y-83160000D01*
X61031000Y-83160000D01*
X61031000Y-80703750D01*
X60787250Y-80460000D01*
X59556000Y-80455282D01*
X59470000Y-80463752D01*
X59470000Y-79700000D01*
X61131482Y-79700000D01*
X61889318Y-80457837D01*
G37*
X61889318Y-80457837D02*
X61324750Y-80460000D01*
X61081000Y-80703750D01*
X61081000Y-83160000D01*
X63287250Y-83160000D01*
X63531000Y-82916250D01*
X63533593Y-82102112D01*
X64276041Y-82844560D01*
X64276041Y-84935000D01*
X64292788Y-85105041D01*
X63518970Y-85105041D01*
X63535718Y-84935000D01*
X63531000Y-83453750D01*
X63287250Y-83210000D01*
X61081000Y-83210000D01*
X61081000Y-85666250D01*
X61324750Y-85910000D01*
X61630314Y-85911171D01*
X61597084Y-85951661D01*
X61421047Y-86281004D01*
X61312644Y-86638361D01*
X61276041Y-87010000D01*
X61276041Y-88760000D01*
X61312644Y-89131639D01*
X61421047Y-89488996D01*
X61597084Y-89818339D01*
X61833991Y-90107009D01*
X62122661Y-90343916D01*
X62452004Y-90519953D01*
X62809361Y-90628356D01*
X63181000Y-90664959D01*
X64931000Y-90664959D01*
X65302639Y-90628356D01*
X65659996Y-90519953D01*
X65989339Y-90343916D01*
X66278009Y-90107009D01*
X66347000Y-90022943D01*
X66347000Y-94789481D01*
X63308029Y-97828453D01*
X63272909Y-97843000D01*
X59520737Y-97843000D01*
X59470000Y-97838003D01*
X59470000Y-95086364D01*
X63444991Y-95086364D01*
X63487961Y-95437505D01*
X63792061Y-95610060D01*
X64123980Y-95719972D01*
X64470964Y-95763018D01*
X64819680Y-95737544D01*
X65156725Y-95644528D01*
X65469147Y-95487545D01*
X65544039Y-95437505D01*
X65587009Y-95086364D01*
X64516000Y-94015355D01*
X63444991Y-95086364D01*
X59470000Y-95086364D01*
X59470000Y-93934964D01*
X62732982Y-93934964D01*
X62758456Y-94283680D01*
X62851472Y-94620725D01*
X63008455Y-94933147D01*
X63058495Y-95008039D01*
X63409636Y-95051009D01*
X64480645Y-93980000D01*
X64551355Y-93980000D01*
X65622364Y-95051009D01*
X65973505Y-95008039D01*
X66146060Y-94703939D01*
X66255972Y-94372020D01*
X66299018Y-94025036D01*
X66273544Y-93676320D01*
X66180528Y-93339275D01*
X66023545Y-93026853D01*
X65973505Y-92951961D01*
X65622364Y-92908991D01*
X64551355Y-93980000D01*
X64480645Y-93980000D01*
X63409636Y-92908991D01*
X63058495Y-92951961D01*
X62885940Y-93256061D01*
X62776028Y-93587980D01*
X62732982Y-93934964D01*
X59470000Y-93934964D01*
X59470000Y-92873636D01*
X63444991Y-92873636D01*
X64516000Y-93944645D01*
X65587009Y-92873636D01*
X65544039Y-92522495D01*
X65239939Y-92349940D01*
X64908020Y-92240028D01*
X64561036Y-92196982D01*
X64212320Y-92222456D01*
X63875275Y-92315472D01*
X63562853Y-92472455D01*
X63487961Y-92522495D01*
X63444991Y-92873636D01*
X59470000Y-92873636D01*
X59470000Y-85906248D01*
X59556000Y-85914718D01*
X60787250Y-85910000D01*
X61031000Y-85666250D01*
X61031000Y-83210000D01*
X61011000Y-83210000D01*
X61011000Y-83160000D01*
X61031000Y-83160000D01*
X61031000Y-80703750D01*
X60787250Y-80460000D01*
X59556000Y-80455282D01*
X59470000Y-80463752D01*
X59470000Y-79700000D01*
X61131482Y-79700000D01*
X61889318Y-80457837D01*
G36*
X141190001Y-108270483D02*
G01*
X139407547Y-106488029D01*
X139329603Y-106299855D01*
X139124407Y-105992757D01*
X139007413Y-105875763D01*
X139159013Y-105700382D01*
X139335673Y-105389279D01*
X139448245Y-105049689D01*
X139466451Y-104958158D01*
X139249052Y-104673000D01*
X137693000Y-104673000D01*
X137693000Y-104693000D01*
X137643000Y-104693000D01*
X137643000Y-104673000D01*
X136086948Y-104673000D01*
X135869549Y-104958158D01*
X135887755Y-105049689D01*
X136000327Y-105389279D01*
X136176987Y-105700382D01*
X136328587Y-105875763D01*
X136211593Y-105992757D01*
X136006397Y-106299855D01*
X135865056Y-106641083D01*
X135793000Y-107003329D01*
X135793000Y-107372671D01*
X135865056Y-107734917D01*
X136006397Y-108076145D01*
X136211593Y-108383243D01*
X136472757Y-108644407D01*
X136779855Y-108849603D01*
X136968029Y-108927547D01*
X139245001Y-111204519D01*
X139245000Y-125783000D01*
X129133810Y-125783000D01*
X129175673Y-125709279D01*
X129288245Y-125369689D01*
X129306451Y-125278158D01*
X129089052Y-124993000D01*
X127533000Y-124993000D01*
X127533000Y-125013000D01*
X127483000Y-125013000D01*
X127483000Y-124993000D01*
X125926948Y-124993000D01*
X125709549Y-125278158D01*
X125727755Y-125369689D01*
X125840327Y-125709279D01*
X126016987Y-126020382D01*
X126168587Y-126195763D01*
X126051593Y-126312757D01*
X125846397Y-126619855D01*
X125705056Y-126961083D01*
X125633000Y-127323329D01*
X125633000Y-127692671D01*
X125705056Y-128054917D01*
X125846397Y-128396145D01*
X126051593Y-128703243D01*
X126312757Y-128964407D01*
X126619855Y-129169603D01*
X126961083Y-129310944D01*
X127323329Y-129383000D01*
X127692671Y-129383000D01*
X128054917Y-129310944D01*
X128243091Y-129233000D01*
X139245001Y-129233000D01*
X139245000Y-138628650D01*
X139090215Y-138501620D01*
X138912148Y-138406442D01*
X138718935Y-138347831D01*
X138518000Y-138328041D01*
X136818000Y-138328041D01*
X136617065Y-138347831D01*
X136423852Y-138406442D01*
X136280621Y-138483000D01*
X133937519Y-138483000D01*
X124788000Y-129333482D01*
X124788000Y-128112436D01*
X124817866Y-128040333D01*
X124888000Y-127687747D01*
X124888000Y-127328253D01*
X124817866Y-126975667D01*
X124680294Y-126643539D01*
X124480570Y-126344631D01*
X124226369Y-126090430D01*
X123927461Y-125890706D01*
X123595333Y-125753134D01*
X123242747Y-125683000D01*
X122883253Y-125683000D01*
X122530667Y-125753134D01*
X122198539Y-125890706D01*
X121899631Y-126090430D01*
X121645430Y-126344631D01*
X121445706Y-126643539D01*
X121308134Y-126975667D01*
X121238000Y-127328253D01*
X121238000Y-127687747D01*
X121308134Y-128040333D01*
X121338000Y-128112436D01*
X121338001Y-128933167D01*
X121305570Y-128884631D01*
X121051369Y-128630430D01*
X120752461Y-128430706D01*
X120420333Y-128293134D01*
X120067747Y-128223000D01*
X119708253Y-128223000D01*
X119355667Y-128293134D01*
X119023539Y-128430706D01*
X118724631Y-128630430D01*
X118470430Y-128884631D01*
X118270706Y-129183539D01*
X118133134Y-129515667D01*
X118063000Y-129868253D01*
X118063000Y-130227747D01*
X118133134Y-130580333D01*
X118270706Y-130912461D01*
X118470430Y-131211369D01*
X118724631Y-131465570D01*
X119023539Y-131665294D01*
X119095642Y-131695160D01*
X128243002Y-140842520D01*
X128243001Y-142143564D01*
X128213135Y-142215667D01*
X128143001Y-142568253D01*
X128143001Y-142927747D01*
X128213135Y-143280333D01*
X128350707Y-143612461D01*
X128550431Y-143911369D01*
X128804632Y-144165570D01*
X129103540Y-144365294D01*
X129435668Y-144502866D01*
X129788254Y-144573000D01*
X130147748Y-144573000D01*
X130500334Y-144502866D01*
X130572437Y-144473000D01*
X136042190Y-144473000D01*
X136000327Y-144546721D01*
X135887755Y-144886311D01*
X135869549Y-144977842D01*
X136086948Y-145263000D01*
X137643000Y-145263000D01*
X137643000Y-145243000D01*
X137693000Y-145243000D01*
X137693000Y-145263000D01*
X137713000Y-145263000D01*
X137713000Y-145313000D01*
X137693000Y-145313000D01*
X137693000Y-145333000D01*
X137643000Y-145333000D01*
X137643000Y-145313000D01*
X136086948Y-145313000D01*
X135869549Y-145598158D01*
X135887755Y-145689689D01*
X136000327Y-146029279D01*
X136176987Y-146340382D01*
X136328587Y-146515763D01*
X136211593Y-146632757D01*
X136006397Y-146939855D01*
X135865056Y-147281083D01*
X135793000Y-147643329D01*
X135793000Y-148012671D01*
X135865056Y-148374917D01*
X136006397Y-148716145D01*
X136211593Y-149023243D01*
X136472757Y-149284407D01*
X136779855Y-149489603D01*
X137121083Y-149630944D01*
X137483329Y-149703000D01*
X137852671Y-149703000D01*
X138214917Y-149630944D01*
X138403091Y-149553000D01*
X139245001Y-149553000D01*
X139245000Y-162105000D01*
X126547351Y-162105000D01*
X126674380Y-161950215D01*
X126769558Y-161772148D01*
X126828169Y-161578935D01*
X126847959Y-161378000D01*
X126847959Y-159678000D01*
X126828169Y-159477065D01*
X126769558Y-159283852D01*
X126693000Y-159140621D01*
X126693000Y-157808000D01*
X127550262Y-157808000D01*
X127635000Y-157816346D01*
X127973159Y-157783040D01*
X128298323Y-157684403D01*
X128597995Y-157524225D01*
X128860661Y-157308661D01*
X128914682Y-157242836D01*
X134382837Y-151774681D01*
X134448661Y-151720661D01*
X134664225Y-151457995D01*
X134824403Y-151158323D01*
X134923040Y-150833159D01*
X134948000Y-150579738D01*
X134948000Y-150579736D01*
X134956346Y-150495001D01*
X134948000Y-150410266D01*
X134948000Y-148432436D01*
X134977866Y-148360333D01*
X135048000Y-148007747D01*
X135048000Y-147648253D01*
X134977866Y-147295667D01*
X134840294Y-146963539D01*
X134640570Y-146664631D01*
X134386369Y-146410430D01*
X134087461Y-146210706D01*
X133755333Y-146073134D01*
X133402747Y-146003000D01*
X133043253Y-146003000D01*
X132690667Y-146073134D01*
X132358539Y-146210706D01*
X132059631Y-146410430D01*
X131805430Y-146664631D01*
X131605706Y-146963539D01*
X131468134Y-147295667D01*
X131398000Y-147648253D01*
X131398000Y-148007747D01*
X131468134Y-148360333D01*
X131498001Y-148432438D01*
X131498000Y-149372893D01*
X131385571Y-149204631D01*
X131131370Y-148950430D01*
X130832462Y-148750706D01*
X130500334Y-148613134D01*
X130147748Y-148543000D01*
X129788254Y-148543000D01*
X129435668Y-148613134D01*
X129103540Y-148750706D01*
X128804632Y-148950430D01*
X128550431Y-149204631D01*
X128350707Y-149503539D01*
X128320841Y-149575642D01*
X126713483Y-151183000D01*
X123032436Y-151183000D01*
X122960333Y-151153134D01*
X122607747Y-151083000D01*
X122248253Y-151083000D01*
X121895667Y-151153134D01*
X121563539Y-151290706D01*
X121264631Y-151490430D01*
X121010430Y-151744631D01*
X120810706Y-152043539D01*
X120673134Y-152375667D01*
X120603000Y-152728253D01*
X120603000Y-153087747D01*
X120673134Y-153440333D01*
X120703000Y-153512436D01*
X120703001Y-158902190D01*
X120629279Y-158860327D01*
X120289689Y-158747755D01*
X120198158Y-158729549D01*
X119913000Y-158946948D01*
X119913000Y-160503000D01*
X119933000Y-160503000D01*
X119933000Y-160553000D01*
X119913000Y-160553000D01*
X119913000Y-160573000D01*
X119863000Y-160573000D01*
X119863000Y-160553000D01*
X119843000Y-160553000D01*
X119843000Y-160503000D01*
X119863000Y-160503000D01*
X119863000Y-158946948D01*
X119577842Y-158729549D01*
X119486311Y-158747755D01*
X119146721Y-158860327D01*
X118835618Y-159036987D01*
X118660237Y-159188587D01*
X118543243Y-159071593D01*
X118236145Y-158866397D01*
X117894917Y-158725056D01*
X117532671Y-158653000D01*
X117163329Y-158653000D01*
X116801083Y-158725056D01*
X116459855Y-158866397D01*
X116152757Y-159071593D01*
X115891593Y-159332757D01*
X115686397Y-159639855D01*
X115545056Y-159981083D01*
X115473000Y-160343329D01*
X115473000Y-160712671D01*
X115545056Y-161074917D01*
X115623000Y-161263091D01*
X115623001Y-162105000D01*
X88847000Y-162105000D01*
X88847000Y-160988518D01*
X97727972Y-152107546D01*
X97916145Y-152029603D01*
X98223243Y-151824407D01*
X98340237Y-151707413D01*
X98515618Y-151859013D01*
X98826721Y-152035673D01*
X99166311Y-152148245D01*
X99257842Y-152166451D01*
X99543000Y-151949052D01*
X99543000Y-150393000D01*
X99523000Y-150393000D01*
X99523000Y-150343000D01*
X99543000Y-150343000D01*
X99543000Y-148786948D01*
X99593000Y-148786948D01*
X99593000Y-150343000D01*
X99613000Y-150343000D01*
X99613000Y-150393000D01*
X99593000Y-150393000D01*
X99593000Y-151949052D01*
X99878158Y-152166451D01*
X99969689Y-152148245D01*
X100309279Y-152035673D01*
X100620382Y-151859013D01*
X100795763Y-151707413D01*
X100912757Y-151824407D01*
X101219855Y-152029603D01*
X101561083Y-152170944D01*
X101923329Y-152243000D01*
X102292671Y-152243000D01*
X102654917Y-152170944D01*
X102996145Y-152029603D01*
X103092651Y-151965120D01*
X103225785Y-152074380D01*
X103403852Y-152169558D01*
X103597065Y-152228169D01*
X103798000Y-152247959D01*
X105498000Y-152247959D01*
X105698935Y-152228169D01*
X105892148Y-152169558D01*
X106035379Y-152093000D01*
X108124482Y-152093000D01*
X113274322Y-157242841D01*
X113328339Y-157308661D01*
X113591005Y-157524225D01*
X113890677Y-157684403D01*
X114215840Y-157783040D01*
X114554000Y-157816346D01*
X114638738Y-157808000D01*
X116743564Y-157808000D01*
X116815667Y-157837866D01*
X117168253Y-157908000D01*
X117527747Y-157908000D01*
X117880333Y-157837866D01*
X118212461Y-157700294D01*
X118511369Y-157500570D01*
X118765570Y-157246369D01*
X118965294Y-156947461D01*
X119102866Y-156615333D01*
X119173000Y-156262747D01*
X119173000Y-155903253D01*
X119102866Y-155550667D01*
X118965294Y-155218539D01*
X118765570Y-154919631D01*
X118511369Y-154665430D01*
X118212461Y-154465706D01*
X117880333Y-154328134D01*
X117527747Y-154258000D01*
X117168253Y-154258000D01*
X116815667Y-154328134D01*
X116743564Y-154358000D01*
X115922834Y-154358000D01*
X115971369Y-154325570D01*
X116225570Y-154071369D01*
X116425294Y-153772461D01*
X116562866Y-153440333D01*
X116633000Y-153087747D01*
X116633000Y-152728253D01*
X116562866Y-152375667D01*
X116533000Y-152303564D01*
X116533000Y-151861368D01*
X116541346Y-151776630D01*
X116508040Y-151438470D01*
X116409403Y-151113307D01*
X116308304Y-150924164D01*
X116249225Y-150813635D01*
X116033661Y-150550969D01*
X115967841Y-150496952D01*
X107059052Y-141588164D01*
X107005031Y-141522339D01*
X106742365Y-141306775D01*
X106442693Y-141146597D01*
X106117529Y-141047960D01*
X105864108Y-141023000D01*
X105779370Y-141014654D01*
X105694632Y-141023000D01*
X102712436Y-141023000D01*
X102640333Y-140993134D01*
X102287747Y-140923000D01*
X101928253Y-140923000D01*
X101575667Y-140993134D01*
X101243539Y-141130706D01*
X100944631Y-141330430D01*
X100690430Y-141584631D01*
X100490706Y-141883539D01*
X100353134Y-142215667D01*
X100283000Y-142568253D01*
X100283000Y-142927747D01*
X100353134Y-143280333D01*
X100383000Y-143352436D01*
X100383001Y-148742190D01*
X100309279Y-148700327D01*
X99969689Y-148587755D01*
X99878158Y-148569549D01*
X99593000Y-148786948D01*
X99543000Y-148786948D01*
X99257842Y-148569549D01*
X99166311Y-148587755D01*
X98826721Y-148700327D01*
X98515618Y-148876987D01*
X98340237Y-149028587D01*
X98223243Y-148911593D01*
X97916145Y-148706397D01*
X97574917Y-148565056D01*
X97212671Y-148493000D01*
X96897519Y-148493000D01*
X97820360Y-147570159D01*
X97892461Y-147540294D01*
X98191369Y-147340570D01*
X98445570Y-147086369D01*
X98645294Y-146787461D01*
X98782866Y-146455333D01*
X98853000Y-146102747D01*
X98853000Y-145743253D01*
X98782866Y-145390667D01*
X98645294Y-145058539D01*
X98445570Y-144759631D01*
X98191369Y-144505430D01*
X97892461Y-144305706D01*
X97560333Y-144168134D01*
X97207747Y-144098000D01*
X96848253Y-144098000D01*
X96495667Y-144168134D01*
X96163539Y-144305706D01*
X95864631Y-144505430D01*
X95610430Y-144759631D01*
X95410706Y-145058539D01*
X95380841Y-145130640D01*
X86153482Y-154358000D01*
X85274578Y-154358000D01*
X85290995Y-154349225D01*
X85553661Y-154133661D01*
X85607682Y-154067836D01*
X95280360Y-144395159D01*
X95352461Y-144365294D01*
X95651369Y-144165570D01*
X95905570Y-143911369D01*
X96105294Y-143612461D01*
X96242866Y-143280333D01*
X96313000Y-142927747D01*
X96313000Y-142568253D01*
X96242866Y-142215667D01*
X96105294Y-141883539D01*
X95905570Y-141584631D01*
X95651369Y-141330430D01*
X95352461Y-141130706D01*
X95020333Y-140993134D01*
X94667747Y-140923000D01*
X94308253Y-140923000D01*
X93955667Y-140993134D01*
X93623539Y-141130706D01*
X93324631Y-141330430D01*
X93070430Y-141584631D01*
X92870706Y-141883539D01*
X92840841Y-141955640D01*
X83613482Y-151183000D01*
X82392436Y-151183000D01*
X82320333Y-151153134D01*
X81967747Y-151083000D01*
X81608253Y-151083000D01*
X81255667Y-151153134D01*
X80923539Y-151290706D01*
X80624631Y-151490430D01*
X80370430Y-151744631D01*
X80170706Y-152043539D01*
X80033134Y-152375667D01*
X79963000Y-152728253D01*
X79963000Y-153087747D01*
X80033134Y-153440333D01*
X80063000Y-153512436D01*
X80063001Y-158902190D01*
X79989279Y-158860327D01*
X79649689Y-158747755D01*
X79558158Y-158729549D01*
X79273000Y-158946948D01*
X79273000Y-160503000D01*
X79293000Y-160503000D01*
X79293000Y-160553000D01*
X79273000Y-160553000D01*
X79273000Y-160573000D01*
X79223000Y-160573000D01*
X79223000Y-160553000D01*
X79203000Y-160553000D01*
X79203000Y-160503000D01*
X79223000Y-160503000D01*
X79223000Y-158946948D01*
X78937842Y-158729549D01*
X78846311Y-158747755D01*
X78506721Y-158860327D01*
X78195618Y-159036987D01*
X78020237Y-159188587D01*
X77903243Y-159071593D01*
X77596145Y-158866397D01*
X77254917Y-158725056D01*
X76892671Y-158653000D01*
X76523329Y-158653000D01*
X76161083Y-158725056D01*
X75819855Y-158866397D01*
X75512757Y-159071593D01*
X75251593Y-159332757D01*
X75046397Y-159639855D01*
X74905056Y-159981083D01*
X74833000Y-160343329D01*
X74833000Y-160712671D01*
X74905056Y-161074917D01*
X74983000Y-161263091D01*
X74983001Y-162105000D01*
X61161000Y-162105000D01*
X61161000Y-146978000D01*
X62128041Y-146978000D01*
X62128041Y-148678000D01*
X62147831Y-148878935D01*
X62206442Y-149072148D01*
X62301620Y-149250215D01*
X62429709Y-149406291D01*
X62585785Y-149534380D01*
X62763852Y-149629558D01*
X62957065Y-149688169D01*
X63158000Y-149707959D01*
X64858000Y-149707959D01*
X65058935Y-149688169D01*
X65252148Y-149629558D01*
X65395379Y-149553000D01*
X67363001Y-149553000D01*
X67363001Y-151172253D01*
X67354654Y-151257000D01*
X67387960Y-151595159D01*
X67486597Y-151920322D01*
X67632347Y-152193000D01*
X67646776Y-152219995D01*
X67862340Y-152482661D01*
X67928160Y-152536678D01*
X72634322Y-157242841D01*
X72688339Y-157308661D01*
X72951005Y-157524225D01*
X73250677Y-157684403D01*
X73575840Y-157783040D01*
X73914000Y-157816346D01*
X73998738Y-157808000D01*
X76103564Y-157808000D01*
X76175667Y-157837866D01*
X76528253Y-157908000D01*
X76887747Y-157908000D01*
X77240333Y-157837866D01*
X77572461Y-157700294D01*
X77871369Y-157500570D01*
X78125570Y-157246369D01*
X78325294Y-156947461D01*
X78462866Y-156615333D01*
X78533000Y-156262747D01*
X78533000Y-155903253D01*
X78462866Y-155550667D01*
X78325294Y-155218539D01*
X78125570Y-154919631D01*
X77871369Y-154665430D01*
X77572461Y-154465706D01*
X77240333Y-154328134D01*
X76887747Y-154258000D01*
X76528253Y-154258000D01*
X76175667Y-154328134D01*
X76103564Y-154358000D01*
X75282834Y-154358000D01*
X75331369Y-154325570D01*
X75585570Y-154071369D01*
X75785294Y-153772461D01*
X75922866Y-153440333D01*
X75993000Y-153087747D01*
X75993000Y-152728253D01*
X75922866Y-152375667D01*
X75785294Y-152043539D01*
X75585570Y-151744631D01*
X75331369Y-151490430D01*
X75032461Y-151290706D01*
X74960359Y-151260840D01*
X73988000Y-150288482D01*
X73988000Y-145892436D01*
X74017866Y-145820333D01*
X74088000Y-145467747D01*
X74088000Y-145108253D01*
X74017866Y-144755667D01*
X73880294Y-144423539D01*
X73680570Y-144124631D01*
X73426369Y-143870430D01*
X73127461Y-143670706D01*
X72795333Y-143533134D01*
X72442747Y-143463000D01*
X72083253Y-143463000D01*
X71730667Y-143533134D01*
X71658564Y-143563000D01*
X65633810Y-143563000D01*
X65675673Y-143489279D01*
X65788245Y-143149689D01*
X65806451Y-143058158D01*
X65589052Y-142773000D01*
X64033000Y-142773000D01*
X64033000Y-142793000D01*
X63983000Y-142793000D01*
X63983000Y-142773000D01*
X62426948Y-142773000D01*
X62209549Y-143058158D01*
X62227755Y-143149689D01*
X62340327Y-143489279D01*
X62516987Y-143800382D01*
X62668587Y-143975763D01*
X62551593Y-144092757D01*
X62346397Y-144399855D01*
X62205056Y-144741083D01*
X62133000Y-145103329D01*
X62133000Y-145472671D01*
X62205056Y-145834917D01*
X62346397Y-146176145D01*
X62410880Y-146272651D01*
X62301620Y-146405785D01*
X62206442Y-146583852D01*
X62147831Y-146777065D01*
X62128041Y-146978000D01*
X61161000Y-146978000D01*
X61161000Y-141933000D01*
X62382190Y-141933000D01*
X62340327Y-142006721D01*
X62227755Y-142346311D01*
X62209549Y-142437842D01*
X62426948Y-142723000D01*
X63983000Y-142723000D01*
X63983000Y-142703000D01*
X64033000Y-142703000D01*
X64033000Y-142723000D01*
X65589052Y-142723000D01*
X65806451Y-142437842D01*
X65788245Y-142346311D01*
X65675673Y-142006721D01*
X65499013Y-141695618D01*
X65347413Y-141520237D01*
X65464407Y-141403243D01*
X65669603Y-141096145D01*
X65810944Y-140754917D01*
X65883000Y-140392671D01*
X65883000Y-140028253D01*
X67263000Y-140028253D01*
X67263000Y-140387747D01*
X67333134Y-140740333D01*
X67470706Y-141072461D01*
X67670430Y-141371369D01*
X67924631Y-141625570D01*
X68223539Y-141825294D01*
X68555667Y-141962866D01*
X68908253Y-142033000D01*
X69267747Y-142033000D01*
X69620333Y-141962866D01*
X69952461Y-141825294D01*
X70251369Y-141625570D01*
X70505570Y-141371369D01*
X70705294Y-141072461D01*
X70842866Y-140740333D01*
X70913000Y-140387747D01*
X70913000Y-140028253D01*
X70842866Y-139675667D01*
X70813000Y-139603564D01*
X70813000Y-138782834D01*
X70845430Y-138831369D01*
X71099631Y-139085570D01*
X71398539Y-139285294D01*
X71730667Y-139422866D01*
X72083253Y-139493000D01*
X72442747Y-139493000D01*
X72795333Y-139422866D01*
X72867436Y-139393000D01*
X73309632Y-139393000D01*
X73394370Y-139401346D01*
X73732529Y-139368040D01*
X74057693Y-139269403D01*
X74357365Y-139109225D01*
X74620031Y-138893661D01*
X74674052Y-138827836D01*
X83662841Y-129839048D01*
X83728660Y-129785032D01*
X83944224Y-129522366D01*
X84104402Y-129222694D01*
X84110728Y-129201841D01*
X84203039Y-128897531D01*
X84236345Y-128559371D01*
X84227999Y-128474633D01*
X84227999Y-125572436D01*
X84257865Y-125500333D01*
X84327999Y-125147747D01*
X84327999Y-124788253D01*
X84257865Y-124435667D01*
X84120293Y-124103539D01*
X83920569Y-123804631D01*
X83666368Y-123550430D01*
X83367460Y-123350706D01*
X83035332Y-123213134D01*
X82682746Y-123143000D01*
X82323252Y-123143000D01*
X81970666Y-123213134D01*
X81898563Y-123243000D01*
X75793810Y-123243000D01*
X75835673Y-123169279D01*
X75948245Y-122829689D01*
X75966451Y-122738158D01*
X75749052Y-122453000D01*
X74193000Y-122453000D01*
X74193000Y-122473000D01*
X74143000Y-122473000D01*
X74143000Y-122453000D01*
X72586948Y-122453000D01*
X72369549Y-122738158D01*
X72387755Y-122829689D01*
X72500327Y-123169279D01*
X72676987Y-123480382D01*
X72828587Y-123655763D01*
X72711593Y-123772757D01*
X72506397Y-124079855D01*
X72365056Y-124421083D01*
X72293000Y-124783329D01*
X72293000Y-125152671D01*
X72365056Y-125514917D01*
X72506397Y-125856145D01*
X72570880Y-125952651D01*
X72461620Y-126085785D01*
X72366442Y-126263852D01*
X72307831Y-126457065D01*
X72288041Y-126658000D01*
X72288041Y-128358000D01*
X72307831Y-128558935D01*
X72366442Y-128752148D01*
X72443001Y-128895380D01*
X72443000Y-130603481D01*
X67928160Y-135118322D01*
X67862340Y-135172339D01*
X67808323Y-135238159D01*
X67808322Y-135238160D01*
X67646776Y-135435005D01*
X67486597Y-135734678D01*
X67387960Y-136059841D01*
X67354654Y-136398000D01*
X67363001Y-136482747D01*
X67363000Y-139603564D01*
X67333134Y-139675667D01*
X67263000Y-140028253D01*
X65883000Y-140028253D01*
X65883000Y-140023329D01*
X65810944Y-139661083D01*
X65669603Y-139319855D01*
X65464407Y-139012757D01*
X65203243Y-138751593D01*
X64896145Y-138546397D01*
X64554917Y-138405056D01*
X64192671Y-138333000D01*
X63823329Y-138333000D01*
X63461083Y-138405056D01*
X63272909Y-138483000D01*
X61161000Y-138483000D01*
X61161000Y-111707000D01*
X63547482Y-111707000D01*
X72428454Y-120587972D01*
X72506397Y-120776145D01*
X72711593Y-121083243D01*
X72828587Y-121200237D01*
X72676987Y-121375618D01*
X72500327Y-121686721D01*
X72387755Y-122026311D01*
X72369549Y-122117842D01*
X72586948Y-122403000D01*
X74143000Y-122403000D01*
X74143000Y-122383000D01*
X74193000Y-122383000D01*
X74193000Y-122403000D01*
X75749052Y-122403000D01*
X75867028Y-122248253D01*
X118063000Y-122248253D01*
X118063000Y-122607747D01*
X118133134Y-122960333D01*
X118270706Y-123292461D01*
X118470430Y-123591369D01*
X118724631Y-123845570D01*
X119023539Y-124045294D01*
X119355667Y-124182866D01*
X119708253Y-124253000D01*
X120067747Y-124253000D01*
X120420333Y-124182866D01*
X120492436Y-124153000D01*
X125882190Y-124153000D01*
X125840327Y-124226721D01*
X125727755Y-124566311D01*
X125709549Y-124657842D01*
X125926948Y-124943000D01*
X127483000Y-124943000D01*
X127483000Y-124923000D01*
X127533000Y-124923000D01*
X127533000Y-124943000D01*
X129089052Y-124943000D01*
X129306451Y-124657842D01*
X129288245Y-124566311D01*
X129175673Y-124226721D01*
X128999013Y-123915618D01*
X128847413Y-123740237D01*
X128964407Y-123623243D01*
X129169603Y-123316145D01*
X129310944Y-122974917D01*
X129383000Y-122612671D01*
X129383000Y-122243329D01*
X129310944Y-121881083D01*
X129169603Y-121539855D01*
X129105120Y-121443349D01*
X129214380Y-121310215D01*
X129309558Y-121132148D01*
X129368169Y-120938935D01*
X129387959Y-120738000D01*
X129387959Y-119038000D01*
X129368169Y-118837065D01*
X129309558Y-118643852D01*
X129233000Y-118500621D01*
X129233000Y-118352518D01*
X134382842Y-113202677D01*
X134448661Y-113148661D01*
X134664225Y-112885995D01*
X134824403Y-112586323D01*
X134923040Y-112261159D01*
X134948000Y-112007738D01*
X134948000Y-112007737D01*
X134956346Y-111923000D01*
X134948000Y-111838262D01*
X134948000Y-107792436D01*
X134977866Y-107720333D01*
X135048000Y-107367747D01*
X135048000Y-107008253D01*
X134977866Y-106655667D01*
X134840294Y-106323539D01*
X134640570Y-106024631D01*
X134386369Y-105770430D01*
X134087461Y-105570706D01*
X133755333Y-105433134D01*
X133402747Y-105363000D01*
X133043253Y-105363000D01*
X132690667Y-105433134D01*
X132358539Y-105570706D01*
X132059631Y-105770430D01*
X131805430Y-106024631D01*
X131605706Y-106323539D01*
X131468134Y-106655667D01*
X131398000Y-107008253D01*
X131398000Y-107367747D01*
X131468134Y-107720333D01*
X131498000Y-107792436D01*
X131498000Y-108404107D01*
X131498001Y-108404117D01*
X131498001Y-108613167D01*
X131465570Y-108564631D01*
X131211369Y-108310430D01*
X130912461Y-108110706D01*
X130580333Y-107973134D01*
X130227747Y-107903000D01*
X129868253Y-107903000D01*
X129515667Y-107973134D01*
X129183539Y-108110706D01*
X128884631Y-108310430D01*
X128630430Y-108564631D01*
X128430706Y-108863539D01*
X128293134Y-109195667D01*
X128223000Y-109548253D01*
X128223000Y-109907747D01*
X128293134Y-110260333D01*
X128323001Y-110332438D01*
X128323000Y-111045481D01*
X123618482Y-115750000D01*
X122385737Y-115750000D01*
X122300999Y-115741654D01*
X121962840Y-115774960D01*
X121887160Y-115797917D01*
X121637677Y-115873597D01*
X121338005Y-116033775D01*
X121075339Y-116249339D01*
X121021318Y-116315164D01*
X118728160Y-118608322D01*
X118662340Y-118662339D01*
X118608323Y-118728159D01*
X118608322Y-118728160D01*
X118446776Y-118925005D01*
X118286597Y-119224678D01*
X118187960Y-119549841D01*
X118154654Y-119888000D01*
X118163001Y-119972747D01*
X118163000Y-121823564D01*
X118133134Y-121895667D01*
X118063000Y-122248253D01*
X75867028Y-122248253D01*
X75966451Y-122117842D01*
X75948245Y-122026311D01*
X75835673Y-121686721D01*
X75659013Y-121375618D01*
X75507413Y-121200237D01*
X75624407Y-121083243D01*
X75829603Y-120776145D01*
X75970944Y-120434917D01*
X76043000Y-120072671D01*
X76043000Y-119703329D01*
X75970944Y-119341083D01*
X75970506Y-119340024D01*
X76878322Y-120247841D01*
X76932340Y-120313662D01*
X77195006Y-120529226D01*
X77464239Y-120673134D01*
X77494678Y-120689404D01*
X77620382Y-120727536D01*
X77630706Y-120752461D01*
X77830430Y-121051369D01*
X78084631Y-121305570D01*
X78383539Y-121505294D01*
X78715667Y-121642866D01*
X79068253Y-121713000D01*
X79427747Y-121713000D01*
X79780333Y-121642866D01*
X80112461Y-121505294D01*
X80411369Y-121305570D01*
X80665570Y-121051369D01*
X80865294Y-120752461D01*
X81002866Y-120420333D01*
X81073000Y-120067747D01*
X81073000Y-119708253D01*
X81002866Y-119355667D01*
X80865294Y-119023539D01*
X80665570Y-118724631D01*
X80411369Y-118470430D01*
X80112461Y-118270706D01*
X80040357Y-118240840D01*
X79966607Y-118167089D01*
X80233470Y-118248041D01*
X80571630Y-118281347D01*
X80656368Y-118273001D01*
X80926157Y-118273001D01*
X81085429Y-118511369D01*
X81339630Y-118765570D01*
X81638538Y-118965294D01*
X81970666Y-119102866D01*
X82323252Y-119173000D01*
X82682746Y-119173000D01*
X83035332Y-119102866D01*
X83367460Y-118965294D01*
X83666368Y-118765570D01*
X83920569Y-118511369D01*
X84120293Y-118212461D01*
X84257865Y-117880333D01*
X84327999Y-117527747D01*
X84327999Y-117168253D01*
X84257865Y-116815667D01*
X84120293Y-116483539D01*
X83920569Y-116184631D01*
X83666368Y-115930430D01*
X83367460Y-115730706D01*
X83295356Y-115700840D01*
X82982683Y-115388166D01*
X82928661Y-115322340D01*
X82665995Y-115106776D01*
X82366323Y-114946598D01*
X82041159Y-114847961D01*
X81787738Y-114823001D01*
X81703000Y-114814655D01*
X81618262Y-114823001D01*
X81286149Y-114823001D01*
X69951311Y-103488164D01*
X69897290Y-103422339D01*
X69634624Y-103206775D01*
X69334952Y-103046597D01*
X69009788Y-102947960D01*
X68756367Y-102923000D01*
X68671629Y-102914654D01*
X68586891Y-102923000D01*
X65633810Y-102923000D01*
X65675673Y-102849279D01*
X65788245Y-102509689D01*
X65806451Y-102418158D01*
X65589052Y-102133000D01*
X64033000Y-102133000D01*
X64033000Y-102153000D01*
X63983000Y-102153000D01*
X63983000Y-102133000D01*
X62426948Y-102133000D01*
X62209549Y-102418158D01*
X62227755Y-102509689D01*
X62340327Y-102849279D01*
X62516987Y-103160382D01*
X62668587Y-103335763D01*
X62551593Y-103452757D01*
X62346397Y-103759855D01*
X62205056Y-104101083D01*
X62133000Y-104463329D01*
X62133000Y-104832671D01*
X62205056Y-105194917D01*
X62346397Y-105536145D01*
X62410880Y-105632651D01*
X62301620Y-105765785D01*
X62206442Y-105943852D01*
X62147831Y-106137065D01*
X62128041Y-106338000D01*
X62128041Y-108038000D01*
X62147831Y-108238935D01*
X62153311Y-108257000D01*
X61161000Y-108257000D01*
X61161000Y-101293000D01*
X62382190Y-101293000D01*
X62340327Y-101366721D01*
X62227755Y-101706311D01*
X62209549Y-101797842D01*
X62426948Y-102083000D01*
X63983000Y-102083000D01*
X63983000Y-102063000D01*
X64033000Y-102063000D01*
X64033000Y-102083000D01*
X65589052Y-102083000D01*
X65806451Y-101797842D01*
X65788245Y-101706311D01*
X65675673Y-101366721D01*
X65499013Y-101055618D01*
X65347413Y-100880237D01*
X65464407Y-100763243D01*
X65669603Y-100456145D01*
X65747547Y-100267971D01*
X65861402Y-100154116D01*
X74097346Y-100154116D01*
X74097346Y-100523458D01*
X74169402Y-100885704D01*
X74310743Y-101226932D01*
X74515939Y-101534030D01*
X74777103Y-101795194D01*
X75084201Y-102000390D01*
X75425429Y-102141731D01*
X75787675Y-102213787D01*
X76157017Y-102213787D01*
X76519263Y-102141731D01*
X76860491Y-102000390D01*
X77167589Y-101795194D01*
X77242346Y-101720437D01*
X77317103Y-101795194D01*
X77624201Y-102000390D01*
X77965429Y-102141731D01*
X78327675Y-102213787D01*
X78697017Y-102213787D01*
X79059263Y-102141731D01*
X79400491Y-102000390D01*
X79707589Y-101795194D01*
X79782346Y-101720437D01*
X79857103Y-101795194D01*
X80164201Y-102000390D01*
X80505429Y-102141731D01*
X80867675Y-102213787D01*
X81237017Y-102213787D01*
X81599263Y-102141731D01*
X81940491Y-102000390D01*
X82247589Y-101795194D01*
X82364583Y-101678200D01*
X82539964Y-101829800D01*
X82851067Y-102006460D01*
X83190657Y-102119032D01*
X83282188Y-102137238D01*
X83567346Y-101919839D01*
X83567346Y-100363787D01*
X83547346Y-100363787D01*
X83547346Y-100313787D01*
X83567346Y-100313787D01*
X83567346Y-98757735D01*
X83282188Y-98540336D01*
X83190657Y-98558542D01*
X82851067Y-98671114D01*
X82539964Y-98847774D01*
X82364583Y-98999374D01*
X82247589Y-98882380D01*
X81940491Y-98677184D01*
X81599263Y-98535843D01*
X81237017Y-98463787D01*
X80867675Y-98463787D01*
X80505429Y-98535843D01*
X80164201Y-98677184D01*
X79857103Y-98882380D01*
X79782346Y-98957137D01*
X79707589Y-98882380D01*
X79400491Y-98677184D01*
X79059263Y-98535843D01*
X78697017Y-98463787D01*
X78327675Y-98463787D01*
X77965429Y-98535843D01*
X77624201Y-98677184D01*
X77317103Y-98882380D01*
X77242346Y-98957137D01*
X77167589Y-98882380D01*
X76860491Y-98677184D01*
X76519263Y-98535843D01*
X76157017Y-98463787D01*
X75787675Y-98463787D01*
X75425429Y-98535843D01*
X75084201Y-98677184D01*
X74777103Y-98882380D01*
X74515939Y-99143544D01*
X74310743Y-99450642D01*
X74169402Y-99791870D01*
X74097346Y-100154116D01*
X65861402Y-100154116D01*
X69231842Y-96783677D01*
X69297661Y-96729661D01*
X69359891Y-96653834D01*
X69513224Y-96466996D01*
X69513226Y-96466994D01*
X69673403Y-96167323D01*
X69747885Y-95921787D01*
X69772040Y-95842160D01*
X69805346Y-95504000D01*
X69797000Y-95419262D01*
X69797000Y-94282336D01*
X70386938Y-94282336D01*
X70404379Y-94370016D01*
X70513740Y-94700344D01*
X70685443Y-95002990D01*
X70912890Y-95266323D01*
X71187341Y-95480224D01*
X71498248Y-95636472D01*
X71833664Y-95729063D01*
X72111000Y-95511075D01*
X72111000Y-94005000D01*
X72161000Y-94005000D01*
X72161000Y-95511075D01*
X72438336Y-95729063D01*
X72773752Y-95636472D01*
X73084659Y-95480224D01*
X73359110Y-95266323D01*
X73586557Y-95002990D01*
X73758260Y-94700344D01*
X73867621Y-94370016D01*
X73885062Y-94282336D01*
X73667046Y-94005000D01*
X72161000Y-94005000D01*
X72111000Y-94005000D01*
X70604954Y-94005000D01*
X70386938Y-94282336D01*
X69797000Y-94282336D01*
X69797000Y-93677664D01*
X70386938Y-93677664D01*
X70604954Y-93955000D01*
X72111000Y-93955000D01*
X72111000Y-92448925D01*
X72161000Y-92448925D01*
X72161000Y-93955000D01*
X73667046Y-93955000D01*
X73885062Y-93677664D01*
X73867621Y-93589984D01*
X73758260Y-93259656D01*
X73586557Y-92957010D01*
X73359110Y-92693677D01*
X73084659Y-92479776D01*
X72773752Y-92323528D01*
X72438336Y-92230937D01*
X72161000Y-92448925D01*
X72111000Y-92448925D01*
X71833664Y-92230937D01*
X71498248Y-92323528D01*
X71187341Y-92479776D01*
X70912890Y-92693677D01*
X70685443Y-92957010D01*
X70513740Y-93259656D01*
X70404379Y-93589984D01*
X70386938Y-93677664D01*
X69797000Y-93677664D01*
X69797000Y-85698518D01*
X73024116Y-88925635D01*
X73078128Y-88991449D01*
X73143942Y-89045461D01*
X73143947Y-89045466D01*
X73340792Y-89207012D01*
X73640465Y-89367191D01*
X73965628Y-89465828D01*
X74303788Y-89499134D01*
X74388526Y-89490788D01*
X80210827Y-89490786D01*
X80407664Y-89687623D01*
X80461685Y-89753448D01*
X80724351Y-89969012D01*
X81008626Y-90120960D01*
X81024023Y-90129190D01*
X81349186Y-90227827D01*
X81687346Y-90261133D01*
X81772084Y-90252787D01*
X82369828Y-90252787D01*
X83349205Y-91232164D01*
X83291346Y-91523040D01*
X83291346Y-91882534D01*
X83361480Y-92235120D01*
X83499052Y-92567248D01*
X83698776Y-92866156D01*
X83952977Y-93120357D01*
X84251885Y-93320081D01*
X84584013Y-93457653D01*
X84936599Y-93527787D01*
X85296093Y-93527787D01*
X85648679Y-93457653D01*
X85980807Y-93320081D01*
X86279715Y-93120357D01*
X86533916Y-92866156D01*
X86733640Y-92567248D01*
X86871212Y-92235120D01*
X86941346Y-91882534D01*
X86941346Y-91523040D01*
X86871212Y-91170454D01*
X86841346Y-91098351D01*
X86841346Y-90644524D01*
X86849692Y-90559786D01*
X86816386Y-90221627D01*
X86717749Y-89896464D01*
X86675990Y-89818339D01*
X86557571Y-89596792D01*
X86342007Y-89334126D01*
X86276181Y-89280104D01*
X85297912Y-88301836D01*
X85317346Y-88104525D01*
X85317346Y-88104524D01*
X85325692Y-88019789D01*
X85317346Y-87935051D01*
X85317346Y-86790688D01*
X85585429Y-86901731D01*
X85947675Y-86973787D01*
X86317017Y-86973787D01*
X86679263Y-86901731D01*
X87020491Y-86760390D01*
X87327589Y-86555194D01*
X87402346Y-86480437D01*
X87477103Y-86555194D01*
X87784201Y-86760390D01*
X88125429Y-86901731D01*
X88487675Y-86973787D01*
X88857017Y-86973787D01*
X89219263Y-86901731D01*
X89487347Y-86790687D01*
X89487347Y-87163846D01*
X89286775Y-87364418D01*
X89087051Y-87663326D01*
X88949479Y-87995454D01*
X88879345Y-88348040D01*
X88879345Y-88707534D01*
X88949479Y-89060120D01*
X89087051Y-89392248D01*
X89286775Y-89691156D01*
X89540976Y-89945357D01*
X89839884Y-90145081D01*
X90172012Y-90282653D01*
X90511484Y-90350178D01*
X90790222Y-90628917D01*
X90834844Y-90683289D01*
X91051828Y-90861363D01*
X91099054Y-90886606D01*
X90981480Y-91170454D01*
X90911346Y-91523040D01*
X90911346Y-91882534D01*
X90981480Y-92235120D01*
X91119052Y-92567248D01*
X91318776Y-92866156D01*
X91572977Y-93120357D01*
X91871885Y-93320081D01*
X92204013Y-93457653D01*
X92556599Y-93527787D01*
X92916093Y-93527787D01*
X93268679Y-93457653D01*
X93340782Y-93427787D01*
X95572608Y-93427787D01*
X95657346Y-93436133D01*
X95995505Y-93402827D01*
X96064865Y-93381787D01*
X96320669Y-93304190D01*
X96620341Y-93144012D01*
X96883007Y-92928448D01*
X96921043Y-92882101D01*
X96895522Y-92943714D01*
X96825388Y-93296300D01*
X96825388Y-93655794D01*
X96895522Y-94008380D01*
X97033094Y-94340508D01*
X97232818Y-94639416D01*
X97487019Y-94893617D01*
X97785927Y-95093341D01*
X98118055Y-95230913D01*
X98470641Y-95301047D01*
X98830135Y-95301047D01*
X99182721Y-95230913D01*
X99514849Y-95093341D01*
X99813757Y-94893617D01*
X100067958Y-94639416D01*
X100267682Y-94340508D01*
X100405254Y-94008380D01*
X100475388Y-93655794D01*
X100475388Y-93296300D01*
X100405254Y-92943714D01*
X100267682Y-92611586D01*
X100075388Y-92323798D01*
X100075388Y-92111787D01*
X109808409Y-92111787D01*
X109777481Y-92186454D01*
X109707347Y-92539040D01*
X109707347Y-92898534D01*
X109777481Y-93251120D01*
X109872198Y-93479787D01*
X105130257Y-93479787D01*
X105055346Y-93472409D01*
X104980435Y-93479787D01*
X104756394Y-93501853D01*
X104468930Y-93589054D01*
X104204002Y-93730661D01*
X103971791Y-93921232D01*
X103924038Y-93979419D01*
X101502672Y-96400787D01*
X86969257Y-96400787D01*
X86894346Y-96393409D01*
X86819435Y-96400787D01*
X86595394Y-96422853D01*
X86307930Y-96510054D01*
X86043002Y-96651661D01*
X85810791Y-96842232D01*
X85763033Y-96900425D01*
X85106988Y-97556471D01*
X85048791Y-97604232D01*
X84858220Y-97836444D01*
X84762710Y-98015131D01*
X84716613Y-98101372D01*
X84629412Y-98388835D01*
X84599968Y-98687787D01*
X84607346Y-98762698D01*
X84607346Y-98826547D01*
X84333625Y-98671114D01*
X83994035Y-98558542D01*
X83902504Y-98540336D01*
X83617346Y-98757735D01*
X83617346Y-100313787D01*
X83637346Y-100313787D01*
X83637346Y-100363787D01*
X83617346Y-100363787D01*
X83617346Y-101919839D01*
X83902504Y-102137238D01*
X83994035Y-102119032D01*
X84333625Y-102006460D01*
X84644728Y-101829800D01*
X84820109Y-101678200D01*
X84937103Y-101795194D01*
X85244201Y-102000390D01*
X85585429Y-102141731D01*
X85947675Y-102213787D01*
X86317017Y-102213787D01*
X86679263Y-102141731D01*
X87020491Y-102000390D01*
X87327589Y-101795194D01*
X87402346Y-101720437D01*
X87477103Y-101795194D01*
X87784201Y-102000390D01*
X88125429Y-102141731D01*
X88487675Y-102213787D01*
X88857017Y-102213787D01*
X89219263Y-102141731D01*
X89560491Y-102000390D01*
X89867589Y-101795194D01*
X89942346Y-101720437D01*
X90017103Y-101795194D01*
X90324201Y-102000390D01*
X90665429Y-102141731D01*
X91027675Y-102213787D01*
X91397017Y-102213787D01*
X91759263Y-102141731D01*
X92100491Y-102000390D01*
X92407589Y-101795194D01*
X92482346Y-101720437D01*
X92557103Y-101795194D01*
X92864201Y-102000390D01*
X93205429Y-102141731D01*
X93567675Y-102213787D01*
X93937017Y-102213787D01*
X94299263Y-102141731D01*
X94640491Y-102000390D01*
X94947589Y-101795194D01*
X95022346Y-101720437D01*
X95097103Y-101795194D01*
X95404201Y-102000390D01*
X95745429Y-102141731D01*
X96107675Y-102213787D01*
X96477017Y-102213787D01*
X96839263Y-102141731D01*
X97180491Y-102000390D01*
X97487589Y-101795194D01*
X97562346Y-101720437D01*
X97637103Y-101795194D01*
X97944201Y-102000390D01*
X98285429Y-102141731D01*
X98647675Y-102213787D01*
X99017017Y-102213787D01*
X99379263Y-102141731D01*
X99720491Y-102000390D01*
X100027589Y-101795194D01*
X100102346Y-101720437D01*
X100177103Y-101795194D01*
X100484201Y-102000390D01*
X100825429Y-102141731D01*
X101187675Y-102213787D01*
X101557017Y-102213787D01*
X101919263Y-102141731D01*
X102260491Y-102000390D01*
X102567589Y-101795194D01*
X102642346Y-101720437D01*
X102717103Y-101795194D01*
X103024201Y-102000390D01*
X103365429Y-102141731D01*
X103727675Y-102213787D01*
X104097017Y-102213787D01*
X104459263Y-102141731D01*
X104800491Y-102000390D01*
X105107589Y-101795194D01*
X105182346Y-101720437D01*
X105257103Y-101795194D01*
X105564201Y-102000390D01*
X105905429Y-102141731D01*
X106267675Y-102213787D01*
X106637017Y-102213787D01*
X106999263Y-102141731D01*
X107340491Y-102000390D01*
X107647589Y-101795194D01*
X107722346Y-101720437D01*
X107797103Y-101795194D01*
X108104201Y-102000390D01*
X108445429Y-102141731D01*
X108807675Y-102213787D01*
X109177017Y-102213787D01*
X109539263Y-102141731D01*
X109880491Y-102000390D01*
X109976997Y-101935907D01*
X110110131Y-102045167D01*
X110288198Y-102140345D01*
X110481411Y-102198956D01*
X110682346Y-102218746D01*
X112382346Y-102218746D01*
X112583281Y-102198956D01*
X112776494Y-102140345D01*
X112954561Y-102045167D01*
X113110637Y-101917078D01*
X113154372Y-101863787D01*
X123395435Y-101863787D01*
X123470346Y-101871165D01*
X123769298Y-101841721D01*
X123922677Y-101795194D01*
X124056762Y-101754520D01*
X124321690Y-101612913D01*
X124553901Y-101422342D01*
X124601662Y-101364145D01*
X125765710Y-100200098D01*
X125823901Y-100152342D01*
X126014472Y-99920131D01*
X126156079Y-99655203D01*
X126243280Y-99367739D01*
X126259810Y-99199912D01*
X126272724Y-99068788D01*
X126265346Y-98993877D01*
X126265346Y-98166376D01*
X126310117Y-98099371D01*
X128623000Y-100412255D01*
X128623000Y-100955750D01*
X128430706Y-101243539D01*
X128293134Y-101575667D01*
X128223000Y-101928253D01*
X128223000Y-102287747D01*
X128293134Y-102640333D01*
X128430706Y-102972461D01*
X128630430Y-103271369D01*
X128884631Y-103525570D01*
X129183539Y-103725294D01*
X129515667Y-103862866D01*
X129868253Y-103933000D01*
X130227747Y-103933000D01*
X130580333Y-103862866D01*
X130652436Y-103833000D01*
X136042190Y-103833000D01*
X136000327Y-103906721D01*
X135887755Y-104246311D01*
X135869549Y-104337842D01*
X136086948Y-104623000D01*
X137643000Y-104623000D01*
X137643000Y-104603000D01*
X137693000Y-104603000D01*
X137693000Y-104623000D01*
X139249052Y-104623000D01*
X139466451Y-104337842D01*
X139448245Y-104246311D01*
X139335673Y-103906721D01*
X139159013Y-103595618D01*
X139007413Y-103420237D01*
X139124407Y-103303243D01*
X139329603Y-102996145D01*
X139470944Y-102654917D01*
X139543000Y-102292671D01*
X139543000Y-101923329D01*
X139470944Y-101561083D01*
X139329603Y-101219855D01*
X139265120Y-101123349D01*
X139374380Y-100990215D01*
X139469558Y-100812148D01*
X139528169Y-100618935D01*
X139547959Y-100418000D01*
X139547959Y-98718000D01*
X139528169Y-98517065D01*
X139469558Y-98323852D01*
X139374380Y-98145785D01*
X139246291Y-97989709D01*
X139090215Y-97861620D01*
X138912148Y-97766442D01*
X138718935Y-97707831D01*
X138518000Y-97688041D01*
X136818000Y-97688041D01*
X136617065Y-97707831D01*
X136423852Y-97766442D01*
X136280621Y-97843000D01*
X133827436Y-97843000D01*
X133755333Y-97813134D01*
X133415863Y-97745609D01*
X126668915Y-90998662D01*
X126624289Y-90944285D01*
X126407305Y-90766211D01*
X126194471Y-90652448D01*
X126357640Y-90408248D01*
X126495212Y-90076120D01*
X126565346Y-89723534D01*
X126565346Y-89364040D01*
X126495212Y-89011454D01*
X126357640Y-88679326D01*
X126265346Y-88541198D01*
X126265346Y-84429245D01*
X126272723Y-84354345D01*
X126265346Y-84279445D01*
X126265346Y-84279435D01*
X126243280Y-84055394D01*
X126156079Y-83767930D01*
X126014472Y-83503002D01*
X125823901Y-83270791D01*
X125765715Y-83223040D01*
X108522264Y-65979590D01*
X108474502Y-65921392D01*
X108242291Y-65730821D01*
X107977363Y-65589214D01*
X107689899Y-65502013D01*
X107529533Y-65486218D01*
X107719168Y-65202410D01*
X107856740Y-64870282D01*
X107926874Y-64517696D01*
X107926874Y-64158202D01*
X107856740Y-63805616D01*
X107719168Y-63473488D01*
X107519444Y-63174580D01*
X107265243Y-62920379D01*
X106966335Y-62720655D01*
X106634207Y-62583083D01*
X106281621Y-62512949D01*
X105922127Y-62512949D01*
X105569541Y-62583083D01*
X105497436Y-62612950D01*
X90704308Y-62612947D01*
X90632207Y-62583082D01*
X90508805Y-62558536D01*
X93799722Y-59267619D01*
X93865536Y-59213607D01*
X93919548Y-59147793D01*
X93919553Y-59147788D01*
X94081099Y-58950943D01*
X94241278Y-58651270D01*
X94339915Y-58326107D01*
X94373221Y-57987947D01*
X94364875Y-57903209D01*
X94364874Y-55234848D01*
X94632956Y-55345891D01*
X94995202Y-55417947D01*
X95364544Y-55417947D01*
X95726790Y-55345891D01*
X96068018Y-55204550D01*
X96375116Y-54999354D01*
X96449873Y-54924597D01*
X96524630Y-54999354D01*
X96831728Y-55204550D01*
X97172956Y-55345891D01*
X97535202Y-55417947D01*
X97904544Y-55417947D01*
X98266790Y-55345891D01*
X98608018Y-55204550D01*
X98915116Y-54999354D01*
X98989873Y-54924597D01*
X99064630Y-54999354D01*
X99371728Y-55204550D01*
X99712956Y-55345891D01*
X100075202Y-55417947D01*
X100444544Y-55417947D01*
X100806790Y-55345891D01*
X101148018Y-55204550D01*
X101415081Y-55026105D01*
X101669400Y-55234820D01*
X102021190Y-55422855D01*
X102402904Y-55538647D01*
X102799873Y-55577745D01*
X103196841Y-55538647D01*
X103578555Y-55422855D01*
X103930346Y-55234820D01*
X104238692Y-54981766D01*
X104491746Y-54673420D01*
X104679781Y-54321630D01*
X104795573Y-53939916D01*
X104824873Y-53642428D01*
X104824873Y-51760000D01*
X141190000Y-51760000D01*
X141190001Y-108270483D01*
G37*
X141190001Y-108270483D02*
X139407547Y-106488029D01*
X139329603Y-106299855D01*
X139124407Y-105992757D01*
X139007413Y-105875763D01*
X139159013Y-105700382D01*
X139335673Y-105389279D01*
X139448245Y-105049689D01*
X139466451Y-104958158D01*
X139249052Y-104673000D01*
X137693000Y-104673000D01*
X137693000Y-104693000D01*
X137643000Y-104693000D01*
X137643000Y-104673000D01*
X136086948Y-104673000D01*
X135869549Y-104958158D01*
X135887755Y-105049689D01*
X136000327Y-105389279D01*
X136176987Y-105700382D01*
X136328587Y-105875763D01*
X136211593Y-105992757D01*
X136006397Y-106299855D01*
X135865056Y-106641083D01*
X135793000Y-107003329D01*
X135793000Y-107372671D01*
X135865056Y-107734917D01*
X136006397Y-108076145D01*
X136211593Y-108383243D01*
X136472757Y-108644407D01*
X136779855Y-108849603D01*
X136968029Y-108927547D01*
X139245001Y-111204519D01*
X139245000Y-125783000D01*
X129133810Y-125783000D01*
X129175673Y-125709279D01*
X129288245Y-125369689D01*
X129306451Y-125278158D01*
X129089052Y-124993000D01*
X127533000Y-124993000D01*
X127533000Y-125013000D01*
X127483000Y-125013000D01*
X127483000Y-124993000D01*
X125926948Y-124993000D01*
X125709549Y-125278158D01*
X125727755Y-125369689D01*
X125840327Y-125709279D01*
X126016987Y-126020382D01*
X126168587Y-126195763D01*
X126051593Y-126312757D01*
X125846397Y-126619855D01*
X125705056Y-126961083D01*
X125633000Y-127323329D01*
X125633000Y-127692671D01*
X125705056Y-128054917D01*
X125846397Y-128396145D01*
X126051593Y-128703243D01*
X126312757Y-128964407D01*
X126619855Y-129169603D01*
X126961083Y-129310944D01*
X127323329Y-129383000D01*
X127692671Y-129383000D01*
X128054917Y-129310944D01*
X128243091Y-129233000D01*
X139245001Y-129233000D01*
X139245000Y-138628650D01*
X139090215Y-138501620D01*
X138912148Y-138406442D01*
X138718935Y-138347831D01*
X138518000Y-138328041D01*
X136818000Y-138328041D01*
X136617065Y-138347831D01*
X136423852Y-138406442D01*
X136280621Y-138483000D01*
X133937519Y-138483000D01*
X124788000Y-129333482D01*
X124788000Y-128112436D01*
X124817866Y-128040333D01*
X124888000Y-127687747D01*
X124888000Y-127328253D01*
X124817866Y-126975667D01*
X124680294Y-126643539D01*
X124480570Y-126344631D01*
X124226369Y-126090430D01*
X123927461Y-125890706D01*
X123595333Y-125753134D01*
X123242747Y-125683000D01*
X122883253Y-125683000D01*
X122530667Y-125753134D01*
X122198539Y-125890706D01*
X121899631Y-126090430D01*
X121645430Y-126344631D01*
X121445706Y-126643539D01*
X121308134Y-126975667D01*
X121238000Y-127328253D01*
X121238000Y-127687747D01*
X121308134Y-128040333D01*
X121338000Y-128112436D01*
X121338001Y-128933167D01*
X121305570Y-128884631D01*
X121051369Y-128630430D01*
X120752461Y-128430706D01*
X120420333Y-128293134D01*
X120067747Y-128223000D01*
X119708253Y-128223000D01*
X119355667Y-128293134D01*
X119023539Y-128430706D01*
X118724631Y-128630430D01*
X118470430Y-128884631D01*
X118270706Y-129183539D01*
X118133134Y-129515667D01*
X118063000Y-129868253D01*
X118063000Y-130227747D01*
X118133134Y-130580333D01*
X118270706Y-130912461D01*
X118470430Y-131211369D01*
X118724631Y-131465570D01*
X119023539Y-131665294D01*
X119095642Y-131695160D01*
X128243002Y-140842520D01*
X128243001Y-142143564D01*
X128213135Y-142215667D01*
X128143001Y-142568253D01*
X128143001Y-142927747D01*
X128213135Y-143280333D01*
X128350707Y-143612461D01*
X128550431Y-143911369D01*
X128804632Y-144165570D01*
X129103540Y-144365294D01*
X129435668Y-144502866D01*
X129788254Y-144573000D01*
X130147748Y-144573000D01*
X130500334Y-144502866D01*
X130572437Y-144473000D01*
X136042190Y-144473000D01*
X136000327Y-144546721D01*
X135887755Y-144886311D01*
X135869549Y-144977842D01*
X136086948Y-145263000D01*
X137643000Y-145263000D01*
X137643000Y-145243000D01*
X137693000Y-145243000D01*
X137693000Y-145263000D01*
X137713000Y-145263000D01*
X137713000Y-145313000D01*
X137693000Y-145313000D01*
X137693000Y-145333000D01*
X137643000Y-145333000D01*
X137643000Y-145313000D01*
X136086948Y-145313000D01*
X135869549Y-145598158D01*
X135887755Y-145689689D01*
X136000327Y-146029279D01*
X136176987Y-146340382D01*
X136328587Y-146515763D01*
X136211593Y-146632757D01*
X136006397Y-146939855D01*
X135865056Y-147281083D01*
X135793000Y-147643329D01*
X135793000Y-148012671D01*
X135865056Y-148374917D01*
X136006397Y-148716145D01*
X136211593Y-149023243D01*
X136472757Y-149284407D01*
X136779855Y-149489603D01*
X137121083Y-149630944D01*
X137483329Y-149703000D01*
X137852671Y-149703000D01*
X138214917Y-149630944D01*
X138403091Y-149553000D01*
X139245001Y-149553000D01*
X139245000Y-162105000D01*
X126547351Y-162105000D01*
X126674380Y-161950215D01*
X126769558Y-161772148D01*
X126828169Y-161578935D01*
X126847959Y-161378000D01*
X126847959Y-159678000D01*
X126828169Y-159477065D01*
X126769558Y-159283852D01*
X126693000Y-159140621D01*
X126693000Y-157808000D01*
X127550262Y-157808000D01*
X127635000Y-157816346D01*
X127973159Y-157783040D01*
X128298323Y-157684403D01*
X128597995Y-157524225D01*
X128860661Y-157308661D01*
X128914682Y-157242836D01*
X134382837Y-151774681D01*
X134448661Y-151720661D01*
X134664225Y-151457995D01*
X134824403Y-151158323D01*
X134923040Y-150833159D01*
X134948000Y-150579738D01*
X134948000Y-150579736D01*
X134956346Y-150495001D01*
X134948000Y-150410266D01*
X134948000Y-148432436D01*
X134977866Y-148360333D01*
X135048000Y-148007747D01*
X135048000Y-147648253D01*
X134977866Y-147295667D01*
X134840294Y-146963539D01*
X134640570Y-146664631D01*
X134386369Y-146410430D01*
X134087461Y-146210706D01*
X133755333Y-146073134D01*
X133402747Y-146003000D01*
X133043253Y-146003000D01*
X132690667Y-146073134D01*
X132358539Y-146210706D01*
X132059631Y-146410430D01*
X131805430Y-146664631D01*
X131605706Y-146963539D01*
X131468134Y-147295667D01*
X131398000Y-147648253D01*
X131398000Y-148007747D01*
X131468134Y-148360333D01*
X131498001Y-148432438D01*
X131498000Y-149372893D01*
X131385571Y-149204631D01*
X131131370Y-148950430D01*
X130832462Y-148750706D01*
X130500334Y-148613134D01*
X130147748Y-148543000D01*
X129788254Y-148543000D01*
X129435668Y-148613134D01*
X129103540Y-148750706D01*
X128804632Y-148950430D01*
X128550431Y-149204631D01*
X128350707Y-149503539D01*
X128320841Y-149575642D01*
X126713483Y-151183000D01*
X123032436Y-151183000D01*
X122960333Y-151153134D01*
X122607747Y-151083000D01*
X122248253Y-151083000D01*
X121895667Y-151153134D01*
X121563539Y-151290706D01*
X121264631Y-151490430D01*
X121010430Y-151744631D01*
X120810706Y-152043539D01*
X120673134Y-152375667D01*
X120603000Y-152728253D01*
X120603000Y-153087747D01*
X120673134Y-153440333D01*
X120703000Y-153512436D01*
X120703001Y-158902190D01*
X120629279Y-158860327D01*
X120289689Y-158747755D01*
X120198158Y-158729549D01*
X119913000Y-158946948D01*
X119913000Y-160503000D01*
X119933000Y-160503000D01*
X119933000Y-160553000D01*
X119913000Y-160553000D01*
X119913000Y-160573000D01*
X119863000Y-160573000D01*
X119863000Y-160553000D01*
X119843000Y-160553000D01*
X119843000Y-160503000D01*
X119863000Y-160503000D01*
X119863000Y-158946948D01*
X119577842Y-158729549D01*
X119486311Y-158747755D01*
X119146721Y-158860327D01*
X118835618Y-159036987D01*
X118660237Y-159188587D01*
X118543243Y-159071593D01*
X118236145Y-158866397D01*
X117894917Y-158725056D01*
X117532671Y-158653000D01*
X117163329Y-158653000D01*
X116801083Y-158725056D01*
X116459855Y-158866397D01*
X116152757Y-159071593D01*
X115891593Y-159332757D01*
X115686397Y-159639855D01*
X115545056Y-159981083D01*
X115473000Y-160343329D01*
X115473000Y-160712671D01*
X115545056Y-161074917D01*
X115623000Y-161263091D01*
X115623001Y-162105000D01*
X88847000Y-162105000D01*
X88847000Y-160988518D01*
X97727972Y-152107546D01*
X97916145Y-152029603D01*
X98223243Y-151824407D01*
X98340237Y-151707413D01*
X98515618Y-151859013D01*
X98826721Y-152035673D01*
X99166311Y-152148245D01*
X99257842Y-152166451D01*
X99543000Y-151949052D01*
X99543000Y-150393000D01*
X99523000Y-150393000D01*
X99523000Y-150343000D01*
X99543000Y-150343000D01*
X99543000Y-148786948D01*
X99593000Y-148786948D01*
X99593000Y-150343000D01*
X99613000Y-150343000D01*
X99613000Y-150393000D01*
X99593000Y-150393000D01*
X99593000Y-151949052D01*
X99878158Y-152166451D01*
X99969689Y-152148245D01*
X100309279Y-152035673D01*
X100620382Y-151859013D01*
X100795763Y-151707413D01*
X100912757Y-151824407D01*
X101219855Y-152029603D01*
X101561083Y-152170944D01*
X101923329Y-152243000D01*
X102292671Y-152243000D01*
X102654917Y-152170944D01*
X102996145Y-152029603D01*
X103092651Y-151965120D01*
X103225785Y-152074380D01*
X103403852Y-152169558D01*
X103597065Y-152228169D01*
X103798000Y-152247959D01*
X105498000Y-152247959D01*
X105698935Y-152228169D01*
X105892148Y-152169558D01*
X106035379Y-152093000D01*
X108124482Y-152093000D01*
X113274322Y-157242841D01*
X113328339Y-157308661D01*
X113591005Y-157524225D01*
X113890677Y-157684403D01*
X114215840Y-157783040D01*
X114554000Y-157816346D01*
X114638738Y-157808000D01*
X116743564Y-157808000D01*
X116815667Y-157837866D01*
X117168253Y-157908000D01*
X117527747Y-157908000D01*
X117880333Y-157837866D01*
X118212461Y-157700294D01*
X118511369Y-157500570D01*
X118765570Y-157246369D01*
X118965294Y-156947461D01*
X119102866Y-156615333D01*
X119173000Y-156262747D01*
X119173000Y-155903253D01*
X119102866Y-155550667D01*
X118965294Y-155218539D01*
X118765570Y-154919631D01*
X118511369Y-154665430D01*
X118212461Y-154465706D01*
X117880333Y-154328134D01*
X117527747Y-154258000D01*
X117168253Y-154258000D01*
X116815667Y-154328134D01*
X116743564Y-154358000D01*
X115922834Y-154358000D01*
X115971369Y-154325570D01*
X116225570Y-154071369D01*
X116425294Y-153772461D01*
X116562866Y-153440333D01*
X116633000Y-153087747D01*
X116633000Y-152728253D01*
X116562866Y-152375667D01*
X116533000Y-152303564D01*
X116533000Y-151861368D01*
X116541346Y-151776630D01*
X116508040Y-151438470D01*
X116409403Y-151113307D01*
X116308304Y-150924164D01*
X116249225Y-150813635D01*
X116033661Y-150550969D01*
X115967841Y-150496952D01*
X107059052Y-141588164D01*
X107005031Y-141522339D01*
X106742365Y-141306775D01*
X106442693Y-141146597D01*
X106117529Y-141047960D01*
X105864108Y-141023000D01*
X105779370Y-141014654D01*
X105694632Y-141023000D01*
X102712436Y-141023000D01*
X102640333Y-140993134D01*
X102287747Y-140923000D01*
X101928253Y-140923000D01*
X101575667Y-140993134D01*
X101243539Y-141130706D01*
X100944631Y-141330430D01*
X100690430Y-141584631D01*
X100490706Y-141883539D01*
X100353134Y-142215667D01*
X100283000Y-142568253D01*
X100283000Y-142927747D01*
X100353134Y-143280333D01*
X100383000Y-143352436D01*
X100383001Y-148742190D01*
X100309279Y-148700327D01*
X99969689Y-148587755D01*
X99878158Y-148569549D01*
X99593000Y-148786948D01*
X99543000Y-148786948D01*
X99257842Y-148569549D01*
X99166311Y-148587755D01*
X98826721Y-148700327D01*
X98515618Y-148876987D01*
X98340237Y-149028587D01*
X98223243Y-148911593D01*
X97916145Y-148706397D01*
X97574917Y-148565056D01*
X97212671Y-148493000D01*
X96897519Y-148493000D01*
X97820360Y-147570159D01*
X97892461Y-147540294D01*
X98191369Y-147340570D01*
X98445570Y-147086369D01*
X98645294Y-146787461D01*
X98782866Y-146455333D01*
X98853000Y-146102747D01*
X98853000Y-145743253D01*
X98782866Y-145390667D01*
X98645294Y-145058539D01*
X98445570Y-144759631D01*
X98191369Y-144505430D01*
X97892461Y-144305706D01*
X97560333Y-144168134D01*
X97207747Y-144098000D01*
X96848253Y-144098000D01*
X96495667Y-144168134D01*
X96163539Y-144305706D01*
X95864631Y-144505430D01*
X95610430Y-144759631D01*
X95410706Y-145058539D01*
X95380841Y-145130640D01*
X86153482Y-154358000D01*
X85274578Y-154358000D01*
X85290995Y-154349225D01*
X85553661Y-154133661D01*
X85607682Y-154067836D01*
X95280360Y-144395159D01*
X95352461Y-144365294D01*
X95651369Y-144165570D01*
X95905570Y-143911369D01*
X96105294Y-143612461D01*
X96242866Y-143280333D01*
X96313000Y-142927747D01*
X96313000Y-142568253D01*
X96242866Y-142215667D01*
X96105294Y-141883539D01*
X95905570Y-141584631D01*
X95651369Y-141330430D01*
X95352461Y-141130706D01*
X95020333Y-140993134D01*
X94667747Y-140923000D01*
X94308253Y-140923000D01*
X93955667Y-140993134D01*
X93623539Y-141130706D01*
X93324631Y-141330430D01*
X93070430Y-141584631D01*
X92870706Y-141883539D01*
X92840841Y-141955640D01*
X83613482Y-151183000D01*
X82392436Y-151183000D01*
X82320333Y-151153134D01*
X81967747Y-151083000D01*
X81608253Y-151083000D01*
X81255667Y-151153134D01*
X80923539Y-151290706D01*
X80624631Y-151490430D01*
X80370430Y-151744631D01*
X80170706Y-152043539D01*
X80033134Y-152375667D01*
X79963000Y-152728253D01*
X79963000Y-153087747D01*
X80033134Y-153440333D01*
X80063000Y-153512436D01*
X80063001Y-158902190D01*
X79989279Y-158860327D01*
X79649689Y-158747755D01*
X79558158Y-158729549D01*
X79273000Y-158946948D01*
X79273000Y-160503000D01*
X79293000Y-160503000D01*
X79293000Y-160553000D01*
X79273000Y-160553000D01*
X79273000Y-160573000D01*
X79223000Y-160573000D01*
X79223000Y-160553000D01*
X79203000Y-160553000D01*
X79203000Y-160503000D01*
X79223000Y-160503000D01*
X79223000Y-158946948D01*
X78937842Y-158729549D01*
X78846311Y-158747755D01*
X78506721Y-158860327D01*
X78195618Y-159036987D01*
X78020237Y-159188587D01*
X77903243Y-159071593D01*
X77596145Y-158866397D01*
X77254917Y-158725056D01*
X76892671Y-158653000D01*
X76523329Y-158653000D01*
X76161083Y-158725056D01*
X75819855Y-158866397D01*
X75512757Y-159071593D01*
X75251593Y-159332757D01*
X75046397Y-159639855D01*
X74905056Y-159981083D01*
X74833000Y-160343329D01*
X74833000Y-160712671D01*
X74905056Y-161074917D01*
X74983000Y-161263091D01*
X74983001Y-162105000D01*
X61161000Y-162105000D01*
X61161000Y-146978000D01*
X62128041Y-146978000D01*
X62128041Y-148678000D01*
X62147831Y-148878935D01*
X62206442Y-149072148D01*
X62301620Y-149250215D01*
X62429709Y-149406291D01*
X62585785Y-149534380D01*
X62763852Y-149629558D01*
X62957065Y-149688169D01*
X63158000Y-149707959D01*
X64858000Y-149707959D01*
X65058935Y-149688169D01*
X65252148Y-149629558D01*
X65395379Y-149553000D01*
X67363001Y-149553000D01*
X67363001Y-151172253D01*
X67354654Y-151257000D01*
X67387960Y-151595159D01*
X67486597Y-151920322D01*
X67632347Y-152193000D01*
X67646776Y-152219995D01*
X67862340Y-152482661D01*
X67928160Y-152536678D01*
X72634322Y-157242841D01*
X72688339Y-157308661D01*
X72951005Y-157524225D01*
X73250677Y-157684403D01*
X73575840Y-157783040D01*
X73914000Y-157816346D01*
X73998738Y-157808000D01*
X76103564Y-157808000D01*
X76175667Y-157837866D01*
X76528253Y-157908000D01*
X76887747Y-157908000D01*
X77240333Y-157837866D01*
X77572461Y-157700294D01*
X77871369Y-157500570D01*
X78125570Y-157246369D01*
X78325294Y-156947461D01*
X78462866Y-156615333D01*
X78533000Y-156262747D01*
X78533000Y-155903253D01*
X78462866Y-155550667D01*
X78325294Y-155218539D01*
X78125570Y-154919631D01*
X77871369Y-154665430D01*
X77572461Y-154465706D01*
X77240333Y-154328134D01*
X76887747Y-154258000D01*
X76528253Y-154258000D01*
X76175667Y-154328134D01*
X76103564Y-154358000D01*
X75282834Y-154358000D01*
X75331369Y-154325570D01*
X75585570Y-154071369D01*
X75785294Y-153772461D01*
X75922866Y-153440333D01*
X75993000Y-153087747D01*
X75993000Y-152728253D01*
X75922866Y-152375667D01*
X75785294Y-152043539D01*
X75585570Y-151744631D01*
X75331369Y-151490430D01*
X75032461Y-151290706D01*
X74960359Y-151260840D01*
X73988000Y-150288482D01*
X73988000Y-145892436D01*
X74017866Y-145820333D01*
X74088000Y-145467747D01*
X74088000Y-145108253D01*
X74017866Y-144755667D01*
X73880294Y-144423539D01*
X73680570Y-144124631D01*
X73426369Y-143870430D01*
X73127461Y-143670706D01*
X72795333Y-143533134D01*
X72442747Y-143463000D01*
X72083253Y-143463000D01*
X71730667Y-143533134D01*
X71658564Y-143563000D01*
X65633810Y-143563000D01*
X65675673Y-143489279D01*
X65788245Y-143149689D01*
X65806451Y-143058158D01*
X65589052Y-142773000D01*
X64033000Y-142773000D01*
X64033000Y-142793000D01*
X63983000Y-142793000D01*
X63983000Y-142773000D01*
X62426948Y-142773000D01*
X62209549Y-143058158D01*
X62227755Y-143149689D01*
X62340327Y-143489279D01*
X62516987Y-143800382D01*
X62668587Y-143975763D01*
X62551593Y-144092757D01*
X62346397Y-144399855D01*
X62205056Y-144741083D01*
X62133000Y-145103329D01*
X62133000Y-145472671D01*
X62205056Y-145834917D01*
X62346397Y-146176145D01*
X62410880Y-146272651D01*
X62301620Y-146405785D01*
X62206442Y-146583852D01*
X62147831Y-146777065D01*
X62128041Y-146978000D01*
X61161000Y-146978000D01*
X61161000Y-141933000D01*
X62382190Y-141933000D01*
X62340327Y-142006721D01*
X62227755Y-142346311D01*
X62209549Y-142437842D01*
X62426948Y-142723000D01*
X63983000Y-142723000D01*
X63983000Y-142703000D01*
X64033000Y-142703000D01*
X64033000Y-142723000D01*
X65589052Y-142723000D01*
X65806451Y-142437842D01*
X65788245Y-142346311D01*
X65675673Y-142006721D01*
X65499013Y-141695618D01*
X65347413Y-141520237D01*
X65464407Y-141403243D01*
X65669603Y-141096145D01*
X65810944Y-140754917D01*
X65883000Y-140392671D01*
X65883000Y-140028253D01*
X67263000Y-140028253D01*
X67263000Y-140387747D01*
X67333134Y-140740333D01*
X67470706Y-141072461D01*
X67670430Y-141371369D01*
X67924631Y-141625570D01*
X68223539Y-141825294D01*
X68555667Y-141962866D01*
X68908253Y-142033000D01*
X69267747Y-142033000D01*
X69620333Y-141962866D01*
X69952461Y-141825294D01*
X70251369Y-141625570D01*
X70505570Y-141371369D01*
X70705294Y-141072461D01*
X70842866Y-140740333D01*
X70913000Y-140387747D01*
X70913000Y-140028253D01*
X70842866Y-139675667D01*
X70813000Y-139603564D01*
X70813000Y-138782834D01*
X70845430Y-138831369D01*
X71099631Y-139085570D01*
X71398539Y-139285294D01*
X71730667Y-139422866D01*
X72083253Y-139493000D01*
X72442747Y-139493000D01*
X72795333Y-139422866D01*
X72867436Y-139393000D01*
X73309632Y-139393000D01*
X73394370Y-139401346D01*
X73732529Y-139368040D01*
X74057693Y-139269403D01*
X74357365Y-139109225D01*
X74620031Y-138893661D01*
X74674052Y-138827836D01*
X83662841Y-129839048D01*
X83728660Y-129785032D01*
X83944224Y-129522366D01*
X84104402Y-129222694D01*
X84110728Y-129201841D01*
X84203039Y-128897531D01*
X84236345Y-128559371D01*
X84227999Y-128474633D01*
X84227999Y-125572436D01*
X84257865Y-125500333D01*
X84327999Y-125147747D01*
X84327999Y-124788253D01*
X84257865Y-124435667D01*
X84120293Y-124103539D01*
X83920569Y-123804631D01*
X83666368Y-123550430D01*
X83367460Y-123350706D01*
X83035332Y-123213134D01*
X82682746Y-123143000D01*
X82323252Y-123143000D01*
X81970666Y-123213134D01*
X81898563Y-123243000D01*
X75793810Y-123243000D01*
X75835673Y-123169279D01*
X75948245Y-122829689D01*
X75966451Y-122738158D01*
X75749052Y-122453000D01*
X74193000Y-122453000D01*
X74193000Y-122473000D01*
X74143000Y-122473000D01*
X74143000Y-122453000D01*
X72586948Y-122453000D01*
X72369549Y-122738158D01*
X72387755Y-122829689D01*
X72500327Y-123169279D01*
X72676987Y-123480382D01*
X72828587Y-123655763D01*
X72711593Y-123772757D01*
X72506397Y-124079855D01*
X72365056Y-124421083D01*
X72293000Y-124783329D01*
X72293000Y-125152671D01*
X72365056Y-125514917D01*
X72506397Y-125856145D01*
X72570880Y-125952651D01*
X72461620Y-126085785D01*
X72366442Y-126263852D01*
X72307831Y-126457065D01*
X72288041Y-126658000D01*
X72288041Y-128358000D01*
X72307831Y-128558935D01*
X72366442Y-128752148D01*
X72443001Y-128895380D01*
X72443000Y-130603481D01*
X67928160Y-135118322D01*
X67862340Y-135172339D01*
X67808323Y-135238159D01*
X67808322Y-135238160D01*
X67646776Y-135435005D01*
X67486597Y-135734678D01*
X67387960Y-136059841D01*
X67354654Y-136398000D01*
X67363001Y-136482747D01*
X67363000Y-139603564D01*
X67333134Y-139675667D01*
X67263000Y-140028253D01*
X65883000Y-140028253D01*
X65883000Y-140023329D01*
X65810944Y-139661083D01*
X65669603Y-139319855D01*
X65464407Y-139012757D01*
X65203243Y-138751593D01*
X64896145Y-138546397D01*
X64554917Y-138405056D01*
X64192671Y-138333000D01*
X63823329Y-138333000D01*
X63461083Y-138405056D01*
X63272909Y-138483000D01*
X61161000Y-138483000D01*
X61161000Y-111707000D01*
X63547482Y-111707000D01*
X72428454Y-120587972D01*
X72506397Y-120776145D01*
X72711593Y-121083243D01*
X72828587Y-121200237D01*
X72676987Y-121375618D01*
X72500327Y-121686721D01*
X72387755Y-122026311D01*
X72369549Y-122117842D01*
X72586948Y-122403000D01*
X74143000Y-122403000D01*
X74143000Y-122383000D01*
X74193000Y-122383000D01*
X74193000Y-122403000D01*
X75749052Y-122403000D01*
X75867028Y-122248253D01*
X118063000Y-122248253D01*
X118063000Y-122607747D01*
X118133134Y-122960333D01*
X118270706Y-123292461D01*
X118470430Y-123591369D01*
X118724631Y-123845570D01*
X119023539Y-124045294D01*
X119355667Y-124182866D01*
X119708253Y-124253000D01*
X120067747Y-124253000D01*
X120420333Y-124182866D01*
X120492436Y-124153000D01*
X125882190Y-124153000D01*
X125840327Y-124226721D01*
X125727755Y-124566311D01*
X125709549Y-124657842D01*
X125926948Y-124943000D01*
X127483000Y-124943000D01*
X127483000Y-124923000D01*
X127533000Y-124923000D01*
X127533000Y-124943000D01*
X129089052Y-124943000D01*
X129306451Y-124657842D01*
X129288245Y-124566311D01*
X129175673Y-124226721D01*
X128999013Y-123915618D01*
X128847413Y-123740237D01*
X128964407Y-123623243D01*
X129169603Y-123316145D01*
X129310944Y-122974917D01*
X129383000Y-122612671D01*
X129383000Y-122243329D01*
X129310944Y-121881083D01*
X129169603Y-121539855D01*
X129105120Y-121443349D01*
X129214380Y-121310215D01*
X129309558Y-121132148D01*
X129368169Y-120938935D01*
X129387959Y-120738000D01*
X129387959Y-119038000D01*
X129368169Y-118837065D01*
X129309558Y-118643852D01*
X129233000Y-118500621D01*
X129233000Y-118352518D01*
X134382842Y-113202677D01*
X134448661Y-113148661D01*
X134664225Y-112885995D01*
X134824403Y-112586323D01*
X134923040Y-112261159D01*
X134948000Y-112007738D01*
X134948000Y-112007737D01*
X134956346Y-111923000D01*
X134948000Y-111838262D01*
X134948000Y-107792436D01*
X134977866Y-107720333D01*
X135048000Y-107367747D01*
X135048000Y-107008253D01*
X134977866Y-106655667D01*
X134840294Y-106323539D01*
X134640570Y-106024631D01*
X134386369Y-105770430D01*
X134087461Y-105570706D01*
X133755333Y-105433134D01*
X133402747Y-105363000D01*
X133043253Y-105363000D01*
X132690667Y-105433134D01*
X132358539Y-105570706D01*
X132059631Y-105770430D01*
X131805430Y-106024631D01*
X131605706Y-106323539D01*
X131468134Y-106655667D01*
X131398000Y-107008253D01*
X131398000Y-107367747D01*
X131468134Y-107720333D01*
X131498000Y-107792436D01*
X131498000Y-108404107D01*
X131498001Y-108404117D01*
X131498001Y-108613167D01*
X131465570Y-108564631D01*
X131211369Y-108310430D01*
X130912461Y-108110706D01*
X130580333Y-107973134D01*
X130227747Y-107903000D01*
X129868253Y-107903000D01*
X129515667Y-107973134D01*
X129183539Y-108110706D01*
X128884631Y-108310430D01*
X128630430Y-108564631D01*
X128430706Y-108863539D01*
X128293134Y-109195667D01*
X128223000Y-109548253D01*
X128223000Y-109907747D01*
X128293134Y-110260333D01*
X128323001Y-110332438D01*
X128323000Y-111045481D01*
X123618482Y-115750000D01*
X122385737Y-115750000D01*
X122300999Y-115741654D01*
X121962840Y-115774960D01*
X121887160Y-115797917D01*
X121637677Y-115873597D01*
X121338005Y-116033775D01*
X121075339Y-116249339D01*
X121021318Y-116315164D01*
X118728160Y-118608322D01*
X118662340Y-118662339D01*
X118608323Y-118728159D01*
X118608322Y-118728160D01*
X118446776Y-118925005D01*
X118286597Y-119224678D01*
X118187960Y-119549841D01*
X118154654Y-119888000D01*
X118163001Y-119972747D01*
X118163000Y-121823564D01*
X118133134Y-121895667D01*
X118063000Y-122248253D01*
X75867028Y-122248253D01*
X75966451Y-122117842D01*
X75948245Y-122026311D01*
X75835673Y-121686721D01*
X75659013Y-121375618D01*
X75507413Y-121200237D01*
X75624407Y-121083243D01*
X75829603Y-120776145D01*
X75970944Y-120434917D01*
X76043000Y-120072671D01*
X76043000Y-119703329D01*
X75970944Y-119341083D01*
X75970506Y-119340024D01*
X76878322Y-120247841D01*
X76932340Y-120313662D01*
X77195006Y-120529226D01*
X77464239Y-120673134D01*
X77494678Y-120689404D01*
X77620382Y-120727536D01*
X77630706Y-120752461D01*
X77830430Y-121051369D01*
X78084631Y-121305570D01*
X78383539Y-121505294D01*
X78715667Y-121642866D01*
X79068253Y-121713000D01*
X79427747Y-121713000D01*
X79780333Y-121642866D01*
X80112461Y-121505294D01*
X80411369Y-121305570D01*
X80665570Y-121051369D01*
X80865294Y-120752461D01*
X81002866Y-120420333D01*
X81073000Y-120067747D01*
X81073000Y-119708253D01*
X81002866Y-119355667D01*
X80865294Y-119023539D01*
X80665570Y-118724631D01*
X80411369Y-118470430D01*
X80112461Y-118270706D01*
X80040357Y-118240840D01*
X79966607Y-118167089D01*
X80233470Y-118248041D01*
X80571630Y-118281347D01*
X80656368Y-118273001D01*
X80926157Y-118273001D01*
X81085429Y-118511369D01*
X81339630Y-118765570D01*
X81638538Y-118965294D01*
X81970666Y-119102866D01*
X82323252Y-119173000D01*
X82682746Y-119173000D01*
X83035332Y-119102866D01*
X83367460Y-118965294D01*
X83666368Y-118765570D01*
X83920569Y-118511369D01*
X84120293Y-118212461D01*
X84257865Y-117880333D01*
X84327999Y-117527747D01*
X84327999Y-117168253D01*
X84257865Y-116815667D01*
X84120293Y-116483539D01*
X83920569Y-116184631D01*
X83666368Y-115930430D01*
X83367460Y-115730706D01*
X83295356Y-115700840D01*
X82982683Y-115388166D01*
X82928661Y-115322340D01*
X82665995Y-115106776D01*
X82366323Y-114946598D01*
X82041159Y-114847961D01*
X81787738Y-114823001D01*
X81703000Y-114814655D01*
X81618262Y-114823001D01*
X81286149Y-114823001D01*
X69951311Y-103488164D01*
X69897290Y-103422339D01*
X69634624Y-103206775D01*
X69334952Y-103046597D01*
X69009788Y-102947960D01*
X68756367Y-102923000D01*
X68671629Y-102914654D01*
X68586891Y-102923000D01*
X65633810Y-102923000D01*
X65675673Y-102849279D01*
X65788245Y-102509689D01*
X65806451Y-102418158D01*
X65589052Y-102133000D01*
X64033000Y-102133000D01*
X64033000Y-102153000D01*
X63983000Y-102153000D01*
X63983000Y-102133000D01*
X62426948Y-102133000D01*
X62209549Y-102418158D01*
X62227755Y-102509689D01*
X62340327Y-102849279D01*
X62516987Y-103160382D01*
X62668587Y-103335763D01*
X62551593Y-103452757D01*
X62346397Y-103759855D01*
X62205056Y-104101083D01*
X62133000Y-104463329D01*
X62133000Y-104832671D01*
X62205056Y-105194917D01*
X62346397Y-105536145D01*
X62410880Y-105632651D01*
X62301620Y-105765785D01*
X62206442Y-105943852D01*
X62147831Y-106137065D01*
X62128041Y-106338000D01*
X62128041Y-108038000D01*
X62147831Y-108238935D01*
X62153311Y-108257000D01*
X61161000Y-108257000D01*
X61161000Y-101293000D01*
X62382190Y-101293000D01*
X62340327Y-101366721D01*
X62227755Y-101706311D01*
X62209549Y-101797842D01*
X62426948Y-102083000D01*
X63983000Y-102083000D01*
X63983000Y-102063000D01*
X64033000Y-102063000D01*
X64033000Y-102083000D01*
X65589052Y-102083000D01*
X65806451Y-101797842D01*
X65788245Y-101706311D01*
X65675673Y-101366721D01*
X65499013Y-101055618D01*
X65347413Y-100880237D01*
X65464407Y-100763243D01*
X65669603Y-100456145D01*
X65747547Y-100267971D01*
X65861402Y-100154116D01*
X74097346Y-100154116D01*
X74097346Y-100523458D01*
X74169402Y-100885704D01*
X74310743Y-101226932D01*
X74515939Y-101534030D01*
X74777103Y-101795194D01*
X75084201Y-102000390D01*
X75425429Y-102141731D01*
X75787675Y-102213787D01*
X76157017Y-102213787D01*
X76519263Y-102141731D01*
X76860491Y-102000390D01*
X77167589Y-101795194D01*
X77242346Y-101720437D01*
X77317103Y-101795194D01*
X77624201Y-102000390D01*
X77965429Y-102141731D01*
X78327675Y-102213787D01*
X78697017Y-102213787D01*
X79059263Y-102141731D01*
X79400491Y-102000390D01*
X79707589Y-101795194D01*
X79782346Y-101720437D01*
X79857103Y-101795194D01*
X80164201Y-102000390D01*
X80505429Y-102141731D01*
X80867675Y-102213787D01*
X81237017Y-102213787D01*
X81599263Y-102141731D01*
X81940491Y-102000390D01*
X82247589Y-101795194D01*
X82364583Y-101678200D01*
X82539964Y-101829800D01*
X82851067Y-102006460D01*
X83190657Y-102119032D01*
X83282188Y-102137238D01*
X83567346Y-101919839D01*
X83567346Y-100363787D01*
X83547346Y-100363787D01*
X83547346Y-100313787D01*
X83567346Y-100313787D01*
X83567346Y-98757735D01*
X83282188Y-98540336D01*
X83190657Y-98558542D01*
X82851067Y-98671114D01*
X82539964Y-98847774D01*
X82364583Y-98999374D01*
X82247589Y-98882380D01*
X81940491Y-98677184D01*
X81599263Y-98535843D01*
X81237017Y-98463787D01*
X80867675Y-98463787D01*
X80505429Y-98535843D01*
X80164201Y-98677184D01*
X79857103Y-98882380D01*
X79782346Y-98957137D01*
X79707589Y-98882380D01*
X79400491Y-98677184D01*
X79059263Y-98535843D01*
X78697017Y-98463787D01*
X78327675Y-98463787D01*
X77965429Y-98535843D01*
X77624201Y-98677184D01*
X77317103Y-98882380D01*
X77242346Y-98957137D01*
X77167589Y-98882380D01*
X76860491Y-98677184D01*
X76519263Y-98535843D01*
X76157017Y-98463787D01*
X75787675Y-98463787D01*
X75425429Y-98535843D01*
X75084201Y-98677184D01*
X74777103Y-98882380D01*
X74515939Y-99143544D01*
X74310743Y-99450642D01*
X74169402Y-99791870D01*
X74097346Y-100154116D01*
X65861402Y-100154116D01*
X69231842Y-96783677D01*
X69297661Y-96729661D01*
X69359891Y-96653834D01*
X69513224Y-96466996D01*
X69513226Y-96466994D01*
X69673403Y-96167323D01*
X69747885Y-95921787D01*
X69772040Y-95842160D01*
X69805346Y-95504000D01*
X69797000Y-95419262D01*
X69797000Y-94282336D01*
X70386938Y-94282336D01*
X70404379Y-94370016D01*
X70513740Y-94700344D01*
X70685443Y-95002990D01*
X70912890Y-95266323D01*
X71187341Y-95480224D01*
X71498248Y-95636472D01*
X71833664Y-95729063D01*
X72111000Y-95511075D01*
X72111000Y-94005000D01*
X72161000Y-94005000D01*
X72161000Y-95511075D01*
X72438336Y-95729063D01*
X72773752Y-95636472D01*
X73084659Y-95480224D01*
X73359110Y-95266323D01*
X73586557Y-95002990D01*
X73758260Y-94700344D01*
X73867621Y-94370016D01*
X73885062Y-94282336D01*
X73667046Y-94005000D01*
X72161000Y-94005000D01*
X72111000Y-94005000D01*
X70604954Y-94005000D01*
X70386938Y-94282336D01*
X69797000Y-94282336D01*
X69797000Y-93677664D01*
X70386938Y-93677664D01*
X70604954Y-93955000D01*
X72111000Y-93955000D01*
X72111000Y-92448925D01*
X72161000Y-92448925D01*
X72161000Y-93955000D01*
X73667046Y-93955000D01*
X73885062Y-93677664D01*
X73867621Y-93589984D01*
X73758260Y-93259656D01*
X73586557Y-92957010D01*
X73359110Y-92693677D01*
X73084659Y-92479776D01*
X72773752Y-92323528D01*
X72438336Y-92230937D01*
X72161000Y-92448925D01*
X72111000Y-92448925D01*
X71833664Y-92230937D01*
X71498248Y-92323528D01*
X71187341Y-92479776D01*
X70912890Y-92693677D01*
X70685443Y-92957010D01*
X70513740Y-93259656D01*
X70404379Y-93589984D01*
X70386938Y-93677664D01*
X69797000Y-93677664D01*
X69797000Y-85698518D01*
X73024116Y-88925635D01*
X73078128Y-88991449D01*
X73143942Y-89045461D01*
X73143947Y-89045466D01*
X73340792Y-89207012D01*
X73640465Y-89367191D01*
X73965628Y-89465828D01*
X74303788Y-89499134D01*
X74388526Y-89490788D01*
X80210827Y-89490786D01*
X80407664Y-89687623D01*
X80461685Y-89753448D01*
X80724351Y-89969012D01*
X81008626Y-90120960D01*
X81024023Y-90129190D01*
X81349186Y-90227827D01*
X81687346Y-90261133D01*
X81772084Y-90252787D01*
X82369828Y-90252787D01*
X83349205Y-91232164D01*
X83291346Y-91523040D01*
X83291346Y-91882534D01*
X83361480Y-92235120D01*
X83499052Y-92567248D01*
X83698776Y-92866156D01*
X83952977Y-93120357D01*
X84251885Y-93320081D01*
X84584013Y-93457653D01*
X84936599Y-93527787D01*
X85296093Y-93527787D01*
X85648679Y-93457653D01*
X85980807Y-93320081D01*
X86279715Y-93120357D01*
X86533916Y-92866156D01*
X86733640Y-92567248D01*
X86871212Y-92235120D01*
X86941346Y-91882534D01*
X86941346Y-91523040D01*
X86871212Y-91170454D01*
X86841346Y-91098351D01*
X86841346Y-90644524D01*
X86849692Y-90559786D01*
X86816386Y-90221627D01*
X86717749Y-89896464D01*
X86675990Y-89818339D01*
X86557571Y-89596792D01*
X86342007Y-89334126D01*
X86276181Y-89280104D01*
X85297912Y-88301836D01*
X85317346Y-88104525D01*
X85317346Y-88104524D01*
X85325692Y-88019789D01*
X85317346Y-87935051D01*
X85317346Y-86790688D01*
X85585429Y-86901731D01*
X85947675Y-86973787D01*
X86317017Y-86973787D01*
X86679263Y-86901731D01*
X87020491Y-86760390D01*
X87327589Y-86555194D01*
X87402346Y-86480437D01*
X87477103Y-86555194D01*
X87784201Y-86760390D01*
X88125429Y-86901731D01*
X88487675Y-86973787D01*
X88857017Y-86973787D01*
X89219263Y-86901731D01*
X89487347Y-86790687D01*
X89487347Y-87163846D01*
X89286775Y-87364418D01*
X89087051Y-87663326D01*
X88949479Y-87995454D01*
X88879345Y-88348040D01*
X88879345Y-88707534D01*
X88949479Y-89060120D01*
X89087051Y-89392248D01*
X89286775Y-89691156D01*
X89540976Y-89945357D01*
X89839884Y-90145081D01*
X90172012Y-90282653D01*
X90511484Y-90350178D01*
X90790222Y-90628917D01*
X90834844Y-90683289D01*
X91051828Y-90861363D01*
X91099054Y-90886606D01*
X90981480Y-91170454D01*
X90911346Y-91523040D01*
X90911346Y-91882534D01*
X90981480Y-92235120D01*
X91119052Y-92567248D01*
X91318776Y-92866156D01*
X91572977Y-93120357D01*
X91871885Y-93320081D01*
X92204013Y-93457653D01*
X92556599Y-93527787D01*
X92916093Y-93527787D01*
X93268679Y-93457653D01*
X93340782Y-93427787D01*
X95572608Y-93427787D01*
X95657346Y-93436133D01*
X95995505Y-93402827D01*
X96064865Y-93381787D01*
X96320669Y-93304190D01*
X96620341Y-93144012D01*
X96883007Y-92928448D01*
X96921043Y-92882101D01*
X96895522Y-92943714D01*
X96825388Y-93296300D01*
X96825388Y-93655794D01*
X96895522Y-94008380D01*
X97033094Y-94340508D01*
X97232818Y-94639416D01*
X97487019Y-94893617D01*
X97785927Y-95093341D01*
X98118055Y-95230913D01*
X98470641Y-95301047D01*
X98830135Y-95301047D01*
X99182721Y-95230913D01*
X99514849Y-95093341D01*
X99813757Y-94893617D01*
X100067958Y-94639416D01*
X100267682Y-94340508D01*
X100405254Y-94008380D01*
X100475388Y-93655794D01*
X100475388Y-93296300D01*
X100405254Y-92943714D01*
X100267682Y-92611586D01*
X100075388Y-92323798D01*
X100075388Y-92111787D01*
X109808409Y-92111787D01*
X109777481Y-92186454D01*
X109707347Y-92539040D01*
X109707347Y-92898534D01*
X109777481Y-93251120D01*
X109872198Y-93479787D01*
X105130257Y-93479787D01*
X105055346Y-93472409D01*
X104980435Y-93479787D01*
X104756394Y-93501853D01*
X104468930Y-93589054D01*
X104204002Y-93730661D01*
X103971791Y-93921232D01*
X103924038Y-93979419D01*
X101502672Y-96400787D01*
X86969257Y-96400787D01*
X86894346Y-96393409D01*
X86819435Y-96400787D01*
X86595394Y-96422853D01*
X86307930Y-96510054D01*
X86043002Y-96651661D01*
X85810791Y-96842232D01*
X85763033Y-96900425D01*
X85106988Y-97556471D01*
X85048791Y-97604232D01*
X84858220Y-97836444D01*
X84762710Y-98015131D01*
X84716613Y-98101372D01*
X84629412Y-98388835D01*
X84599968Y-98687787D01*
X84607346Y-98762698D01*
X84607346Y-98826547D01*
X84333625Y-98671114D01*
X83994035Y-98558542D01*
X83902504Y-98540336D01*
X83617346Y-98757735D01*
X83617346Y-100313787D01*
X83637346Y-100313787D01*
X83637346Y-100363787D01*
X83617346Y-100363787D01*
X83617346Y-101919839D01*
X83902504Y-102137238D01*
X83994035Y-102119032D01*
X84333625Y-102006460D01*
X84644728Y-101829800D01*
X84820109Y-101678200D01*
X84937103Y-101795194D01*
X85244201Y-102000390D01*
X85585429Y-102141731D01*
X85947675Y-102213787D01*
X86317017Y-102213787D01*
X86679263Y-102141731D01*
X87020491Y-102000390D01*
X87327589Y-101795194D01*
X87402346Y-101720437D01*
X87477103Y-101795194D01*
X87784201Y-102000390D01*
X88125429Y-102141731D01*
X88487675Y-102213787D01*
X88857017Y-102213787D01*
X89219263Y-102141731D01*
X89560491Y-102000390D01*
X89867589Y-101795194D01*
X89942346Y-101720437D01*
X90017103Y-101795194D01*
X90324201Y-102000390D01*
X90665429Y-102141731D01*
X91027675Y-102213787D01*
X91397017Y-102213787D01*
X91759263Y-102141731D01*
X92100491Y-102000390D01*
X92407589Y-101795194D01*
X92482346Y-101720437D01*
X92557103Y-101795194D01*
X92864201Y-102000390D01*
X93205429Y-102141731D01*
X93567675Y-102213787D01*
X93937017Y-102213787D01*
X94299263Y-102141731D01*
X94640491Y-102000390D01*
X94947589Y-101795194D01*
X95022346Y-101720437D01*
X95097103Y-101795194D01*
X95404201Y-102000390D01*
X95745429Y-102141731D01*
X96107675Y-102213787D01*
X96477017Y-102213787D01*
X96839263Y-102141731D01*
X97180491Y-102000390D01*
X97487589Y-101795194D01*
X97562346Y-101720437D01*
X97637103Y-101795194D01*
X97944201Y-102000390D01*
X98285429Y-102141731D01*
X98647675Y-102213787D01*
X99017017Y-102213787D01*
X99379263Y-102141731D01*
X99720491Y-102000390D01*
X100027589Y-101795194D01*
X100102346Y-101720437D01*
X100177103Y-101795194D01*
X100484201Y-102000390D01*
X100825429Y-102141731D01*
X101187675Y-102213787D01*
X101557017Y-102213787D01*
X101919263Y-102141731D01*
X102260491Y-102000390D01*
X102567589Y-101795194D01*
X102642346Y-101720437D01*
X102717103Y-101795194D01*
X103024201Y-102000390D01*
X103365429Y-102141731D01*
X103727675Y-102213787D01*
X104097017Y-102213787D01*
X104459263Y-102141731D01*
X104800491Y-102000390D01*
X105107589Y-101795194D01*
X105182346Y-101720437D01*
X105257103Y-101795194D01*
X105564201Y-102000390D01*
X105905429Y-102141731D01*
X106267675Y-102213787D01*
X106637017Y-102213787D01*
X106999263Y-102141731D01*
X107340491Y-102000390D01*
X107647589Y-101795194D01*
X107722346Y-101720437D01*
X107797103Y-101795194D01*
X108104201Y-102000390D01*
X108445429Y-102141731D01*
X108807675Y-102213787D01*
X109177017Y-102213787D01*
X109539263Y-102141731D01*
X109880491Y-102000390D01*
X109976997Y-101935907D01*
X110110131Y-102045167D01*
X110288198Y-102140345D01*
X110481411Y-102198956D01*
X110682346Y-102218746D01*
X112382346Y-102218746D01*
X112583281Y-102198956D01*
X112776494Y-102140345D01*
X112954561Y-102045167D01*
X113110637Y-101917078D01*
X113154372Y-101863787D01*
X123395435Y-101863787D01*
X123470346Y-101871165D01*
X123769298Y-101841721D01*
X123922677Y-101795194D01*
X124056762Y-101754520D01*
X124321690Y-101612913D01*
X124553901Y-101422342D01*
X124601662Y-101364145D01*
X125765710Y-100200098D01*
X125823901Y-100152342D01*
X126014472Y-99920131D01*
X126156079Y-99655203D01*
X126243280Y-99367739D01*
X126259810Y-99199912D01*
X126272724Y-99068788D01*
X126265346Y-98993877D01*
X126265346Y-98166376D01*
X126310117Y-98099371D01*
X128623000Y-100412255D01*
X128623000Y-100955750D01*
X128430706Y-101243539D01*
X128293134Y-101575667D01*
X128223000Y-101928253D01*
X128223000Y-102287747D01*
X128293134Y-102640333D01*
X128430706Y-102972461D01*
X128630430Y-103271369D01*
X128884631Y-103525570D01*
X129183539Y-103725294D01*
X129515667Y-103862866D01*
X129868253Y-103933000D01*
X130227747Y-103933000D01*
X130580333Y-103862866D01*
X130652436Y-103833000D01*
X136042190Y-103833000D01*
X136000327Y-103906721D01*
X135887755Y-104246311D01*
X135869549Y-104337842D01*
X136086948Y-104623000D01*
X137643000Y-104623000D01*
X137643000Y-104603000D01*
X137693000Y-104603000D01*
X137693000Y-104623000D01*
X139249052Y-104623000D01*
X139466451Y-104337842D01*
X139448245Y-104246311D01*
X139335673Y-103906721D01*
X139159013Y-103595618D01*
X139007413Y-103420237D01*
X139124407Y-103303243D01*
X139329603Y-102996145D01*
X139470944Y-102654917D01*
X139543000Y-102292671D01*
X139543000Y-101923329D01*
X139470944Y-101561083D01*
X139329603Y-101219855D01*
X139265120Y-101123349D01*
X139374380Y-100990215D01*
X139469558Y-100812148D01*
X139528169Y-100618935D01*
X139547959Y-100418000D01*
X139547959Y-98718000D01*
X139528169Y-98517065D01*
X139469558Y-98323852D01*
X139374380Y-98145785D01*
X139246291Y-97989709D01*
X139090215Y-97861620D01*
X138912148Y-97766442D01*
X138718935Y-97707831D01*
X138518000Y-97688041D01*
X136818000Y-97688041D01*
X136617065Y-97707831D01*
X136423852Y-97766442D01*
X136280621Y-97843000D01*
X133827436Y-97843000D01*
X133755333Y-97813134D01*
X133415863Y-97745609D01*
X126668915Y-90998662D01*
X126624289Y-90944285D01*
X126407305Y-90766211D01*
X126194471Y-90652448D01*
X126357640Y-90408248D01*
X126495212Y-90076120D01*
X126565346Y-89723534D01*
X126565346Y-89364040D01*
X126495212Y-89011454D01*
X126357640Y-88679326D01*
X126265346Y-88541198D01*
X126265346Y-84429245D01*
X126272723Y-84354345D01*
X126265346Y-84279445D01*
X126265346Y-84279435D01*
X126243280Y-84055394D01*
X126156079Y-83767930D01*
X126014472Y-83503002D01*
X125823901Y-83270791D01*
X125765715Y-83223040D01*
X108522264Y-65979590D01*
X108474502Y-65921392D01*
X108242291Y-65730821D01*
X107977363Y-65589214D01*
X107689899Y-65502013D01*
X107529533Y-65486218D01*
X107719168Y-65202410D01*
X107856740Y-64870282D01*
X107926874Y-64517696D01*
X107926874Y-64158202D01*
X107856740Y-63805616D01*
X107719168Y-63473488D01*
X107519444Y-63174580D01*
X107265243Y-62920379D01*
X106966335Y-62720655D01*
X106634207Y-62583083D01*
X106281621Y-62512949D01*
X105922127Y-62512949D01*
X105569541Y-62583083D01*
X105497436Y-62612950D01*
X90704308Y-62612947D01*
X90632207Y-62583082D01*
X90508805Y-62558536D01*
X93799722Y-59267619D01*
X93865536Y-59213607D01*
X93919548Y-59147793D01*
X93919553Y-59147788D01*
X94081099Y-58950943D01*
X94241278Y-58651270D01*
X94339915Y-58326107D01*
X94373221Y-57987947D01*
X94364875Y-57903209D01*
X94364874Y-55234848D01*
X94632956Y-55345891D01*
X94995202Y-55417947D01*
X95364544Y-55417947D01*
X95726790Y-55345891D01*
X96068018Y-55204550D01*
X96375116Y-54999354D01*
X96449873Y-54924597D01*
X96524630Y-54999354D01*
X96831728Y-55204550D01*
X97172956Y-55345891D01*
X97535202Y-55417947D01*
X97904544Y-55417947D01*
X98266790Y-55345891D01*
X98608018Y-55204550D01*
X98915116Y-54999354D01*
X98989873Y-54924597D01*
X99064630Y-54999354D01*
X99371728Y-55204550D01*
X99712956Y-55345891D01*
X100075202Y-55417947D01*
X100444544Y-55417947D01*
X100806790Y-55345891D01*
X101148018Y-55204550D01*
X101415081Y-55026105D01*
X101669400Y-55234820D01*
X102021190Y-55422855D01*
X102402904Y-55538647D01*
X102799873Y-55577745D01*
X103196841Y-55538647D01*
X103578555Y-55422855D01*
X103930346Y-55234820D01*
X104238692Y-54981766D01*
X104491746Y-54673420D01*
X104679781Y-54321630D01*
X104795573Y-53939916D01*
X104824873Y-53642428D01*
X104824873Y-51760000D01*
X141190000Y-51760000D01*
X141190001Y-108270483D01*
G36*
X88345008Y-64870281D02*
G01*
X88482580Y-65202409D01*
X88682304Y-65501317D01*
X88936505Y-65755518D01*
X89235413Y-65955242D01*
X89567541Y-66092814D01*
X89920127Y-66162948D01*
X90279621Y-66162948D01*
X90632207Y-66092814D01*
X90704314Y-66062946D01*
X91171199Y-66062946D01*
X86534517Y-70699630D01*
X86476319Y-70747392D01*
X86285748Y-70979604D01*
X86148836Y-71235748D01*
X86144141Y-71244532D01*
X86056940Y-71531995D01*
X86027496Y-71830947D01*
X86034874Y-71905858D01*
X86034874Y-72350707D01*
X85761154Y-72195275D01*
X85421564Y-72082703D01*
X85330033Y-72064497D01*
X85044875Y-72281896D01*
X85044875Y-73837948D01*
X85064875Y-73837948D01*
X85064875Y-73887948D01*
X85044875Y-73887948D01*
X85044875Y-75444000D01*
X85330033Y-75661399D01*
X85421564Y-75643193D01*
X85761154Y-75530621D01*
X86072257Y-75353961D01*
X86247638Y-75202361D01*
X86364632Y-75319355D01*
X86671730Y-75524551D01*
X87012958Y-75665892D01*
X87375204Y-75737948D01*
X87744546Y-75737948D01*
X88106792Y-75665892D01*
X88448020Y-75524551D01*
X88755118Y-75319355D01*
X88829875Y-75244598D01*
X88904632Y-75319355D01*
X89211730Y-75524551D01*
X89552958Y-75665892D01*
X89915204Y-75737948D01*
X90284546Y-75737948D01*
X90646792Y-75665892D01*
X90988020Y-75524551D01*
X91239231Y-75356697D01*
X91316977Y-75612991D01*
X91449300Y-75860547D01*
X91627374Y-76077531D01*
X91681745Y-76122152D01*
X98783379Y-83223787D01*
X98647675Y-83223787D01*
X98285429Y-83295843D01*
X97944201Y-83437184D01*
X97637103Y-83642380D01*
X97562346Y-83717137D01*
X97487589Y-83642380D01*
X97180491Y-83437184D01*
X96839263Y-83295843D01*
X96477017Y-83223787D01*
X96107675Y-83223787D01*
X95745429Y-83295843D01*
X95404201Y-83437184D01*
X95097103Y-83642380D01*
X95022346Y-83717137D01*
X94947589Y-83642380D01*
X94640491Y-83437184D01*
X94299263Y-83295843D01*
X93937017Y-83223787D01*
X93567675Y-83223787D01*
X93205429Y-83295843D01*
X92864201Y-83437184D01*
X92557103Y-83642380D01*
X92482346Y-83717137D01*
X92407589Y-83642380D01*
X92100491Y-83437184D01*
X91759263Y-83295843D01*
X91397017Y-83223787D01*
X91027675Y-83223787D01*
X90665429Y-83295843D01*
X90324201Y-83437184D01*
X90017103Y-83642380D01*
X89942346Y-83717137D01*
X89867589Y-83642380D01*
X89560491Y-83437184D01*
X89219263Y-83295843D01*
X88857017Y-83223787D01*
X88487675Y-83223787D01*
X88125429Y-83295843D01*
X87784201Y-83437184D01*
X87477103Y-83642380D01*
X87402346Y-83717137D01*
X87327589Y-83642380D01*
X87020491Y-83437184D01*
X86679263Y-83295843D01*
X86317017Y-83223787D01*
X85947675Y-83223787D01*
X85585429Y-83295843D01*
X85244201Y-83437184D01*
X84937103Y-83642380D01*
X84862346Y-83717137D01*
X84787589Y-83642380D01*
X84480491Y-83437184D01*
X84139263Y-83295843D01*
X83777017Y-83223787D01*
X83407675Y-83223787D01*
X83045429Y-83295843D01*
X82704201Y-83437184D01*
X82397103Y-83642380D01*
X82322346Y-83717137D01*
X82247589Y-83642380D01*
X81940491Y-83437184D01*
X81599263Y-83295843D01*
X81237017Y-83223787D01*
X80867675Y-83223787D01*
X80505429Y-83295843D01*
X80164201Y-83437184D01*
X79857103Y-83642380D01*
X79740109Y-83759374D01*
X79564728Y-83607774D01*
X79253625Y-83431114D01*
X78914035Y-83318542D01*
X78822504Y-83300336D01*
X78537346Y-83517735D01*
X78537346Y-85073787D01*
X78557346Y-85073787D01*
X78557346Y-85123787D01*
X78537346Y-85123787D01*
X78537346Y-85143787D01*
X78487346Y-85143787D01*
X78487346Y-85123787D01*
X78467346Y-85123787D01*
X78467346Y-85073787D01*
X78487346Y-85073787D01*
X78487346Y-83517735D01*
X78202188Y-83300336D01*
X78110657Y-83318542D01*
X77771067Y-83431114D01*
X77570672Y-83544908D01*
X77550637Y-83520496D01*
X77394561Y-83392407D01*
X77216494Y-83297229D01*
X77023281Y-83238618D01*
X76822346Y-83218828D01*
X75122346Y-83218828D01*
X74921411Y-83238618D01*
X74728198Y-83297229D01*
X74550131Y-83392407D01*
X74394055Y-83520496D01*
X74265966Y-83676572D01*
X74170788Y-83854639D01*
X74112177Y-84047852D01*
X74092387Y-84248787D01*
X74092387Y-85114868D01*
X70875682Y-81898164D01*
X70821661Y-81832339D01*
X70558995Y-81616775D01*
X70259323Y-81456597D01*
X69934159Y-81357960D01*
X69827335Y-81347439D01*
X69816169Y-81234065D01*
X69757558Y-81040852D01*
X69662380Y-80862785D01*
X69534291Y-80706709D01*
X69378215Y-80578620D01*
X69200148Y-80483442D01*
X69006935Y-80424831D01*
X68806000Y-80405041D01*
X66715560Y-80405041D01*
X63278779Y-76968261D01*
X63278779Y-74917291D01*
X65482770Y-74917291D01*
X65525740Y-75268432D01*
X65829840Y-75440987D01*
X66161759Y-75550899D01*
X66508743Y-75593945D01*
X66857459Y-75568471D01*
X67194504Y-75475455D01*
X67506926Y-75318472D01*
X67581818Y-75268432D01*
X67624787Y-74917292D01*
X68674270Y-74917292D01*
X68717240Y-75268433D01*
X69021340Y-75440988D01*
X69353259Y-75550900D01*
X69700243Y-75593946D01*
X70048959Y-75568472D01*
X70386004Y-75475456D01*
X70698426Y-75318473D01*
X70773318Y-75268433D01*
X70816288Y-74917292D01*
X70811151Y-74912155D01*
X73890091Y-74912155D01*
X73933061Y-75263296D01*
X74237161Y-75435851D01*
X74569080Y-75545763D01*
X74916064Y-75588809D01*
X75264780Y-75563335D01*
X75601825Y-75470319D01*
X75914247Y-75313336D01*
X75989139Y-75263296D01*
X76032109Y-74912155D01*
X76009266Y-74889312D01*
X78868866Y-74889312D01*
X78911836Y-75240453D01*
X79215936Y-75413008D01*
X79547855Y-75522920D01*
X79894839Y-75565966D01*
X80243555Y-75540492D01*
X80580600Y-75447476D01*
X80893022Y-75290493D01*
X80967914Y-75240453D01*
X81010884Y-74889312D01*
X79939875Y-73818303D01*
X78868866Y-74889312D01*
X76009266Y-74889312D01*
X74961100Y-73841146D01*
X73890091Y-74912155D01*
X70811151Y-74912155D01*
X69745279Y-73846283D01*
X68674270Y-74917292D01*
X67624787Y-74917292D01*
X67624788Y-74917291D01*
X66553779Y-73846282D01*
X65482770Y-74917291D01*
X63278779Y-74917291D01*
X63278779Y-74415363D01*
X63308645Y-74343260D01*
X63378779Y-73990674D01*
X63378779Y-73765891D01*
X64770761Y-73765891D01*
X64796235Y-74114607D01*
X64889251Y-74451652D01*
X65046234Y-74764074D01*
X65096274Y-74838966D01*
X65447415Y-74881936D01*
X66518424Y-73810927D01*
X66589134Y-73810927D01*
X67660143Y-74881936D01*
X68011284Y-74838966D01*
X68151341Y-74592139D01*
X68237734Y-74764075D01*
X68287774Y-74838967D01*
X68638915Y-74881937D01*
X69709924Y-73810928D01*
X69780634Y-73810928D01*
X70851643Y-74881937D01*
X71202784Y-74838967D01*
X71375339Y-74534867D01*
X71485251Y-74202948D01*
X71528297Y-73855964D01*
X71502823Y-73507248D01*
X71409807Y-73170203D01*
X71252824Y-72857781D01*
X71202784Y-72782889D01*
X70851643Y-72739919D01*
X69780634Y-73810928D01*
X69709924Y-73810928D01*
X68638915Y-72739919D01*
X68287774Y-72782889D01*
X68147717Y-73029716D01*
X68061324Y-72857780D01*
X68011284Y-72782888D01*
X67660143Y-72739918D01*
X66589134Y-73810927D01*
X66518424Y-73810927D01*
X65447415Y-72739918D01*
X65096274Y-72782888D01*
X64923719Y-73086988D01*
X64813807Y-73418907D01*
X64770761Y-73765891D01*
X63378779Y-73765891D01*
X63378779Y-73631180D01*
X63308645Y-73278594D01*
X63278779Y-73206491D01*
X63278779Y-70771103D01*
X64105477Y-71597801D01*
X64153225Y-71655982D01*
X64211406Y-71703730D01*
X64211411Y-71703735D01*
X64275142Y-71756037D01*
X64385436Y-71846553D01*
X64453695Y-71883038D01*
X64650363Y-71988160D01*
X64937827Y-72075361D01*
X64993810Y-72080875D01*
X65161870Y-72097427D01*
X65161876Y-72097427D01*
X65236779Y-72104804D01*
X65311681Y-72097427D01*
X65631191Y-72097426D01*
X65769318Y-72189720D01*
X65800847Y-72202780D01*
X65600632Y-72303382D01*
X65525740Y-72353422D01*
X65482770Y-72704563D01*
X66553779Y-73775572D01*
X67624788Y-72704563D01*
X67581818Y-72353422D01*
X67483134Y-72297426D01*
X68803987Y-72297426D01*
X68792132Y-72303383D01*
X68717240Y-72353423D01*
X68674270Y-72704564D01*
X69745279Y-73775573D01*
X70816288Y-72704564D01*
X70773318Y-72353423D01*
X70674632Y-72297426D01*
X73013217Y-72297426D01*
X73131141Y-72415351D01*
X73131141Y-72605791D01*
X73150931Y-72806726D01*
X73209542Y-72999939D01*
X73301311Y-73171629D01*
X73221128Y-73413771D01*
X73178082Y-73760755D01*
X73203556Y-74109471D01*
X73296572Y-74446516D01*
X73453555Y-74758938D01*
X73503595Y-74833830D01*
X73854736Y-74876800D01*
X74925745Y-73805791D01*
X74911603Y-73791649D01*
X74946958Y-73756294D01*
X74961100Y-73770436D01*
X74975243Y-73756294D01*
X75010598Y-73791649D01*
X74996455Y-73805791D01*
X76067464Y-74876800D01*
X76418605Y-74833830D01*
X76591160Y-74529730D01*
X76701072Y-74197811D01*
X76744118Y-73850827D01*
X76735870Y-73737912D01*
X78156857Y-73737912D01*
X78182331Y-74086628D01*
X78275347Y-74423673D01*
X78432330Y-74736095D01*
X78482370Y-74810987D01*
X78833511Y-74853957D01*
X79904520Y-73782948D01*
X79975230Y-73782948D01*
X81046239Y-74853957D01*
X81397380Y-74810987D01*
X81569935Y-74506887D01*
X81679847Y-74174968D01*
X81680077Y-74173107D01*
X83221423Y-74173107D01*
X83316489Y-74518008D01*
X83477015Y-74837735D01*
X83696832Y-75120002D01*
X83967493Y-75353961D01*
X84278596Y-75530621D01*
X84618186Y-75643193D01*
X84709717Y-75661399D01*
X84994875Y-75444000D01*
X84994875Y-73887948D01*
X83438795Y-73887948D01*
X83221423Y-74173107D01*
X81680077Y-74173107D01*
X81722893Y-73827984D01*
X81702790Y-73552789D01*
X83221423Y-73552789D01*
X83438795Y-73837948D01*
X84994875Y-73837948D01*
X84994875Y-72281896D01*
X84709717Y-72064497D01*
X84618186Y-72082703D01*
X84278596Y-72195275D01*
X83967493Y-72371935D01*
X83696832Y-72605894D01*
X83477015Y-72888161D01*
X83316489Y-73207888D01*
X83221423Y-73552789D01*
X81702790Y-73552789D01*
X81697419Y-73479268D01*
X81604403Y-73142223D01*
X81447420Y-72829801D01*
X81397380Y-72754909D01*
X81046239Y-72711939D01*
X79975230Y-73782948D01*
X79904520Y-73782948D01*
X78833511Y-72711939D01*
X78482370Y-72754909D01*
X78309815Y-73059009D01*
X78199903Y-73390928D01*
X78156857Y-73737912D01*
X76735870Y-73737912D01*
X76720739Y-73530789D01*
X76832284Y-73530789D01*
X76917031Y-73539136D01*
X77255190Y-73505830D01*
X77580353Y-73407193D01*
X77752859Y-73314986D01*
X77880026Y-73247014D01*
X78142692Y-73031450D01*
X78196713Y-72965625D01*
X78485754Y-72676584D01*
X78868866Y-72676584D01*
X79939875Y-73747593D01*
X81010884Y-72676584D01*
X80967914Y-72325443D01*
X80663814Y-72152888D01*
X80331895Y-72042976D01*
X79984911Y-71999930D01*
X79636195Y-72025404D01*
X79299150Y-72118420D01*
X78986728Y-72275403D01*
X78911836Y-72325443D01*
X78868866Y-72676584D01*
X78485754Y-72676584D01*
X80654392Y-70507948D01*
X81760136Y-70507948D01*
X81844874Y-70516294D01*
X82183033Y-70482988D01*
X82372312Y-70425571D01*
X82508197Y-70384351D01*
X82807869Y-70224173D01*
X83070535Y-70008609D01*
X83124556Y-69942784D01*
X88320462Y-64746879D01*
X88345008Y-64870281D01*
G37*
X88345008Y-64870281D02*
X88482580Y-65202409D01*
X88682304Y-65501317D01*
X88936505Y-65755518D01*
X89235413Y-65955242D01*
X89567541Y-66092814D01*
X89920127Y-66162948D01*
X90279621Y-66162948D01*
X90632207Y-66092814D01*
X90704314Y-66062946D01*
X91171199Y-66062946D01*
X86534517Y-70699630D01*
X86476319Y-70747392D01*
X86285748Y-70979604D01*
X86148836Y-71235748D01*
X86144141Y-71244532D01*
X86056940Y-71531995D01*
X86027496Y-71830947D01*
X86034874Y-71905858D01*
X86034874Y-72350707D01*
X85761154Y-72195275D01*
X85421564Y-72082703D01*
X85330033Y-72064497D01*
X85044875Y-72281896D01*
X85044875Y-73837948D01*
X85064875Y-73837948D01*
X85064875Y-73887948D01*
X85044875Y-73887948D01*
X85044875Y-75444000D01*
X85330033Y-75661399D01*
X85421564Y-75643193D01*
X85761154Y-75530621D01*
X86072257Y-75353961D01*
X86247638Y-75202361D01*
X86364632Y-75319355D01*
X86671730Y-75524551D01*
X87012958Y-75665892D01*
X87375204Y-75737948D01*
X87744546Y-75737948D01*
X88106792Y-75665892D01*
X88448020Y-75524551D01*
X88755118Y-75319355D01*
X88829875Y-75244598D01*
X88904632Y-75319355D01*
X89211730Y-75524551D01*
X89552958Y-75665892D01*
X89915204Y-75737948D01*
X90284546Y-75737948D01*
X90646792Y-75665892D01*
X90988020Y-75524551D01*
X91239231Y-75356697D01*
X91316977Y-75612991D01*
X91449300Y-75860547D01*
X91627374Y-76077531D01*
X91681745Y-76122152D01*
X98783379Y-83223787D01*
X98647675Y-83223787D01*
X98285429Y-83295843D01*
X97944201Y-83437184D01*
X97637103Y-83642380D01*
X97562346Y-83717137D01*
X97487589Y-83642380D01*
X97180491Y-83437184D01*
X96839263Y-83295843D01*
X96477017Y-83223787D01*
X96107675Y-83223787D01*
X95745429Y-83295843D01*
X95404201Y-83437184D01*
X95097103Y-83642380D01*
X95022346Y-83717137D01*
X94947589Y-83642380D01*
X94640491Y-83437184D01*
X94299263Y-83295843D01*
X93937017Y-83223787D01*
X93567675Y-83223787D01*
X93205429Y-83295843D01*
X92864201Y-83437184D01*
X92557103Y-83642380D01*
X92482346Y-83717137D01*
X92407589Y-83642380D01*
X92100491Y-83437184D01*
X91759263Y-83295843D01*
X91397017Y-83223787D01*
X91027675Y-83223787D01*
X90665429Y-83295843D01*
X90324201Y-83437184D01*
X90017103Y-83642380D01*
X89942346Y-83717137D01*
X89867589Y-83642380D01*
X89560491Y-83437184D01*
X89219263Y-83295843D01*
X88857017Y-83223787D01*
X88487675Y-83223787D01*
X88125429Y-83295843D01*
X87784201Y-83437184D01*
X87477103Y-83642380D01*
X87402346Y-83717137D01*
X87327589Y-83642380D01*
X87020491Y-83437184D01*
X86679263Y-83295843D01*
X86317017Y-83223787D01*
X85947675Y-83223787D01*
X85585429Y-83295843D01*
X85244201Y-83437184D01*
X84937103Y-83642380D01*
X84862346Y-83717137D01*
X84787589Y-83642380D01*
X84480491Y-83437184D01*
X84139263Y-83295843D01*
X83777017Y-83223787D01*
X83407675Y-83223787D01*
X83045429Y-83295843D01*
X82704201Y-83437184D01*
X82397103Y-83642380D01*
X82322346Y-83717137D01*
X82247589Y-83642380D01*
X81940491Y-83437184D01*
X81599263Y-83295843D01*
X81237017Y-83223787D01*
X80867675Y-83223787D01*
X80505429Y-83295843D01*
X80164201Y-83437184D01*
X79857103Y-83642380D01*
X79740109Y-83759374D01*
X79564728Y-83607774D01*
X79253625Y-83431114D01*
X78914035Y-83318542D01*
X78822504Y-83300336D01*
X78537346Y-83517735D01*
X78537346Y-85073787D01*
X78557346Y-85073787D01*
X78557346Y-85123787D01*
X78537346Y-85123787D01*
X78537346Y-85143787D01*
X78487346Y-85143787D01*
X78487346Y-85123787D01*
X78467346Y-85123787D01*
X78467346Y-85073787D01*
X78487346Y-85073787D01*
X78487346Y-83517735D01*
X78202188Y-83300336D01*
X78110657Y-83318542D01*
X77771067Y-83431114D01*
X77570672Y-83544908D01*
X77550637Y-83520496D01*
X77394561Y-83392407D01*
X77216494Y-83297229D01*
X77023281Y-83238618D01*
X76822346Y-83218828D01*
X75122346Y-83218828D01*
X74921411Y-83238618D01*
X74728198Y-83297229D01*
X74550131Y-83392407D01*
X74394055Y-83520496D01*
X74265966Y-83676572D01*
X74170788Y-83854639D01*
X74112177Y-84047852D01*
X74092387Y-84248787D01*
X74092387Y-85114868D01*
X70875682Y-81898164D01*
X70821661Y-81832339D01*
X70558995Y-81616775D01*
X70259323Y-81456597D01*
X69934159Y-81357960D01*
X69827335Y-81347439D01*
X69816169Y-81234065D01*
X69757558Y-81040852D01*
X69662380Y-80862785D01*
X69534291Y-80706709D01*
X69378215Y-80578620D01*
X69200148Y-80483442D01*
X69006935Y-80424831D01*
X68806000Y-80405041D01*
X66715560Y-80405041D01*
X63278779Y-76968261D01*
X63278779Y-74917291D01*
X65482770Y-74917291D01*
X65525740Y-75268432D01*
X65829840Y-75440987D01*
X66161759Y-75550899D01*
X66508743Y-75593945D01*
X66857459Y-75568471D01*
X67194504Y-75475455D01*
X67506926Y-75318472D01*
X67581818Y-75268432D01*
X67624787Y-74917292D01*
X68674270Y-74917292D01*
X68717240Y-75268433D01*
X69021340Y-75440988D01*
X69353259Y-75550900D01*
X69700243Y-75593946D01*
X70048959Y-75568472D01*
X70386004Y-75475456D01*
X70698426Y-75318473D01*
X70773318Y-75268433D01*
X70816288Y-74917292D01*
X70811151Y-74912155D01*
X73890091Y-74912155D01*
X73933061Y-75263296D01*
X74237161Y-75435851D01*
X74569080Y-75545763D01*
X74916064Y-75588809D01*
X75264780Y-75563335D01*
X75601825Y-75470319D01*
X75914247Y-75313336D01*
X75989139Y-75263296D01*
X76032109Y-74912155D01*
X76009266Y-74889312D01*
X78868866Y-74889312D01*
X78911836Y-75240453D01*
X79215936Y-75413008D01*
X79547855Y-75522920D01*
X79894839Y-75565966D01*
X80243555Y-75540492D01*
X80580600Y-75447476D01*
X80893022Y-75290493D01*
X80967914Y-75240453D01*
X81010884Y-74889312D01*
X79939875Y-73818303D01*
X78868866Y-74889312D01*
X76009266Y-74889312D01*
X74961100Y-73841146D01*
X73890091Y-74912155D01*
X70811151Y-74912155D01*
X69745279Y-73846283D01*
X68674270Y-74917292D01*
X67624787Y-74917292D01*
X67624788Y-74917291D01*
X66553779Y-73846282D01*
X65482770Y-74917291D01*
X63278779Y-74917291D01*
X63278779Y-74415363D01*
X63308645Y-74343260D01*
X63378779Y-73990674D01*
X63378779Y-73765891D01*
X64770761Y-73765891D01*
X64796235Y-74114607D01*
X64889251Y-74451652D01*
X65046234Y-74764074D01*
X65096274Y-74838966D01*
X65447415Y-74881936D01*
X66518424Y-73810927D01*
X66589134Y-73810927D01*
X67660143Y-74881936D01*
X68011284Y-74838966D01*
X68151341Y-74592139D01*
X68237734Y-74764075D01*
X68287774Y-74838967D01*
X68638915Y-74881937D01*
X69709924Y-73810928D01*
X69780634Y-73810928D01*
X70851643Y-74881937D01*
X71202784Y-74838967D01*
X71375339Y-74534867D01*
X71485251Y-74202948D01*
X71528297Y-73855964D01*
X71502823Y-73507248D01*
X71409807Y-73170203D01*
X71252824Y-72857781D01*
X71202784Y-72782889D01*
X70851643Y-72739919D01*
X69780634Y-73810928D01*
X69709924Y-73810928D01*
X68638915Y-72739919D01*
X68287774Y-72782889D01*
X68147717Y-73029716D01*
X68061324Y-72857780D01*
X68011284Y-72782888D01*
X67660143Y-72739918D01*
X66589134Y-73810927D01*
X66518424Y-73810927D01*
X65447415Y-72739918D01*
X65096274Y-72782888D01*
X64923719Y-73086988D01*
X64813807Y-73418907D01*
X64770761Y-73765891D01*
X63378779Y-73765891D01*
X63378779Y-73631180D01*
X63308645Y-73278594D01*
X63278779Y-73206491D01*
X63278779Y-70771103D01*
X64105477Y-71597801D01*
X64153225Y-71655982D01*
X64211406Y-71703730D01*
X64211411Y-71703735D01*
X64275142Y-71756037D01*
X64385436Y-71846553D01*
X64453695Y-71883038D01*
X64650363Y-71988160D01*
X64937827Y-72075361D01*
X64993810Y-72080875D01*
X65161870Y-72097427D01*
X65161876Y-72097427D01*
X65236779Y-72104804D01*
X65311681Y-72097427D01*
X65631191Y-72097426D01*
X65769318Y-72189720D01*
X65800847Y-72202780D01*
X65600632Y-72303382D01*
X65525740Y-72353422D01*
X65482770Y-72704563D01*
X66553779Y-73775572D01*
X67624788Y-72704563D01*
X67581818Y-72353422D01*
X67483134Y-72297426D01*
X68803987Y-72297426D01*
X68792132Y-72303383D01*
X68717240Y-72353423D01*
X68674270Y-72704564D01*
X69745279Y-73775573D01*
X70816288Y-72704564D01*
X70773318Y-72353423D01*
X70674632Y-72297426D01*
X73013217Y-72297426D01*
X73131141Y-72415351D01*
X73131141Y-72605791D01*
X73150931Y-72806726D01*
X73209542Y-72999939D01*
X73301311Y-73171629D01*
X73221128Y-73413771D01*
X73178082Y-73760755D01*
X73203556Y-74109471D01*
X73296572Y-74446516D01*
X73453555Y-74758938D01*
X73503595Y-74833830D01*
X73854736Y-74876800D01*
X74925745Y-73805791D01*
X74911603Y-73791649D01*
X74946958Y-73756294D01*
X74961100Y-73770436D01*
X74975243Y-73756294D01*
X75010598Y-73791649D01*
X74996455Y-73805791D01*
X76067464Y-74876800D01*
X76418605Y-74833830D01*
X76591160Y-74529730D01*
X76701072Y-74197811D01*
X76744118Y-73850827D01*
X76735870Y-73737912D01*
X78156857Y-73737912D01*
X78182331Y-74086628D01*
X78275347Y-74423673D01*
X78432330Y-74736095D01*
X78482370Y-74810987D01*
X78833511Y-74853957D01*
X79904520Y-73782948D01*
X79975230Y-73782948D01*
X81046239Y-74853957D01*
X81397380Y-74810987D01*
X81569935Y-74506887D01*
X81679847Y-74174968D01*
X81680077Y-74173107D01*
X83221423Y-74173107D01*
X83316489Y-74518008D01*
X83477015Y-74837735D01*
X83696832Y-75120002D01*
X83967493Y-75353961D01*
X84278596Y-75530621D01*
X84618186Y-75643193D01*
X84709717Y-75661399D01*
X84994875Y-75444000D01*
X84994875Y-73887948D01*
X83438795Y-73887948D01*
X83221423Y-74173107D01*
X81680077Y-74173107D01*
X81722893Y-73827984D01*
X81702790Y-73552789D01*
X83221423Y-73552789D01*
X83438795Y-73837948D01*
X84994875Y-73837948D01*
X84994875Y-72281896D01*
X84709717Y-72064497D01*
X84618186Y-72082703D01*
X84278596Y-72195275D01*
X83967493Y-72371935D01*
X83696832Y-72605894D01*
X83477015Y-72888161D01*
X83316489Y-73207888D01*
X83221423Y-73552789D01*
X81702790Y-73552789D01*
X81697419Y-73479268D01*
X81604403Y-73142223D01*
X81447420Y-72829801D01*
X81397380Y-72754909D01*
X81046239Y-72711939D01*
X79975230Y-73782948D01*
X79904520Y-73782948D01*
X78833511Y-72711939D01*
X78482370Y-72754909D01*
X78309815Y-73059009D01*
X78199903Y-73390928D01*
X78156857Y-73737912D01*
X76735870Y-73737912D01*
X76720739Y-73530789D01*
X76832284Y-73530789D01*
X76917031Y-73539136D01*
X77255190Y-73505830D01*
X77580353Y-73407193D01*
X77752859Y-73314986D01*
X77880026Y-73247014D01*
X78142692Y-73031450D01*
X78196713Y-72965625D01*
X78485754Y-72676584D01*
X78868866Y-72676584D01*
X79939875Y-73747593D01*
X81010884Y-72676584D01*
X80967914Y-72325443D01*
X80663814Y-72152888D01*
X80331895Y-72042976D01*
X79984911Y-71999930D01*
X79636195Y-72025404D01*
X79299150Y-72118420D01*
X78986728Y-72275403D01*
X78911836Y-72325443D01*
X78868866Y-72676584D01*
X78485754Y-72676584D01*
X80654392Y-70507948D01*
X81760136Y-70507948D01*
X81844874Y-70516294D01*
X82183033Y-70482988D01*
X82372312Y-70425571D01*
X82508197Y-70384351D01*
X82807869Y-70224173D01*
X83070535Y-70008609D01*
X83124556Y-69942784D01*
X88320462Y-64746879D01*
X88345008Y-64870281D01*
G36*
X104484580Y-71093488D02*
G01*
X104347008Y-71425616D01*
X104276874Y-71778202D01*
X104276874Y-72137696D01*
X104307424Y-72291282D01*
X104194177Y-72198342D01*
X104024797Y-72107807D01*
X103841009Y-72052055D01*
X103649875Y-72033230D01*
X103068625Y-72037948D01*
X102824875Y-72281698D01*
X102824875Y-73837948D01*
X104381125Y-73837948D01*
X104624875Y-73594198D01*
X104629381Y-73039119D01*
X104666017Y-73093949D01*
X104686141Y-73160290D01*
X104827748Y-73425218D01*
X105018319Y-73657429D01*
X105076516Y-73705190D01*
X110972326Y-79601000D01*
X101682255Y-79601000D01*
X97819202Y-75737948D01*
X97904546Y-75737948D01*
X98266792Y-75665892D01*
X98608020Y-75524551D01*
X98915118Y-75319355D01*
X98989875Y-75244598D01*
X99064632Y-75319355D01*
X99371730Y-75524551D01*
X99712958Y-75665892D01*
X100075204Y-75737948D01*
X100444546Y-75737948D01*
X100806792Y-75665892D01*
X101148020Y-75524551D01*
X101287970Y-75431039D01*
X101405573Y-75527554D01*
X101574953Y-75618089D01*
X101758741Y-75673841D01*
X101949875Y-75692666D01*
X102531125Y-75687948D01*
X102774875Y-75444198D01*
X102774875Y-73887948D01*
X102824875Y-73887948D01*
X102824875Y-75444198D01*
X103068625Y-75687948D01*
X103649875Y-75692666D01*
X103841009Y-75673841D01*
X104024797Y-75618089D01*
X104194177Y-75527554D01*
X104342640Y-75405713D01*
X104464481Y-75257250D01*
X104555016Y-75087870D01*
X104610768Y-74904082D01*
X104629593Y-74712948D01*
X104624875Y-74131698D01*
X104381125Y-73887948D01*
X102824875Y-73887948D01*
X102774875Y-73887948D01*
X102754875Y-73887948D01*
X102754875Y-73837948D01*
X102774875Y-73837948D01*
X102774875Y-72281698D01*
X102531125Y-72037948D01*
X101949875Y-72033230D01*
X101758741Y-72052055D01*
X101574953Y-72107807D01*
X101405573Y-72198342D01*
X101287970Y-72294857D01*
X101148020Y-72201345D01*
X100806792Y-72060004D01*
X100444546Y-71987948D01*
X100075204Y-71987948D01*
X99712958Y-72060004D01*
X99371730Y-72201345D01*
X99064632Y-72406541D01*
X98989875Y-72481298D01*
X98915118Y-72406541D01*
X98608020Y-72201345D01*
X98266792Y-72060004D01*
X97904546Y-71987948D01*
X97535204Y-71987948D01*
X97172958Y-72060004D01*
X96831730Y-72201345D01*
X96524632Y-72406541D01*
X96449875Y-72481298D01*
X96375118Y-72406541D01*
X96068020Y-72201345D01*
X95726792Y-72060004D01*
X95364546Y-71987948D01*
X94995204Y-71987948D01*
X94632958Y-72060004D01*
X94291730Y-72201345D01*
X93984632Y-72406541D01*
X93909875Y-72481298D01*
X93835118Y-72406541D01*
X93528020Y-72201345D01*
X93186792Y-72060004D01*
X92912061Y-72005356D01*
X93847470Y-71069948D01*
X104500309Y-71069948D01*
X104484580Y-71093488D01*
G37*
X104484580Y-71093488D02*
X104347008Y-71425616D01*
X104276874Y-71778202D01*
X104276874Y-72137696D01*
X104307424Y-72291282D01*
X104194177Y-72198342D01*
X104024797Y-72107807D01*
X103841009Y-72052055D01*
X103649875Y-72033230D01*
X103068625Y-72037948D01*
X102824875Y-72281698D01*
X102824875Y-73837948D01*
X104381125Y-73837948D01*
X104624875Y-73594198D01*
X104629381Y-73039119D01*
X104666017Y-73093949D01*
X104686141Y-73160290D01*
X104827748Y-73425218D01*
X105018319Y-73657429D01*
X105076516Y-73705190D01*
X110972326Y-79601000D01*
X101682255Y-79601000D01*
X97819202Y-75737948D01*
X97904546Y-75737948D01*
X98266792Y-75665892D01*
X98608020Y-75524551D01*
X98915118Y-75319355D01*
X98989875Y-75244598D01*
X99064632Y-75319355D01*
X99371730Y-75524551D01*
X99712958Y-75665892D01*
X100075204Y-75737948D01*
X100444546Y-75737948D01*
X100806792Y-75665892D01*
X101148020Y-75524551D01*
X101287970Y-75431039D01*
X101405573Y-75527554D01*
X101574953Y-75618089D01*
X101758741Y-75673841D01*
X101949875Y-75692666D01*
X102531125Y-75687948D01*
X102774875Y-75444198D01*
X102774875Y-73887948D01*
X102824875Y-73887948D01*
X102824875Y-75444198D01*
X103068625Y-75687948D01*
X103649875Y-75692666D01*
X103841009Y-75673841D01*
X104024797Y-75618089D01*
X104194177Y-75527554D01*
X104342640Y-75405713D01*
X104464481Y-75257250D01*
X104555016Y-75087870D01*
X104610768Y-74904082D01*
X104629593Y-74712948D01*
X104624875Y-74131698D01*
X104381125Y-73887948D01*
X102824875Y-73887948D01*
X102774875Y-73887948D01*
X102754875Y-73887948D01*
X102754875Y-73837948D01*
X102774875Y-73837948D01*
X102774875Y-72281698D01*
X102531125Y-72037948D01*
X101949875Y-72033230D01*
X101758741Y-72052055D01*
X101574953Y-72107807D01*
X101405573Y-72198342D01*
X101287970Y-72294857D01*
X101148020Y-72201345D01*
X100806792Y-72060004D01*
X100444546Y-71987948D01*
X100075204Y-71987948D01*
X99712958Y-72060004D01*
X99371730Y-72201345D01*
X99064632Y-72406541D01*
X98989875Y-72481298D01*
X98915118Y-72406541D01*
X98608020Y-72201345D01*
X98266792Y-72060004D01*
X97904546Y-71987948D01*
X97535204Y-71987948D01*
X97172958Y-72060004D01*
X96831730Y-72201345D01*
X96524632Y-72406541D01*
X96449875Y-72481298D01*
X96375118Y-72406541D01*
X96068020Y-72201345D01*
X95726792Y-72060004D01*
X95364546Y-71987948D01*
X94995204Y-71987948D01*
X94632958Y-72060004D01*
X94291730Y-72201345D01*
X93984632Y-72406541D01*
X93909875Y-72481298D01*
X93835118Y-72406541D01*
X93528020Y-72201345D01*
X93186792Y-72060004D01*
X92912061Y-72005356D01*
X93847470Y-71069948D01*
X104500309Y-71069948D01*
X104484580Y-71093488D01*
M02*
