M48
; DRILL file {KiCad (5.1.5)-3} date 22/05/2020 17:28:00
; FORMAT={-:-/ absolute / metric / decimal}
; #@! TF.CreationDate,2020-05-22T17:28:00+01:00
; #@! TF.GenerationSoftware,Kicad,Pcbnew,(5.1.5)-3
; #@! TF.FileFunction,Plated,1,2,PTH
FMAT,2
METRIC
T1C0.800
T2C1.000
T3C1.100
%
G90
G05
T1
X82.503Y-117.348
X82.503Y-124.968
X133.223Y-140.208
X133.223Y-147.828
X130.048Y-102.108
X130.048Y-109.728
X119.888Y-122.428
X119.888Y-130.048
X117.348Y-156.083
X124.968Y-156.083
X129.968Y-142.748
X129.968Y-150.368
X66.634Y-62.762
X66.634Y-65.302
X69.745Y-66.191
X69.745Y-73.811
X94.488Y-142.748
X102.108Y-142.748
X106.102Y-64.338
X106.102Y-71.958
X74.168Y-152.908
X81.788Y-152.908
X66.634Y-68.032
X66.634Y-70.572
X69.088Y-140.208
X69.088Y-147.828
X64.516Y-93.98
X72.136Y-93.98
X90.1Y-56.718
X90.1Y-64.338
X93.752Y-87.639
X98.65Y-93.476
X121.692Y-89.544
X121.692Y-97.164
X105.695Y-97.617
X111.532Y-92.719
X72.263Y-137.668
X72.263Y-145.288
X97.028Y-145.923
X104.648Y-145.923
X124.74Y-89.544
X124.74Y-97.164
X115.342Y-85.099
X115.342Y-92.719
X76.708Y-156.083
X84.328Y-156.083
X85.116Y-91.703
X92.736Y-91.703
X79.94Y-68.783
X79.94Y-73.783
X118.644Y-87.385
X118.644Y-95.005
X133.223Y-99.568
X133.223Y-107.188
X74.961Y-71.806
X74.961Y-73.806
X61.554Y-73.811
X66.554Y-73.811
X79.248Y-119.888
X79.248Y-127.508
X123.063Y-119.888
X123.063Y-127.508
X114.808Y-152.908
X122.428Y-152.908
X83.084Y-88.528
X90.704Y-88.528
T2
X76.708Y-160.528
X79.248Y-160.528
X81.788Y-160.528
X84.328Y-160.528
X137.668Y-140.208
X137.668Y-142.748
X137.668Y-145.288
X137.668Y-147.828
X137.668Y-99.568
X137.668Y-102.108
X137.668Y-104.648
X137.668Y-107.188
X97.028Y-150.368
X99.568Y-150.368
X102.108Y-150.368
X104.648Y-150.368
X75.972Y-100.339
X78.512Y-100.339
X81.052Y-100.339
X83.592Y-100.339
X86.132Y-100.339
X88.672Y-100.339
X91.212Y-100.339
X93.752Y-100.339
X96.292Y-100.339
X98.832Y-100.339
X101.372Y-100.339
X103.912Y-100.339
X106.452Y-100.339
X108.992Y-100.339
X111.532Y-100.339
X85.02Y-53.543
X87.56Y-53.543
X90.1Y-53.543
X92.64Y-53.543
X95.18Y-53.543
X97.72Y-53.543
X100.26Y-53.543
X102.8Y-53.543
X75.972Y-85.099
X78.512Y-85.099
X81.052Y-85.099
X83.592Y-85.099
X86.132Y-85.099
X88.672Y-85.099
X91.212Y-85.099
X93.752Y-85.099
X96.292Y-85.099
X98.832Y-85.099
X101.372Y-85.099
X103.912Y-85.099
X106.452Y-85.099
X108.992Y-85.099
X111.532Y-85.099
X64.008Y-99.568
X64.008Y-102.108
X64.008Y-104.648
X64.008Y-107.188
X85.02Y-73.863
X87.56Y-73.863
X90.1Y-73.863
X92.64Y-73.863
X95.18Y-73.863
X97.72Y-73.863
X100.26Y-73.863
X102.8Y-73.863
X74.168Y-119.888
X74.168Y-122.428
X74.168Y-124.968
X74.168Y-127.508
X117.348Y-160.528
X119.888Y-160.528
X122.428Y-160.528
X124.968Y-160.528
X64.008Y-140.208
X64.008Y-142.748
X64.008Y-145.288
X64.008Y-147.828
X127.508Y-119.888
X127.508Y-122.428
X127.508Y-124.968
X127.508Y-127.508
T3
X61.554Y-64.349
X61.554Y-66.889
X61.554Y-69.429
T2
G00X61.056Y-82.185
M15
G01X61.056Y-84.185
M16
G05
G00X63.056Y-87.885
M15
G01X65.056Y-87.885
M16
G05
G00X67.056Y-82.185
M15
G01X67.056Y-84.185
M16
G05
T0
M30
