G04 #@! TF.GenerationSoftware,KiCad,Pcbnew,(5.1.5)-3*
G04 #@! TF.CreationDate,2020-05-22T18:02:12+01:00*
G04 #@! TF.ProjectId,TSL2561,54534c32-3536-4312-9e6b-696361645f70,rev?*
G04 #@! TF.SameCoordinates,Original*
G04 #@! TF.FileFunction,Copper,L2,Bot*
G04 #@! TF.FilePolarity,Positive*
%FSLAX46Y46*%
G04 Gerber Fmt 4.6, Leading zero omitted, Abs format (unit mm)*
G04 Created by KiCad (PCBNEW (5.1.5)-3) date 2020-05-22 18:02:12*
%MOMM*%
%LPD*%
G04 APERTURE LIST*
%ADD10O,1.600000X1.600000*%
%ADD11C,1.600000*%
%ADD12O,1.700000X1.700000*%
%ADD13R,1.700000X1.700000*%
%ADD14R,1.050000X1.500000*%
%ADD15O,1.050000X1.500000*%
%ADD16R,1.500000X1.050000*%
%ADD17O,1.500000X1.050000*%
%ADD18R,1.600000X1.600000*%
%ADD19C,1.000000*%
%ADD20C,1.400000*%
%ADD21C,0.700000*%
%ADD22C,0.800000*%
%ADD23C,0.900000*%
G04 APERTURE END LIST*
D10*
X142875000Y-111760000D03*
D11*
X142875000Y-106680000D03*
D10*
X146050000Y-111760000D03*
D11*
X146050000Y-106680000D03*
D10*
X154559000Y-123317000D03*
D11*
X154559000Y-120777000D03*
D10*
X155194000Y-100457000D03*
D11*
X155194000Y-102997000D03*
D10*
X149479000Y-120142000D03*
D11*
X149479000Y-122682000D03*
D10*
X149479000Y-115062000D03*
D11*
X149479000Y-117602000D03*
D10*
X154559000Y-118110000D03*
D11*
X154559000Y-115570000D03*
D12*
X138430000Y-99060000D03*
X138430000Y-101600000D03*
X138430000Y-104140000D03*
X138430000Y-106680000D03*
D13*
X138430000Y-109220000D03*
D10*
X146747225Y-88011000D03*
D11*
X146747225Y-85471000D03*
D10*
X155448000Y-88011000D03*
D11*
X155448000Y-85471000D03*
D10*
X143637000Y-88011000D03*
D11*
X143637000Y-85471000D03*
D10*
X152908000Y-88011000D03*
D11*
X152908000Y-85471000D03*
D10*
X141097000Y-88011000D03*
D11*
X141097000Y-85471000D03*
D10*
X150368000Y-88011000D03*
D11*
X150368000Y-85471000D03*
D10*
X149479000Y-112522000D03*
D11*
X154559000Y-112522000D03*
D14*
X144907000Y-91313000D03*
D15*
X142367000Y-91313000D03*
X143637000Y-91313000D03*
D14*
X154178000Y-91313000D03*
D15*
X151638000Y-91313000D03*
X152908000Y-91313000D03*
D16*
X149733000Y-106680000D03*
D17*
X149733000Y-109220000D03*
X149733000Y-107950000D03*
D14*
X151384000Y-101727000D03*
D15*
X148844000Y-101727000D03*
X150114000Y-101727000D03*
D16*
X154813000Y-106680000D03*
D17*
X154813000Y-109220000D03*
X154813000Y-107950000D03*
D12*
X152273000Y-76708000D03*
X149733000Y-76708000D03*
X147193000Y-76708000D03*
D13*
X144653000Y-76708000D03*
D11*
X144685000Y-80899000D03*
D18*
X146685000Y-80899000D03*
D19*
X144653000Y-80867000D02*
X144685000Y-80899000D01*
X144653000Y-76708000D02*
X144653000Y-80867000D01*
X138430000Y-106680000D02*
X142875000Y-106680000D01*
D20*
X146696630Y-101727000D02*
X148688990Y-101727000D01*
X142875000Y-106680000D02*
X142875000Y-105548630D01*
X142875000Y-105548630D02*
X146696630Y-101727000D01*
X144685000Y-80899000D02*
X143553630Y-80899000D01*
X143553630Y-80899000D02*
X140716000Y-80899000D01*
X140716000Y-80899000D02*
X138023600Y-83591400D01*
X138023600Y-83591400D02*
X138023600Y-84759800D01*
X138023600Y-84759800D02*
X136956800Y-85826600D01*
X136956800Y-85826600D02*
X136220200Y-85826600D01*
X136220200Y-85826600D02*
X136194800Y-85801200D01*
X136194800Y-85801200D02*
X136194800Y-83972400D01*
X136194800Y-83972400D02*
X137058400Y-83972400D01*
X136194800Y-83972400D02*
X136245600Y-83972400D01*
X136245600Y-83972400D02*
X136982200Y-84709000D01*
D19*
X146685000Y-80899000D02*
X151511000Y-80899000D01*
X155448000Y-84836000D02*
X155448000Y-85471000D01*
X151511000Y-80899000D02*
X155448000Y-84836000D01*
X147193000Y-78591000D02*
X147193000Y-76708000D01*
X146685000Y-80899000D02*
X146685000Y-79099000D01*
X146685000Y-79099000D02*
X147193000Y-78591000D01*
D20*
X155194000Y-106143990D02*
X154813000Y-106524990D01*
X155194000Y-102997000D02*
X155194000Y-106143990D01*
X155194000Y-102997000D02*
X157353000Y-102997000D01*
X157353000Y-102997000D02*
X158115000Y-102235000D01*
X158115000Y-95885000D02*
X156845000Y-95885000D01*
X158115000Y-97790000D02*
X156845000Y-96520000D01*
X158115000Y-97790000D02*
X158115000Y-95885000D01*
X158115000Y-102235000D02*
X158115000Y-97790000D01*
D19*
X150368000Y-90043000D02*
X151638000Y-91313000D01*
X150368000Y-88011000D02*
X150368000Y-90043000D01*
X139632081Y-104140000D02*
X146617081Y-97155000D01*
X138430000Y-104140000D02*
X139632081Y-104140000D01*
D20*
X146617081Y-97155000D02*
X146617081Y-95952919D01*
X146617081Y-95952919D02*
X146685000Y-95885000D01*
X146685000Y-95885000D02*
X147955000Y-95885000D01*
X147955000Y-95885000D02*
X147955000Y-97155000D01*
X146617081Y-97155000D02*
X147320000Y-97155000D01*
D21*
X142367000Y-91186000D02*
X142367000Y-91313000D01*
D19*
X141097000Y-90043000D02*
X142367000Y-91313000D01*
X141097000Y-88011000D02*
X141097000Y-90043000D01*
X142367000Y-97663000D02*
X140970000Y-99060000D01*
X142367000Y-91313000D02*
X142367000Y-97663000D01*
X140970000Y-99060000D02*
X138430000Y-101600000D01*
D21*
X156579370Y-88011000D02*
X155448000Y-88011000D01*
X157226000Y-87364370D02*
X156579370Y-88011000D01*
X157226000Y-83947000D02*
X157226000Y-87364370D01*
X152273000Y-76708000D02*
X152273000Y-78994000D01*
X152273000Y-78994000D02*
X157226000Y-83947000D01*
D19*
X155448000Y-90043000D02*
X154178000Y-91313000D01*
X155448000Y-88011000D02*
X155448000Y-90043000D01*
X146747225Y-88011000D02*
X146747225Y-89472775D01*
X146747225Y-89472775D02*
X146685000Y-89789000D01*
X146685000Y-89789000D02*
X144907000Y-91313000D01*
D21*
X151384000Y-75057000D02*
X149733000Y-76708000D01*
X152908000Y-75057000D02*
X151384000Y-75057000D01*
X153924000Y-76073000D02*
X152908000Y-75057000D01*
X158700000Y-83262000D02*
X153924000Y-78486000D01*
X158700000Y-90700000D02*
X158700000Y-83262000D01*
X149987000Y-93091000D02*
X156337000Y-93091000D01*
X153924000Y-78486000D02*
X153924000Y-76073000D01*
X158126009Y-91273991D02*
X158700000Y-90700000D01*
X146685000Y-89789000D02*
X149987000Y-93091000D01*
X156337000Y-93091000D02*
X158126009Y-91301991D01*
X158126009Y-91301991D02*
X158126009Y-91273991D01*
D19*
X152908000Y-88011000D02*
X152908000Y-91313000D01*
X143637000Y-88011000D02*
X143637000Y-91313000D01*
X151384000Y-105029000D02*
X151384000Y-101727000D01*
X152654000Y-100457000D02*
X151384000Y-101727000D01*
X155194000Y-100457000D02*
X152654000Y-100457000D01*
X153244001Y-107905001D02*
X150876000Y-105537000D01*
X154260001Y-107905001D02*
X153244001Y-107905001D01*
X154305000Y-107950000D02*
X154260001Y-107905001D01*
X150876000Y-105537000D02*
X151384000Y-105029000D01*
X154813000Y-107950000D02*
X154305000Y-107950000D01*
X149733000Y-106680000D02*
X150876000Y-105537000D01*
D22*
X146685000Y-106680000D02*
X146050000Y-106680000D01*
X148590000Y-104775000D02*
X146685000Y-106680000D01*
X148616000Y-104775000D02*
X148590000Y-104775000D01*
X150114000Y-101727000D02*
X150114000Y-103277000D01*
X150114000Y-103277000D02*
X148616000Y-104775000D01*
D21*
X149733000Y-107950000D02*
X150208293Y-107950000D01*
D20*
X149479000Y-115062000D02*
X149479000Y-112522000D01*
X154559000Y-109629010D02*
X154813000Y-109375010D01*
X154559000Y-112522000D02*
X154559000Y-109629010D01*
X154559000Y-112522000D02*
X154559000Y-115570000D01*
D21*
X146050000Y-83058000D02*
X143637000Y-85471000D01*
X150368000Y-85471000D02*
X147955000Y-83058000D01*
X147955000Y-83058000D02*
X146050000Y-83058000D01*
D19*
X152908000Y-85471000D02*
X150368000Y-85471000D01*
X141097000Y-85471000D02*
X143637000Y-85471000D01*
D20*
X154559000Y-120777000D02*
X154559000Y-118110000D01*
D19*
X151765000Y-116447370D02*
X151765000Y-110871000D01*
X151765000Y-110871000D02*
X150114000Y-109220000D01*
X154559000Y-118110000D02*
X153427630Y-118110000D01*
X150114000Y-109220000D02*
X149733000Y-109220000D01*
X153427630Y-118110000D02*
X151765000Y-116447370D01*
X141097000Y-85471000D02*
X135890000Y-90678000D01*
X135890000Y-90678000D02*
X135890000Y-109220000D01*
X135890000Y-109220000D02*
X138430000Y-109220000D01*
D23*
X148083000Y-109220000D02*
X147448000Y-108585000D01*
X149733000Y-109220000D02*
X148083000Y-109220000D01*
X140180000Y-109220000D02*
X140815000Y-108585000D01*
X140815000Y-108585000D02*
X147448000Y-108585000D01*
X138430000Y-109220000D02*
X140180000Y-109220000D01*
D20*
X150114000Y-123317000D02*
X149479000Y-122682000D01*
X154559000Y-123317000D02*
X150114000Y-123317000D01*
D23*
X140970000Y-114173000D02*
X149479000Y-122682000D01*
X146050000Y-110628630D02*
X145276370Y-109855000D01*
X146050000Y-111760000D02*
X146050000Y-110628630D01*
X145276370Y-109855000D02*
X141605000Y-109855000D01*
X141605000Y-109855000D02*
X140970000Y-110490000D01*
X140970000Y-110490000D02*
X140970000Y-114173000D01*
D20*
X149479000Y-117602000D02*
X149479000Y-120142000D01*
D19*
X148717000Y-117602000D02*
X142875000Y-111760000D01*
X149479000Y-117602000D02*
X148717000Y-117602000D01*
M02*
