M48
; DRILL file {KiCad (5.1.5)-3} date 22/05/2020 18:03:35
; FORMAT={-:-/ absolute / metric / decimal}
; #@! TF.CreationDate,2020-05-22T18:03:35+01:00
; #@! TF.GenerationSoftware,Kicad,Pcbnew,(5.1.5)-3
; #@! TF.FileFunction,Plated,1,2,PTH
FMAT,2
METRIC
T1C0.750
T2C0.800
T3C1.000
%
G90
G05
T1
X151.638Y-91.313
X152.908Y-91.313
X148.844Y-101.727
X150.114Y-101.727
X151.384Y-101.727
X154.813Y-106.68
X154.813Y-107.95
X154.813Y-109.22
X149.733Y-106.68
X149.733Y-107.95
X149.733Y-109.22
X142.367Y-91.313
X143.637Y-91.313
X144.907Y-91.313
X154.178Y-91.313
T2
X143.637Y-85.471
X143.637Y-88.011
X155.448Y-85.471
X155.448Y-88.011
X144.685Y-80.899
X146.685Y-80.899
X149.479Y-112.522
X154.559Y-112.522
X154.559Y-115.57
X154.559Y-118.11
X141.097Y-85.471
X141.097Y-88.011
X150.368Y-85.471
X150.368Y-88.011
X149.479Y-115.062
X149.479Y-117.602
X146.05Y-106.68
X146.05Y-111.76
X149.479Y-120.142
X149.479Y-122.682
X142.875Y-106.68
X142.875Y-111.76
X155.194Y-100.457
X155.194Y-102.997
X152.908Y-85.471
X152.908Y-88.011
X146.747Y-85.471
X146.747Y-88.011
X154.559Y-120.777
X154.559Y-123.317
T3
X144.653Y-76.708
X147.193Y-76.708
X149.733Y-76.708
X152.273Y-76.708
X138.43Y-99.06
X138.43Y-101.6
X138.43Y-104.14
X138.43Y-106.68
X138.43Y-109.22
T0
M30
