G04 #@! TF.GenerationSoftware,KiCad,Pcbnew,(5.1.5)-3*
G04 #@! TF.CreationDate,2020-05-22T17:47:35+01:00*
G04 #@! TF.ProjectId,BME680,424d4536-3830-42e6-9b69-6361645f7063,rev?*
G04 #@! TF.SameCoordinates,Original*
G04 #@! TF.FileFunction,Copper,L2,Bot*
G04 #@! TF.FilePolarity,Positive*
%FSLAX46Y46*%
G04 Gerber Fmt 4.6, Leading zero omitted, Abs format (unit mm)*
G04 Created by KiCad (PCBNEW (5.1.5)-3) date 2020-05-22 17:47:35*
%MOMM*%
%LPD*%
G04 APERTURE LIST*
%ADD10O,1.600000X1.600000*%
%ADD11C,1.600000*%
%ADD12C,1.600000*%
%ADD13R,1.050000X1.500000*%
%ADD14O,1.050000X1.500000*%
%ADD15R,1.500000X1.050000*%
%ADD16O,1.500000X1.050000*%
%ADD17O,1.700000X1.700000*%
%ADD18R,1.700000X1.700000*%
%ADD19R,1.600000X1.600000*%
%ADD20C,0.700000*%
%ADD21C,1.000000*%
%ADD22C,1.400000*%
G04 APERTURE END LIST*
D10*
X146747225Y-88011000D03*
D11*
X146747225Y-85471000D03*
D10*
X155448000Y-88011000D03*
D11*
X155448000Y-85471000D03*
D10*
X143637000Y-88011000D03*
D11*
X143637000Y-85471000D03*
D10*
X152908000Y-88011000D03*
D11*
X152908000Y-85471000D03*
D10*
X141097000Y-88011000D03*
D11*
X141097000Y-85471000D03*
D10*
X150368000Y-88011000D03*
D11*
X150368000Y-85471000D03*
D10*
X152019000Y-101473000D03*
D11*
X152019000Y-106553000D03*
D12*
X146164901Y-124046956D02*
X146164901Y-124046956D01*
D11*
X144018000Y-128651000D03*
D10*
X147320000Y-128651000D03*
D11*
X152400000Y-128651000D03*
D10*
X148971000Y-118999000D03*
D11*
X148971000Y-124079000D03*
D10*
X152273000Y-124333000D03*
D11*
X152273000Y-119253000D03*
D10*
X147193000Y-116205000D03*
D11*
X152273000Y-116205000D03*
D13*
X144907000Y-91313000D03*
D14*
X142367000Y-91313000D03*
X143637000Y-91313000D03*
D13*
X154178000Y-91313000D03*
D14*
X151638000Y-91313000D03*
X152908000Y-91313000D03*
D15*
X145669000Y-110363000D03*
D16*
X145669000Y-112903000D03*
X145669000Y-111633000D03*
D13*
X146939000Y-102743000D03*
D14*
X144399000Y-102743000D03*
X145669000Y-102743000D03*
D15*
X150749000Y-110363000D03*
D16*
X150749000Y-112903000D03*
X150749000Y-111633000D03*
D10*
X137287000Y-106553000D03*
D11*
X137287000Y-114173000D03*
D17*
X152273000Y-76708000D03*
X149733000Y-76708000D03*
X147193000Y-76708000D03*
D18*
X144653000Y-76708000D03*
D17*
X155829000Y-131953000D03*
X155829000Y-129413000D03*
X155829000Y-126873000D03*
X155829000Y-124333000D03*
X155829000Y-121793000D03*
X155829000Y-119253000D03*
X155829000Y-116713000D03*
X155829000Y-114173000D03*
X155829000Y-111633000D03*
X155829000Y-109093000D03*
X155829000Y-106553000D03*
X155829000Y-104013000D03*
X155829000Y-101473000D03*
D18*
X155829000Y-98933000D03*
D17*
X140589000Y-131953000D03*
X140589000Y-129413000D03*
X140589000Y-126873000D03*
X140589000Y-124333000D03*
X140589000Y-121793000D03*
X140589000Y-119253000D03*
X140589000Y-116713000D03*
X140589000Y-114173000D03*
X140589000Y-111633000D03*
X140589000Y-109093000D03*
X140589000Y-106553000D03*
X140589000Y-104013000D03*
X140589000Y-101473000D03*
D18*
X140589000Y-98933000D03*
D11*
X144685000Y-80899000D03*
D19*
X146685000Y-80899000D03*
D20*
X148925409Y-124124591D02*
X148971000Y-124079000D01*
D21*
X144399000Y-100993000D02*
X144399000Y-102743000D01*
X146459000Y-98933000D02*
X144399000Y-100993000D01*
X155829000Y-98933000D02*
X146459000Y-98933000D01*
X146196945Y-124079000D02*
X146164901Y-124046956D01*
X143129000Y-104013000D02*
X144399000Y-102743000D01*
X140589000Y-104013000D02*
X143129000Y-104013000D01*
X144653000Y-80867000D02*
X144685000Y-80899000D01*
X144653000Y-76708000D02*
X144653000Y-80867000D01*
D22*
X148938956Y-124046956D02*
X148971000Y-124079000D01*
X146164901Y-124046956D02*
X148938956Y-124046956D01*
X144685000Y-80899000D02*
X141351000Y-80899000D01*
X141351000Y-80899000D02*
X136398000Y-85852000D01*
X136398000Y-85852000D02*
X136398000Y-100584000D01*
X136398000Y-100584000D02*
X137160000Y-100584000D01*
X137160000Y-100584000D02*
X137668000Y-100076000D01*
X137668000Y-100076000D02*
X137668000Y-98298000D01*
X137668000Y-98298000D02*
X137668000Y-97790000D01*
X137668000Y-97790000D02*
X137160000Y-97282000D01*
D21*
X146685000Y-80899000D02*
X151511000Y-80899000D01*
X155448000Y-84836000D02*
X155448000Y-85471000D01*
X151511000Y-80899000D02*
X155448000Y-84836000D01*
X147193000Y-78591000D02*
X147193000Y-76708000D01*
X146685000Y-80899000D02*
X146685000Y-79099000D01*
X146685000Y-79099000D02*
X147193000Y-78591000D01*
D22*
X150904010Y-110207990D02*
X150749000Y-110207990D01*
X152019000Y-109093000D02*
X150904010Y-110207990D01*
X152019000Y-106553000D02*
X152019000Y-109093000D01*
X140589000Y-114173000D02*
X137287000Y-114173000D01*
D20*
X150622000Y-122682000D02*
X152273000Y-124333000D01*
X149733000Y-116967000D02*
X150622000Y-117856000D01*
X149733000Y-115517000D02*
X149733000Y-116967000D01*
X150622000Y-121285000D02*
X150622000Y-122682000D01*
X150622000Y-117856000D02*
X150622000Y-121285000D01*
X140589000Y-97383000D02*
X139446000Y-96240000D01*
X140589000Y-98933000D02*
X140589000Y-97383000D01*
X139446000Y-96240000D02*
X139446000Y-87122000D01*
X139446000Y-87122000D02*
X141097000Y-85471000D01*
X146050000Y-83058000D02*
X143637000Y-85471000D01*
X150368000Y-85471000D02*
X147955000Y-83058000D01*
X147955000Y-83058000D02*
X146050000Y-83058000D01*
D21*
X152400000Y-124460000D02*
X152273000Y-124333000D01*
X140589000Y-98933000D02*
X140589000Y-101473000D01*
X137287000Y-106553000D02*
X137287000Y-104140000D01*
X137287000Y-104140000D02*
X139954000Y-101473000D01*
X139954000Y-101473000D02*
X139700000Y-101727000D01*
X140589000Y-101473000D02*
X139954000Y-101473000D01*
X139700000Y-101727000D02*
X140589000Y-101473000D01*
X152908000Y-85471000D02*
X150368000Y-85471000D01*
X141097000Y-85471000D02*
X143637000Y-85471000D01*
X149733000Y-115217000D02*
X149733000Y-115517000D01*
X147419000Y-112903000D02*
X149733000Y-115217000D01*
X145669000Y-112903000D02*
X147419000Y-112903000D01*
D22*
X152273000Y-128524000D02*
X152400000Y-128651000D01*
X152273000Y-124333000D02*
X152273000Y-128524000D01*
D20*
X157031081Y-106553000D02*
X158623000Y-104961081D01*
X155829000Y-106553000D02*
X157031081Y-106553000D01*
X158623000Y-104961081D02*
X158623000Y-98044000D01*
X158623000Y-98044000D02*
X158623000Y-97409000D01*
X158623000Y-97409000D02*
X158623000Y-96647000D01*
X158623000Y-96647000D02*
X158115000Y-96139000D01*
X158115000Y-96139000D02*
X157480000Y-95504000D01*
D21*
X157480000Y-95504000D02*
X151638000Y-95504000D01*
X151638000Y-95504000D02*
X151638000Y-94615000D01*
X150368000Y-90043000D02*
X151638000Y-91313000D01*
X150368000Y-88011000D02*
X150368000Y-90043000D01*
D20*
X142367000Y-91186000D02*
X142367000Y-91313000D01*
X142367000Y-92763000D02*
X142367000Y-91313000D01*
X155829000Y-104013000D02*
X157607000Y-102235000D01*
X157607000Y-102235000D02*
X157607000Y-97663000D01*
X146632000Y-97028000D02*
X142367000Y-92763000D01*
X157607000Y-97663000D02*
X156972000Y-97028000D01*
X156972000Y-97028000D02*
X146632000Y-97028000D01*
D21*
X141097000Y-90043000D02*
X142367000Y-91313000D01*
X141097000Y-88011000D02*
X141097000Y-90043000D01*
D20*
X156579370Y-88011000D02*
X155448000Y-88011000D01*
X157226000Y-87364370D02*
X156579370Y-88011000D01*
X157226000Y-83947000D02*
X157226000Y-87364370D01*
X152273000Y-76708000D02*
X152273000Y-78994000D01*
X152273000Y-78994000D02*
X157226000Y-83947000D01*
D21*
X155448000Y-90043000D02*
X154178000Y-91313000D01*
X155448000Y-88011000D02*
X155448000Y-90043000D01*
X146747225Y-88011000D02*
X146747225Y-89472775D01*
X146747225Y-89472775D02*
X146685000Y-89789000D01*
X146685000Y-89789000D02*
X144907000Y-91313000D01*
D20*
X151384000Y-75057000D02*
X149733000Y-76708000D01*
X152908000Y-75057000D02*
X151384000Y-75057000D01*
X153924000Y-76073000D02*
X152908000Y-75057000D01*
X158700000Y-83262000D02*
X153924000Y-78486000D01*
X158700000Y-90700000D02*
X158700000Y-83262000D01*
X149987000Y-93091000D02*
X156337000Y-93091000D01*
X153924000Y-78486000D02*
X153924000Y-76073000D01*
X158126009Y-91273991D02*
X158700000Y-90700000D01*
X146685000Y-89789000D02*
X149987000Y-93091000D01*
X156337000Y-93091000D02*
X158126009Y-91301991D01*
X158126009Y-91301991D02*
X158126009Y-91273991D01*
D21*
X152908000Y-88011000D02*
X152908000Y-91313000D01*
X143637000Y-88011000D02*
X143637000Y-91313000D01*
D20*
X146939000Y-104193000D02*
X146939000Y-102743000D01*
X145669000Y-110363000D02*
X145669000Y-107823000D01*
X146939000Y-106553000D02*
X146939000Y-104193000D01*
X145669000Y-107823000D02*
X146939000Y-106553000D01*
X149753998Y-111633000D02*
X148483998Y-110363000D01*
X150749000Y-111633000D02*
X149753998Y-111633000D01*
X145669000Y-110363000D02*
X148483998Y-110363000D01*
D21*
X150749000Y-102743000D02*
X152019000Y-101473000D01*
X146939000Y-102743000D02*
X150749000Y-102743000D01*
D20*
X142621000Y-108331000D02*
X145669000Y-105283000D01*
X144018000Y-128651000D02*
X142621000Y-127254000D01*
X145669000Y-105283000D02*
X145669000Y-102743000D01*
X142621000Y-127254000D02*
X142621000Y-108331000D01*
D22*
X147320000Y-128651000D02*
X144018000Y-128651000D01*
D20*
X145669000Y-111633000D02*
X146144293Y-111633000D01*
X145923000Y-114935000D02*
X147193000Y-116205000D01*
X144653000Y-111633000D02*
X143891000Y-112395000D01*
X145669000Y-111633000D02*
X144653000Y-111633000D01*
X143891000Y-113919000D02*
X144907000Y-114935000D01*
X143891000Y-112395000D02*
X143891000Y-113919000D01*
X144907000Y-114935000D02*
X145923000Y-114935000D01*
D22*
X147193000Y-117221000D02*
X148971000Y-118999000D01*
X147193000Y-116205000D02*
X147193000Y-117221000D01*
D21*
X152273000Y-119253000D02*
X152273000Y-116205000D01*
D22*
X152273000Y-114427000D02*
X150904010Y-113058010D01*
X150904010Y-113058010D02*
X150749000Y-113058010D01*
X152273000Y-116205000D02*
X152273000Y-114427000D01*
M02*
