M48
; DRILL file {KiCad (5.1.5)-3} date 22/05/2020 17:47:43
; FORMAT={-:-/ absolute / metric / decimal}
; #@! TF.CreationDate,2020-05-22T17:47:43+01:00
; #@! TF.GenerationSoftware,Kicad,Pcbnew,(5.1.5)-3
; #@! TF.FileFunction,Plated,1,2,PTH
FMAT,2
METRIC
T1C0.750
T2C0.800
T3C1.000
%
G90
G05
T1
X145.669Y-110.363
X142.367Y-91.313
X143.637Y-91.313
X144.907Y-91.313
X150.749Y-110.363
X150.749Y-111.633
X150.749Y-112.903
X144.399Y-102.743
X145.669Y-102.743
X146.939Y-102.743
X151.638Y-91.313
X152.908Y-91.313
X154.178Y-91.313
X145.669Y-111.633
X145.669Y-112.903
T2
X144.018Y-128.651
X146.165Y-124.047
X152.019Y-101.473
X152.019Y-106.553
X137.287Y-106.553
X137.287Y-114.173
X150.368Y-85.471
X150.368Y-88.011
X141.097Y-85.471
X141.097Y-88.011
X146.747Y-85.471
X146.747Y-88.011
X147.193Y-116.205
X152.273Y-116.205
X147.32Y-128.651
X152.4Y-128.651
X152.908Y-85.471
X152.908Y-88.011
X152.273Y-119.253
X152.273Y-124.333
X148.971Y-118.999
X148.971Y-124.079
X143.637Y-85.471
X143.637Y-88.011
X155.448Y-85.471
X155.448Y-88.011
X144.685Y-80.899
X146.685Y-80.899
T3
X155.829Y-98.933
X155.829Y-101.473
X155.829Y-104.013
X155.829Y-106.553
X155.829Y-109.093
X155.829Y-111.633
X155.829Y-114.173
X155.829Y-116.713
X155.829Y-119.253
X155.829Y-121.793
X155.829Y-124.333
X155.829Y-126.873
X155.829Y-129.413
X155.829Y-131.953
X144.653Y-76.708
X147.193Y-76.708
X149.733Y-76.708
X152.273Y-76.708
X140.589Y-98.933
X140.589Y-101.473
X140.589Y-104.013
X140.589Y-106.553
X140.589Y-109.093
X140.589Y-111.633
X140.589Y-114.173
X140.589Y-116.713
X140.589Y-119.253
X140.589Y-121.793
X140.589Y-124.333
X140.589Y-126.873
X140.589Y-129.413
X140.589Y-131.953
T0
M30
