M48
;GenerationSoftware,Autodesk,EAGLE,9.5.2*%
;CreationDate,2020-05-22T16:55:28Z*%
FMAT,2
ICI,OFF
METRIC,TZ,000.000
T3C0.813
T2C1.016
T1C3.000
%
G90
M71
T1
X15240Y87630
X35560Y87630
T2
X16510Y72390
X16510Y74930
X16510Y77470
X16510Y80010
X21590Y96520
X24130Y96520
X26670Y96520
X29210Y96520
X24130Y72390
X26670Y72390
X29210Y72390
X31750Y72390
X31750Y80010
X29210Y80010
X26670Y80010
X24130Y80010
T3
X21590Y92710
X24130Y92710
X21451Y89743
X24269Y85517
X19053Y82426
X24127Y82674
X29244Y89261
X26636Y93619
X19050Y77470
X24130Y77470
M30